<?xml version="1.0" standalone="no"?>
<!DOCTYPE svg PUBLIC "-//W3C//DTD SVG 1.1//EN" "http://www.w3.org/Graphics/SVG/1.1/DTD/svg11.dtd" >
<svg xmlns="http://www.w3.org/2000/svg" xmlns:xlink="http://www.w3.org/1999/xlink" version="1.1">
<metadata>
Created by FontForge 20141024 at Wed Oct 21 14:46:00 2015
 By Jimmy Warting
Copyright (c) 2008 by Kris Sowersby / KLIM. All rights reserved.
</metadata>
<defs>
<font id="Newzald-Bold" horiz-adv-x="516" >
  <font-face 
    font-family="Newzald Bold"
    font-weight="600"
    font-stretch="normal"
    units-per-em="1000"
    panose-1="2 0 5 4 0 0 0 2 0 4"
    ascent="800"
    descent="-200"
    x-height="436"
    cap-height="588"
    bbox="-184 -272 1279 943.282"
    underline-thickness="50"
    underline-position="-50"
    stemh="48"
    stemv="131"
    unicode-range="U+0020-FB06"
  />
<missing-glyph horiz-adv-x="262" 
 />
    <glyph glyph-name="f_b" unicode="fb" horiz-adv-x="846" 
d="M367 20v502c-29 7 -45 27 -45 59c0 24 11 47 30 57c-8 4 -22 8 -44 8c-64 0 -97 -49 -97 -154v-56h90l-8 -52h-82v-336l59 -19l-13 -29h-218v28l41 18v338h-67v40l67 16v29c0 155 92 218 216 218c49 0 86 -12 110 -33l71 27h22v-297h4c24 38 69 62 131 62
c101 0 178 -74 178 -210c0 -182 -134 -245 -267 -245c-75 0 -128 10 -178 29zM499 345v-289c14 -11 33 -17 56 -17c65 0 122 50 122 171c0 110 -49 152 -119 152c-26 0 -45 -7 -59 -17z" />
    <glyph glyph-name="f_f_b" unicode="ffb" horiz-adv-x="1138" 
d="M655 522c-30 7 -46 27 -46 59c0 24 12 47 31 57c-9 4 -22 8 -45 8c-63 0 -96 -49 -96 -154v-56h90l-8 -52h-82v-336l59 -19l-13 -29h-219v28l41 18v338h-156v-336l59 -19l-13 -29h-218v28l41 18v338h-67v40l67 16v20c0 150 93 217 231 217c49 0 93 -14 120 -39
c39 34 92 49 153 49c48 0 85 -12 109 -33l71 27h22v-297h4c25 38 70 62 132 62c101 0 178 -74 178 -210c0 -182 -134 -245 -267 -245c-75 0 -128 10 -178 29v502zM786 345v-289c15 -11 34 -17 57 -17c65 0 122 50 122 171c0 110 -49 152 -119 152c-27 0 -45 -7 -60 -17z
M367 469c0 16 1 32 3 47c-24 8 -38 30 -38 57c0 23 10 44 24 54c-8 4 -17 11 -44 11c-67 0 -101 -48 -101 -154v-48h156v33z" />
    <glyph glyph-name="f_f_h" unicode="ffh" horiz-adv-x="1136" 
d="M655 46v476c-30 7 -46 27 -46 59c0 24 12 47 31 57c-9 4 -22 8 -45 8c-63 0 -96 -49 -96 -154v-56h90l-8 -52h-82v-336l59 -19l-13 -29h-219v28l41 18v338h-156v-336l59 -19l-13 -29h-218v28l41 18v338h-67v40l67 16v20c0 150 93 217 231 217c49 0 93 -14 120 -39
c39 34 92 49 153 49c48 0 85 -12 109 -33l71 27h22v-319h4c33 56 86 84 147 84c65 0 130 -34 130 -151v-247l59 -19l-13 -29h-218v28l41 18v221c0 58 -29 88 -70 88c-31 0 -58 -13 -80 -34v-273l59 -19l-13 -29h-218v28zM367 469c0 16 1 32 3 47c-24 8 -38 30 -38 57
c0 23 10 44 24 54c-8 4 -17 11 -44 11c-67 0 -101 -48 -101 -154v-48h156v33z" />
    <glyph glyph-name="f_f_j" unicode="ffj" horiz-adv-x="845" 
d="M655 -78v462h-156v-336l59 -19l-13 -29h-219v28l41 18v338h-156v-336l59 -19l-13 -29h-218v28l41 18v338h-67v40l67 16v20c0 150 93 217 231 217c51 0 97 -15 123 -41c43 36 102 51 165 51c75 0 143 -24 143 -93c0 -42 -28 -71 -68 -71c-38 0 -66 22 -66 62
c0 27 12 50 33 60c-14 3 -21 5 -35 5c-72 0 -107 -55 -107 -164v-50h209l56 11h22v-497c0 -104 -68 -169 -202 -169c-60 0 -101 21 -101 72c0 39 29 62 66 62c40 0 57 -29 57 -62c0 -17 -6 -31 -12 -40c35 0 61 33 61 109zM367 460c0 20 1 38 4 55c-25 9 -39 30 -39 58
c0 23 10 44 24 54c-8 4 -17 11 -44 11c-67 0 -101 -48 -101 -154v-48h156v24z" />
    <glyph glyph-name="f_f_k" unicode="ffk" horiz-adv-x="1116" 
d="M655 46v476c-30 7 -46 27 -46 59c0 24 12 47 31 57c-9 4 -22 8 -45 8c-63 0 -96 -49 -96 -154v-56h90l-8 -52h-82v-336l59 -19l-13 -29h-219v28l41 18v338h-156v-336l59 -19l-13 -29h-218v28l41 18v338h-67v40l67 16v20c0 150 93 217 231 217c49 0 93 -14 120 -39
c39 34 92 49 153 49c48 0 85 -12 109 -33l71 27h22v-424l45 8l116 113l-60 24l6 34h194l8 -32l-58 -18l-112 -105l139 -232l61 -21l-9 -28h-173l-123 214h-34v-166l59 -19l-13 -29h-218v28zM367 469c0 16 1 32 3 47c-24 8 -38 30 -38 57c0 23 10 44 24 54
c-8 4 -17 11 -44 11c-67 0 -101 -48 -101 -154v-48h156v33z" />
    <glyph glyph-name="f_h" unicode="fh" horiz-adv-x="849" 
d="M367 46v476c-29 7 -45 27 -45 59c0 24 11 47 30 57c-8 4 -22 8 -44 8c-64 0 -97 -49 -97 -154v-56h90l-8 -52h-82v-336l59 -19l-13 -29h-218v28l41 18v338h-67v40l67 16v29c0 155 92 218 216 218c49 0 86 -12 110 -33l71 27h22v-319h4c33 56 86 84 146 84
c66 0 131 -34 131 -151v-247l59 -19l-13 -29h-218v28l41 18v221c0 58 -30 88 -71 88c-30 0 -57 -13 -79 -34v-273l58 -19l-13 -29h-218v28z" />
    <glyph glyph-name="f_j" unicode="fj" horiz-adv-x="557" 
d="M367 -78v462h-156v-336l59 -19l-13 -29h-218v28l41 18v338h-73v39l73 16v21c0 171 108 227 231 227c76 0 144 -24 144 -93c0 -42 -29 -71 -69 -71c-37 0 -66 22 -66 62c0 27 12 50 33 60c-14 3 -21 5 -35 5c-72 0 -107 -55 -107 -164v-50h210l56 11h22v-497
c0 -104 -69 -169 -202 -169c-61 0 -101 21 -101 72c0 39 28 62 65 62c41 0 58 -29 58 -62c0 -17 -6 -31 -12 -40c34 0 60 33 60 109z" />
    <glyph glyph-name="f_k" unicode="fk" horiz-adv-x="829" 
d="M367 46v476c-29 7 -45 27 -45 59c0 24 11 47 30 57c-8 4 -22 8 -44 8c-64 0 -97 -49 -97 -154v-56h90l-8 -52h-82v-336l59 -19l-13 -29h-218v28l41 18v338h-67v40l67 16v29c0 155 92 218 216 218c49 0 86 -12 110 -33l71 27h22v-424l45 8l116 113l-61 24l7 34h194l8 -32
l-58 -18l-113 -105l140 -232l61 -21l-9 -28h-174l-123 214h-33v-166l59 -19l-13 -29h-219v28z" />
    <glyph glyph-name="ff" unicode="ff" horiz-adv-x="618" 
d="M367 46v338h-156v-336l59 -19l-13 -29h-218v28l41 18v338h-67v40l67 16v20c0 150 93 217 231 217c50 0 95 -15 122 -40c42 36 99 50 154 50c73 0 125 -28 125 -88c0 -37 -28 -65 -64 -65c-38 0 -63 25 -63 61c0 22 10 44 24 54c-10 2 -15 3 -25 3c-62 0 -85 -62 -85 -146
v-70h122l-8 -52h-114v-334l85 -19l-13 -31h-245v28zM367 476c0 14 1 27 3 40c-24 8 -38 30 -38 57c0 23 10 44 24 54c-8 4 -17 11 -44 11c-67 0 -101 -48 -101 -154v-48h156v40z" />
    <glyph glyph-name="ffi" unicode="ffi" horiz-adv-x="863" 
d="M655 46v338h-156v-336l59 -19l-13 -29h-219v28l41 18v338h-156v-336l59 -19l-13 -29h-218v28l41 18v338h-67v40l67 16v20c0 150 93 217 231 217c51 0 97 -15 123 -41c43 36 102 51 165 51c75 0 143 -24 143 -93c0 -42 -28 -71 -68 -71c-38 0 -66 22 -66 62
c0 27 12 50 33 60c-14 3 -21 5 -35 5c-72 0 -107 -55 -107 -164v-50h209l56 11h22v-399l59 -19l-13 -29h-218v28zM367 460c0 20 1 38 4 55c-25 9 -39 30 -39 58c0 23 10 44 24 54c-8 4 -17 11 -44 11c-67 0 -101 -48 -101 -154v-48h156v24z" />
    <glyph glyph-name="ffl" unicode="ffl" horiz-adv-x="860" 
d="M80 46v338h-67v40l67 16v20c0 150 93 217 231 217c49 0 93 -14 120 -39c39 34 92 49 153 49c48 0 85 -12 109 -33l71 27h22v-633l59 -19l-13 -29h-218v28l41 18v476c-30 7 -46 27 -46 59c0 24 12 47 31 57c-9 4 -22 8 -45 8c-63 0 -96 -49 -96 -154v-56h90l-8 -52h-82
v-336l59 -19l-13 -29h-219v28l41 18v338h-156v-336l59 -19l-13 -29h-218v28zM367 469c0 16 1 32 3 47c-24 8 -38 30 -38 57c0 23 10 44 24 54c-8 4 -17 11 -44 11c-67 0 -101 -48 -101 -154v-48h156v33z" />
    <glyph glyph-name="fi" unicode="fi" horiz-adv-x="575" 
d="M499 48l59 -19l-13 -29h-219v28l41 18v338h-156v-336l59 -19l-13 -29h-218v28l41 18v338h-73v39l73 16v21c0 171 108 227 231 227c76 0 144 -24 144 -93c0 -42 -29 -71 -69 -71c-37 0 -66 22 -66 62c0 27 12 50 33 60c-14 3 -21 5 -35 5c-72 0 -107 -55 -107 -164v-50
h210l56 11h22v-399z" />
    <glyph glyph-name="fl" unicode="fl" horiz-adv-x="573" 
d="M211 48l59 -19l-13 -29h-218v28l41 18v338h-67v40l67 16v29c0 155 92 218 216 218c49 0 86 -12 110 -33l71 27h22v-633l59 -19l-13 -29h-219v28l41 18v476c-29 7 -45 27 -45 59c0 24 11 47 30 57c-8 4 -22 8 -44 8c-64 0 -97 -49 -97 -154v-56h90l-8 -52h-82v-336z" />
    <glyph glyph-name=".notdef" horiz-adv-x="262" 
 />
    <glyph glyph-name="space" unicode=" " horiz-adv-x="182" 
 />
    <glyph glyph-name="exclam" unicode="!" horiz-adv-x="261" 
d="M104 199l-50 325v65h146v-66l-51 -324h-45zM49 71c0 45 36 81 79 81c44 0 81 -36 81 -81c0 -44 -37 -79 -81 -79c-43 0 -79 35 -79 79z" />
    <glyph glyph-name="quotedbl" unicode="&#x22;" horiz-adv-x="392" 
d="M124 364h-38l-49 225c0 35 29 64 68 64s68 -29 68 -64zM306 364h-38l-49 225c0 35 29 64 68 64s68 -29 68 -64z" />
    <glyph glyph-name="numbersign" unicode="#" horiz-adv-x="663" 
d="M82 341l17 58h146l53 187h63l-54 -187h105l53 187h63l-53 -187h144l-17 -58h-144l-28 -100h151l-17 -58h-151l-52 -183h-62l51 183h-104l-52 -183h-62l51 183h-139l17 58h139l28 100h-146zM291 341l-29 -100h105l28 100h-104z" />
    <glyph glyph-name="dollar" unicode="$" horiz-adv-x="525" 
d="M243 -110v101c-111 3 -193 47 -193 118c0 39 26 69 66 69c41 0 62 -25 62 -60c0 -26 -19 -46 -43 -49c26 -18 57 -30 108 -32v198l-50 17c-85 29 -129 81 -129 167c0 114 81 170 179 178v100h43v-100c96 -4 177 -42 177 -113c0 -36 -21 -65 -63 -65c-36 0 -58 22 -58 53
c0 24 16 48 43 51c-23 16 -57 27 -99 29v-186l50 -16c99 -33 139 -91 139 -182c0 -110 -79 -167 -189 -176v-102h-43zM368 125c0 57 -30 78 -82 96v-182c47 7 82 33 82 86zM164 468c0 -43 19 -67 79 -88v171c-47 -7 -79 -36 -79 -83z" />
    <glyph glyph-name="percent" unicode="%" horiz-adv-x="919" 
d="M35 411c0 117 68 187 163 187c100 0 162 -60 162 -187c0 -116 -62 -184 -162 -184c-95 0 -163 60 -163 184zM152 411c0 -92 25 -135 75 -135c49 0 79 50 79 135c0 78 -28 132 -81 132c-46 0 -73 -34 -73 -132zM211 -39l436 667h60l-435 -667h-61zM558 177
c0 117 68 187 164 187c99 0 162 -60 162 -187c0 -116 -63 -184 -162 -184c-96 0 -164 60 -164 184zM675 177c0 -92 25 -135 75 -135c49 0 79 50 79 135c0 78 -28 132 -80 132c-46 0 -74 -34 -74 -132z" />
    <glyph glyph-name="ampersand" unicode="&#x26;" horiz-adv-x="596" 
d="M587 0h-167l-50 57c-40 -43 -102 -67 -182 -67c-105 0 -179 41 -179 138c0 88 64 136 146 160l-42 42c-35 35 -50 75 -50 119c0 103 86 149 184 149c106 0 173 -48 173 -134c0 -71 -57 -121 -131 -138l127 -135c14 28 28 62 29 94l-55 21l5 28h171l4 -28l-54 -25
c-10 -36 -49 -99 -68 -124l98 -108l46 -18zM137 160c0 -62 40 -98 100 -98c32 0 72 7 101 29l-155 170c-33 -25 -46 -60 -46 -101zM246 551c-41 0 -65 -27 -65 -68c0 -36 23 -63 43 -86l40 -45c34 35 50 68 50 121c0 40 -23 78 -68 78z" />
    <glyph glyph-name="quotesingle" unicode="'" horiz-adv-x="210" 
d="M124 364h-38l-49 225c0 35 29 64 68 64s68 -29 68 -64z" />
    <glyph glyph-name="parenleft" unicode="(" horiz-adv-x="342" 
d="M142 279c0 -176 57 -292 166 -420h-74c-110 109 -180 252 -180 420s70 311 180 420h74c-109 -128 -166 -244 -166 -420z" />
    <glyph glyph-name="parenright" unicode=")" horiz-adv-x="342" 
d="M200 279c0 176 -57 292 -166 420h74c110 -109 180 -252 180 -420s-70 -311 -180 -420h-74c109 128 166 244 166 420z" />
    <glyph glyph-name="asterisk" unicode="*" horiz-adv-x="381" 
d="M76 362l-47 28l-1 55c41 4 81 19 117 38c-36 20 -75 34 -117 39l1 55l47 28c25 -35 57 -62 91 -83c-1 41 -7 83 -24 122l47 26l48 -26c-18 -40 -24 -81 -25 -121c35 20 67 46 92 81l47 -27l1 -55c-43 -5 -82 -19 -117 -39c35 -19 74 -34 117 -39l-1 -54l-47 -28
c-25 34 -57 61 -92 82c1 -40 7 -82 25 -121l-48 -26l-47 26c17 39 23 81 24 121c-34 -20 -66 -47 -91 -82z" />
    <glyph glyph-name="plus" unicode="+" horiz-adv-x="496" 
d="M55 276h160v155h63v-155h163v-63h-163v-168h-63v168h-160v63z" />
    <glyph glyph-name="comma" unicode="," horiz-adv-x="282" 
d="M165 30h-7c-6 -25 -28 -34 -43 -34c-43 0 -64 33 -64 71c0 48 35 78 80 78c60 0 96 -42 96 -106c0 -96 -85 -165 -178 -187l-9 33c80 33 125 87 125 145z" />
    <glyph glyph-name="hyphen" unicode="-" horiz-adv-x="329" 
d="M40 196v81h249v-81h-249z" />
    <glyph glyph-name="period" unicode="." horiz-adv-x="258" 
d="M49 71c0 45 36 81 79 81c44 0 81 -36 81 -81c0 -44 -37 -79 -81 -79c-43 0 -79 35 -79 79z" />
    <glyph glyph-name="slash" unicode="/" horiz-adv-x="317" 
d="M10 -141l229 842h68l-230 -842h-67z" />
    <glyph glyph-name="zero" unicode="0" horiz-adv-x="589" 
d="M198 250c0 -118 52 -188 132 -188c85 0 144 78 144 188c0 109 -59 186 -144 186c-80 0 -132 -65 -132 -186zM295 -10c-147 0 -245 103 -245 260s98 258 245 258c146 0 244 -101 244 -258s-98 -260 -244 -260z" />
    <glyph glyph-name="one" unicode="1" horiz-adv-x="401" 
d="M273 492v-436l106 -22l-10 -34h-325l-10 34l108 22v344h-110l-8 29l229 79z" />
    <glyph glyph-name="two" unicode="2" horiz-adv-x="479" 
d="M166 99h267v-99h-390l-17 71c114 78 240 153 240 253c0 59 -33 95 -87 95c-55 0 -85 -32 -85 -80c0 -10 2 -19 4 -25l-34 -10c-9 17 -15 40 -15 61c0 82 63 143 175 143c116 0 179 -61 179 -160c0 -126 -130 -188 -237 -245v-4z" />
    <glyph glyph-name="three" unicode="3" horiz-adv-x="479" 
d="M22 13c0 40 26 69 68 69c41 0 65 -31 65 -63s-23 -51 -47 -55c13 -11 43 -21 79 -21c70 0 116 36 116 114c0 85 -75 122 -176 128l-8 30c104 26 150 62 150 123c0 48 -25 84 -85 84c-54 0 -81 -36 -81 -76c0 -17 3 -28 7 -38l-34 -11c-12 18 -20 39 -20 69
c0 80 56 142 177 142c107 0 173 -52 173 -139c0 -93 -77 -129 -143 -139v-4c106 -8 172 -55 172 -151c0 -130 -128 -174 -243 -174c-100 0 -170 46 -170 112z" />
    <glyph glyph-name="four" unicode="4" horiz-adv-x="538" 
d="M422 122h101v-62h-101v-150h-136v150h-281v43l279 395h138v-376zM144 122h142v192c0 54 3 98 3 98h-4s-13 -33 -47 -80l-109 -155c-28 -40 -46 -55 -46 -55v-4s9 4 61 4z" />
    <glyph glyph-name="five" unicode="5" horiz-adv-x="468" 
d="M131 374l-5 -88c162 0 292 -47 292 -199c0 -142 -116 -186 -232 -186c-96 0 -161 44 -161 111c0 44 30 70 69 70c40 0 64 -28 64 -63c0 -32 -23 -52 -49 -56c12 -12 39 -20 70 -20c69 0 116 35 116 110c0 92 -82 133 -221 137l21 308h301v-124h-265z" />
    <glyph glyph-name="six" unicode="6" horiz-adv-x="549" 
d="M195 312c-6 -29 -10 -54 -10 -86c0 -122 29 -190 99 -190c63 0 99 52 99 149c0 91 -42 144 -110 144c-38 0 -65 -11 -78 -17zM206 349c23 18 62 31 114 31c102 0 187 -58 187 -188c0 -120 -90 -202 -223 -202c-155 0 -234 87 -234 237c0 201 143 353 422 371l7 -35
c-159 -33 -236 -111 -273 -214z" />
    <glyph glyph-name="seven" unicode="7" horiz-adv-x="461" 
d="M151 74l135 227c31 52 49 78 49 78v4s-15 -9 -79 -9h-163l-53 -71l-18 6l21 189h413l5 -8l-285 -477h4c10 16 25 21 43 21c36 0 60 -28 60 -64c0 -46 -34 -69 -77 -69c-51 0 -83 31 -83 81c0 32 8 57 28 92z" />
    <glyph glyph-name="eight" unicode="8" horiz-adv-x="560" 
d="M280 35c58 0 93 41 93 122c0 88 -39 120 -93 120c-55 0 -94 -32 -94 -120c0 -81 35 -122 94 -122zM280 318c55 0 86 38 86 119c0 75 -29 113 -86 113c-58 0 -87 -38 -87 -113c0 -81 32 -119 87 -119zM280 -9c-145 0 -230 56 -230 163c0 81 51 131 133 143v5
c-84 14 -122 68 -122 135c0 97 78 161 219 161s218 -64 218 -161c0 -67 -38 -122 -121 -135v-5c81 -12 133 -62 133 -143c0 -107 -85 -163 -230 -163z" />
    <glyph glyph-name="nine" unicode="9" horiz-adv-x="549" 
d="M354 186c7 29 10 54 10 86c0 122 -29 190 -99 190c-62 0 -98 -52 -98 -149c0 -91 41 -144 109 -144c38 0 65 11 78 17zM343 149c-23 -18 -62 -31 -114 -31c-102 0 -187 58 -187 188c0 120 90 202 223 202c155 0 234 -87 234 -237c0 -201 -143 -352 -422 -370l-7 35
c159 32 236 110 273 213z" />
    <glyph glyph-name="colon" unicode=":" horiz-adv-x="275" 
d="M49 71c0 45 36 81 79 81c44 0 81 -36 81 -81c0 -44 -37 -79 -81 -79c-43 0 -79 35 -79 79zM49 343c0 45 36 80 79 80c44 0 81 -35 81 -80s-37 -80 -81 -80c-43 0 -79 35 -79 80z" />
    <glyph glyph-name="semicolon" unicode=";" horiz-adv-x="282" 
d="M165 30h-7c-6 -25 -28 -34 -43 -34c-43 0 -64 33 -64 71c0 48 35 78 80 78c60 0 96 -42 96 -106c0 -96 -85 -165 -178 -187l-9 33c80 33 125 87 125 145zM52 343c0 45 36 80 80 80c43 0 80 -35 80 -80s-37 -80 -80 -80c-44 0 -80 35 -80 80z" />
    <glyph glyph-name="less" unicode="&#x3c;" horiz-adv-x="395" 
d="M339 393l-183 -149l181 -150l-45 -53l-237 203l240 200z" />
    <glyph glyph-name="equal" unicode="=" horiz-adv-x="496" 
d="M441 143h-386v64h386v-64zM441 279h-386v63h386v-63z" />
    <glyph glyph-name="greater" unicode="&#x3e;" horiz-adv-x="395" 
d="M240 244l-184 149l45 51l239 -200l-236 -203l-45 53z" />
    <glyph glyph-name="question" unicode="?" horiz-adv-x="411" 
d="M215 199h-33c-14 15 -26 33 -26 63c0 40 23 57 47 77c28 21 48 45 48 89c0 49 -30 86 -85 86s-84 -42 -84 -87c0 -34 13 -53 30 -72l-29 -20c-34 22 -56 58 -56 108c0 76 52 155 175 155c120 0 181 -64 181 -153c0 -91 -54 -120 -107 -149c-43 -23 -61 -33 -61 -74v-23z
M118 71c0 45 36 81 80 81c43 0 80 -36 80 -81c0 -44 -37 -79 -80 -79c-44 0 -80 35 -80 79z" />
    <glyph glyph-name="at" unicode="@" horiz-adv-x="802" 
d="M444 193h-21c-52 0 -84 -15 -84 -61c0 -33 22 -52 55 -52c19 0 34 7 50 18v95zM453 69h-4c-21 -43 -62 -61 -117 -61c-66 0 -117 34 -117 111c0 76 67 117 165 117c28 0 50 -3 64 -6v26c0 55 -35 79 -91 79c-40 0 -78 -7 -114 -25l-10 26c41 54 107 83 188 83
c82 0 158 -38 158 -155v-142c0 -37 10 -57 39 -57c46 0 97 54 97 182c0 193 -141 284 -299 284c-192 0 -321 -132 -321 -324c0 -183 110 -325 324 -325c112 0 185 19 278 63l13 -28c-66 -45 -155 -79 -291 -79c-256 0 -375 162 -375 369c0 230 155 368 372 368
c199 0 350 -108 350 -328c0 -190 -98 -239 -192 -239c-65 0 -97 18 -117 61z" />
    <glyph glyph-name="A" unicode="A" horiz-adv-x="604" 
d="M409 52l-42 114h-207l-40 -110l74 -21l-5 -35h-180l-7 30l48 27l199 531h107l198 -531l48 -27l-7 -30h-247l-6 36zM230 354l-51 -136h169l-49 137c-28 78 -31 127 -31 127h-4s-6 -53 -34 -128z" />
    <glyph glyph-name="B" unicode="B" horiz-adv-x="574" 
d="M504 441c0 -69 -45 -125 -126 -131v-4c102 -12 159 -59 159 -148c0 -122 -103 -158 -214 -158h-281l-7 32l64 23v478l-64 23l7 32h264c118 0 198 -50 198 -147zM285 278h-50v-216l32 -14h17c76 0 111 37 111 117c0 71 -37 113 -110 113zM235 538v-213h45
c59 0 91 32 91 109c0 70 -30 104 -101 104h-35z" />
    <glyph glyph-name="C" unicode="C" horiz-adv-x="554" 
d="M37 295c0 209 119 303 286 303c41 0 87 -9 125 -19l60 19v-167l-21 -5l-45 55c-35 44 -67 70 -117 70c-85 0 -139 -64 -139 -257c0 -171 68 -232 155 -232c57 0 109 12 167 57l22 -33c-44 -61 -122 -96 -210 -96c-163 0 -283 92 -283 305z" />
    <glyph glyph-name="D" unicode="D" horiz-adv-x="634" 
d="M42 588h227c184 0 328 -74 328 -285c0 -213 -146 -303 -314 -303h-241l-7 32l64 23v478l-64 23zM235 60l39 -15c132 3 178 87 178 252c0 171 -65 242 -191 242h-26v-479z" />
    <glyph glyph-name="E" unicode="E" horiz-adv-x="532" 
d="M323 271h-88v-202l32 -17h121l94 136l26 -6l-20 -182h-446l-7 32l64 23v478l-64 23l7 32h437v-157l-21 -5l-84 110h-139v-213h87l43 82l22 -4v-211l-21 -4z" />
    <glyph glyph-name="F" unicode="F" horiz-adv-x="499" 
d="M339 35l-8 -35h-289l-7 32l64 23v478l-64 23l7 32h441v-157l-21 -5l-74 110h-153v-213h86l44 82l22 -4v-211l-21 -4l-44 85h-87v-210z" />
    <glyph glyph-name="G" unicode="G" horiz-adv-x="613" 
d="M186 294c0 -186 55 -253 133 -253c37 0 65 6 95 25v162l-62 23l7 32h227l8 -32l-52 -23v-237h-30l-47 47c-43 -30 -90 -48 -154 -48c-145 0 -274 91 -274 305c0 209 128 303 296 303c40 0 87 -9 124 -19l61 19v-167l-21 -5l-46 55c-35 44 -67 70 -117 70
c-84 0 -148 -64 -148 -257z" />
    <glyph glyph-name="H" unicode="H" horiz-adv-x="707" 
d="M415 588h250l7 -32l-64 -23v-478l64 -23l-7 -32h-250l-7 32l64 23v216h-237v-216l64 -23l-7 -32h-250l-7 32l64 23v478l-64 23l7 32h250l7 -32l-64 -23v-210h237v210l-64 23z" />
    <glyph glyph-name="I" unicode="I" horiz-adv-x="334" 
d="M42 588h250l7 -32l-64 -23v-478l64 -23l-7 -32h-250l-7 32l64 23v478l-64 23z" />
    <glyph glyph-name="J" unicode="J" horiz-adv-x="305" 
d="M83 -50v583l-64 23l7 32h250l7 -32l-64 -23v-532c0 -129 -82 -191 -213 -191c-62 0 -106 22 -106 74c0 48 33 68 67 68c43 0 64 -28 64 -66c0 -19 -8 -33 -15 -41c48 1 67 30 67 105z" />
    <glyph glyph-name="K" unicode="K" horiz-adv-x="638" 
d="M235 321l55 8l164 203l-61 24l5 32h199l6 -32l-68 -18l-150 -181l184 -304l75 -20l-7 -33h-199l-157 277h-46v-222l64 -23l-7 -32h-250l-7 32l64 23v478l-64 23l7 32h250l7 -32l-64 -23v-212z" />
    <glyph glyph-name="L" unicode="L" horiz-adv-x="511" 
d="M300 556l-65 -23v-464l33 -17h112l97 155l26 -6l-23 -201h-438l-7 32l64 23v478l-64 23l7 32h250z" />
    <glyph glyph-name="M" unicode="M" horiz-adv-x="831" 
d="M551 357l-133 -357h-72l-137 357c-26 68 -45 141 -45 141h-4s6 -78 6 -142v-301l76 -23l-7 -32h-193l-7 32l64 23v478l-64 23l7 32h224l122 -330c24 -66 28 -109 28 -109h4s5 40 29 108l120 331h220l7 -32l-64 -23v-478l64 -23l-7 -32h-249l-8 32l64 23v301
c0 64 6 142 6 142h-4s-21 -72 -47 -141z" />
    <glyph glyph-name="N" unicode="N" horiz-adv-x="651" 
d="M166 319v-264l76 -23l-7 -32h-193l-7 32l64 23v478l-64 23l7 32h190l208 -293c41 -57 65 -118 65 -118h4s-5 77 -5 150v206l-76 23l7 32h188l8 -32l-65 -23v-533h-77l-257 353c-43 57 -68 118 -68 118h-4s6 -77 6 -152z" />
    <glyph glyph-name="O" unicode="O" horiz-adv-x="637" 
d="M319 38c90 0 131 72 131 256c0 185 -41 256 -131 256c-91 0 -132 -71 -132 -256c0 -184 41 -256 132 -256zM319 -10c-180 0 -282 116 -282 304s102 304 282 304c179 0 281 -116 281 -304s-102 -304 -281 -304z" />
    <glyph glyph-name="P" unicode="P" horiz-adv-x="547" 
d="M288 215h-53v-154l104 -26l-8 -35h-289l-7 32l64 23v478l-64 23l7 32h246c123 0 237 -45 237 -182c0 -144 -122 -191 -237 -191zM235 539v-275h33c83 0 118 36 118 142c0 95 -44 133 -118 133h-33z" />
    <glyph glyph-name="Q" unicode="Q" horiz-adv-x="637" 
d="M325 -74c-18 23 -44 51 -79 71c-135 28 -209 136 -209 297c0 188 102 304 282 304c179 0 281 -116 281 -304c0 -164 -77 -273 -215 -298v-4c38 -3 67 -20 95 -55l42 -54l67 -24l-7 -29h-186zM319 38c90 0 131 72 131 256c0 185 -41 256 -131 256
c-91 0 -132 -71 -132 -256c0 -184 41 -256 132 -256z" />
    <glyph glyph-name="R" unicode="R" horiz-adv-x="613" 
d="M235 539v-232h53c65 0 104 30 104 118c0 79 -38 114 -104 114h-53zM549 53l70 -23l-7 -30h-193l-101 212c-15 32 -34 48 -83 49v-206l64 -23l-7 -32h-250l-7 32l64 23v478l-64 23l7 32h292c102 0 202 -38 202 -159c0 -100 -81 -147 -159 -154v-5c42 -5 76 -29 96 -68z
" />
    <glyph glyph-name="S" unicode="S" horiz-adv-x="485" 
d="M246 37c53 0 85 30 85 82c0 54 -28 80 -94 106l-72 30c-74 30 -117 80 -117 172c0 119 92 171 189 171c53 0 96 -12 127 -22l49 22l9 -166l-27 -6l-48 63c-30 42 -61 64 -113 64c-47 0 -79 -30 -79 -76s21 -73 81 -97l75 -30c94 -37 135 -91 135 -183
c0 -120 -91 -177 -198 -177c-72 0 -110 18 -138 32l-54 -32l-17 190l31 6l49 -71c33 -51 70 -78 127 -78z" />
    <glyph glyph-name="T" unicode="T" horiz-adv-x="554" 
d="M110 35l99 24v479h-92l-82 -112l-21 5v157h526v-157l-21 -5l-82 112h-92v-479l99 -24l-8 -35h-318z" />
    <glyph glyph-name="U" unicode="U" horiz-adv-x="631" 
d="M550 533v-325c0 -139 -90 -218 -229 -218c-138 0 -240 59 -240 214v329l-64 23l7 32h249l8 -32l-64 -23v-327c0 -106 48 -150 129 -150c82 0 137 48 137 153v324l-76 23l8 32h191l8 -32z" />
    <glyph glyph-name="V" unicode="V" horiz-adv-x="594" 
d="M368 234l106 298l-74 21l5 35h180l7 -30l-47 -27l-195 -531h-107l-193 531l-48 27l7 30h248l6 -36l-67 -16l104 -303c24 -70 30 -127 30 -127h4s8 53 34 128z" />
    <glyph glyph-name="W" unicode="W" horiz-adv-x="833" 
d="M520 0l-78 293c-19 70 -23 139 -23 139h-4s-8 -70 -26 -139l-76 -293h-124l-133 530l-49 28l7 30h248l6 -36l-68 -16l64 -291c15 -68 19 -131 19 -131h4s9 58 27 132l84 342h103l92 -341c19 -72 21 -133 21 -133h4s5 59 22 133l67 284l-75 22l5 35h182l7 -30l-49 -27
l-133 -531h-124z" />
    <glyph glyph-name="X" unicode="X" horiz-adv-x="603" 
d="M319 375l110 158l-63 21l6 34h192l6 -35l-59 -16l-155 -212l186 -270l57 -23l-8 -32h-269l-7 32l72 22l-118 177l-123 -173l74 -28l-7 -30h-201l-8 30l63 25l165 223l-172 253l-46 25l7 32h252l8 -36l-65 -14z" />
    <glyph glyph-name="Y" unicode="Y" horiz-adv-x="572" 
d="M196 536l89 -171c31 -59 32 -90 32 -90h4s6 29 39 89l92 168l-76 21l5 35h182l7 -30l-48 -27l-168 -307v-165l99 -24l-8 -35h-318l-8 35l99 24v165l-168 307l-48 27l7 30h248l6 -36z" />
    <glyph glyph-name="Z" unicode="Z" horiz-adv-x="529" 
d="M22 12l257 452c29 53 50 72 50 72v4s-17 -3 -71 -3h-97l-93 -113l-22 4l14 160h425l5 -14l-255 -449c-32 -54 -53 -73 -53 -73v-4s19 4 74 4h125l99 131l24 -7l-31 -176h-445z" />
    <glyph glyph-name="bracketleft" unicode="[" horiz-adv-x="347" 
d="M100 -141v842h207v-38l-121 -16v-733l121 -16v-39h-207z" />
    <glyph glyph-name="backslash" unicode="\" horiz-adv-x="317" 
d="M77 701l230 -842h-67l-230 842h67z" />
    <glyph glyph-name="bracketright" unicode="]" horiz-adv-x="347" 
d="M247 701v-842h-207v39l121 16v733l-121 16v38h207z" />
    <glyph glyph-name="asciicircum" unicode="^" horiz-adv-x="425" 
d="M20 286l166 302h52l167 -302l-88 -4l-106 197l-105 -197z" />
    <glyph glyph-name="underscore" unicode="_" horiz-adv-x="378" 
d="M40 -94v54h298v-54h-298z" />
    <glyph glyph-name="grave" unicode="`" horiz-adv-x="330" 
d="M231 486l-121 85c-34 21 -41 63 -6 91c32 27 74 13 91 -26l55 -133z" />
    <glyph glyph-name="a" unicode="a" horiz-adv-x="470" 
d="M401 287v-191c0 -45 16 -55 63 -50l3 -20c-25 -24 -58 -36 -105 -36c-43 0 -79 18 -87 64l-3 1c-21 -45 -67 -65 -121 -65c-67 0 -122 37 -122 120c0 88 70 131 181 131c21 0 44 -4 60 -8v38c0 58 -37 87 -96 87c-42 0 -77 -8 -119 -30l-12 29c43 58 112 89 194 89
c83 0 164 -37 164 -159zM270 195h-22c-59 0 -93 -15 -93 -68c0 -37 22 -62 57 -62c22 0 40 5 58 21v109z" />
    <glyph glyph-name="b" unicode="b" horiz-adv-x="542" 
d="M63 574l-47 54v11l156 42h22v-297h4c25 38 70 62 132 62c101 0 178 -74 178 -210c0 -182 -134 -246 -267 -246c-75 0 -128 10 -178 29v555zM194 345v-290c15 -10 34 -17 57 -17c65 0 122 51 122 172c0 110 -49 152 -119 152c-27 0 -45 -7 -60 -17z" />
    <glyph glyph-name="c" unicode="c" horiz-adv-x="436" 
d="M309 395c-8 3 -17 6 -34 6c-66 0 -111 -52 -111 -169c0 -97 46 -158 125 -158c45 0 72 14 107 39l18 -22c-36 -74 -93 -101 -178 -101c-116 0 -202 79 -202 222c0 158 111 234 233 234c83 0 144 -33 144 -100c0 -41 -27 -69 -65 -69c-37 0 -64 26 -64 62
c0 25 11 44 27 56z" />
    <glyph glyph-name="d" unicode="d" horiz-adv-x="549" 
d="M169 231c0 -106 42 -160 132 -160c14 0 33 4 47 12v285c-18 22 -42 31 -70 31c-65 0 -109 -59 -109 -168zM359 55l-3 1c-29 -39 -74 -66 -135 -66c-117 0 -187 80 -187 213c0 171 114 243 232 243c38 0 62 -6 82 -16v144l-47 54v11l156 42h22v-596l52 -46v-16l-164 -31z
" />
    <glyph glyph-name="e" unicode="e" horiz-adv-x="453" 
d="M162 227c2 -91 42 -153 127 -153c45 0 71 11 108 39l19 -22c-32 -72 -93 -101 -178 -101c-114 0 -204 73 -204 222c0 151 102 234 223 234c98 0 166 -57 166 -162c0 -16 -1 -38 -5 -57h-256zM248 400c-44 0 -76 -41 -84 -126h141c2 8 3 21 3 37c0 47 -13 89 -60 89z" />
    <glyph glyph-name="f" unicode="f" horiz-adv-x="330" 
d="M211 50l85 -19l-13 -31h-244v28l41 18v338h-67v40l67 16v36c0 160 117 211 220 211c73 0 124 -28 124 -88c0 -37 -27 -65 -63 -65c-38 0 -63 25 -63 61c0 22 10 44 24 54c-10 2 -15 3 -25 3c-60 0 -86 -62 -86 -146v-70h122l-8 -52h-114v-334z" />
    <glyph glyph-name="g" unicode="g" horiz-adv-x="488" 
d="M174 87h156c95 0 155 -46 155 -142c0 -122 -121 -167 -253 -167c-122 0 -212 28 -212 105c0 57 45 83 113 93v3c-57 7 -89 40 -89 92s39 83 94 94c-57 20 -93 60 -93 125c0 88 66 156 192 156c52 0 113 -10 160 -33c-4 6 -6 14 -6 24c0 32 24 52 55 52
c32 0 55 -22 55 -57c0 -38 -25 -59 -61 -59c-26 0 -50 10 -79 21v-10c35 -16 59 -50 59 -95c0 -96 -96 -139 -184 -139c-22 0 -42 2 -61 7c-21 -7 -37 -18 -37 -40c0 -20 12 -30 36 -30zM172 -32c-26 -14 -42 -36 -42 -68c0 -53 39 -78 108 -78c79 0 139 22 139 85
c0 38 -20 61 -79 61h-126zM294 297c0 65 -9 104 -61 104c-51 0 -60 -39 -60 -104c0 -64 9 -103 60 -103c52 0 61 39 61 103z" />
    <glyph glyph-name="h" unicode="h" horiz-adv-x="553" 
d="M354 46v221c0 58 -30 88 -71 88c-30 0 -57 -13 -80 -34v-273l59 -19l-13 -29h-218v28l41 18v528l-47 54v11l156 42h22v-319h4c34 56 87 84 147 84c65 0 131 -34 131 -151v-247l58 -19l-13 -29h-217v28z" />
    <glyph glyph-name="i" unicode="i" horiz-adv-x="287" 
d="M63 579c0 46 35 82 81 82c45 0 81 -36 81 -82c0 -45 -36 -80 -81 -80c-46 0 -81 35 -81 80zM210 48l59 -19l-13 -29h-218v28l41 18v274l-42 66v11l151 49h22v-398z" />
    <glyph glyph-name="j" unicode="j" horiz-adv-x="259" 
d="M53 579c0 46 36 82 81 82c46 0 81 -36 81 -82c0 -45 -35 -80 -81 -80c-45 0 -81 35 -81 80zM201 448v-498c0 -104 -69 -169 -202 -169c-61 0 -101 21 -101 72c0 39 28 62 65 62c41 0 58 -29 58 -62c0 -17 -6 -31 -12 -40c34 0 60 33 60 109v401l-48 66v11l158 48h22z" />
    <glyph glyph-name="k" unicode="k" horiz-adv-x="534" 
d="M203 48l60 -19l-13 -29h-219v28l41 18v528l-47 54v11l156 42h22v-436l41 8l129 125l-63 24l7 34h194l7 -32l-58 -18l-117 -113l138 -224l62 -21l-12 -28h-171l-119 202h-38v-154z" />
    <glyph glyph-name="l" unicode="l" horiz-adv-x="278" 
d="M203 48l60 -19l-13 -29h-219v28l41 18v528l-47 54v11l156 42h22v-633z" />
    <glyph glyph-name="m" unicode="m" horiz-adv-x="830" 
d="M485 319v-271l59 -19l-13 -29h-213v28l36 17v227c0 50 -22 81 -65 81c-27 0 -54 -12 -79 -34v-271l59 -19l-13 -29h-218v28l41 16v276l-42 66v11l152 49h20l-3 -87h4c40 64 89 87 146 87s104 -27 120 -89h4c41 66 88 89 149 89c67 0 132 -35 132 -146v-252l59 -19
l-13 -29h-214v28l37 17v226c0 52 -23 82 -65 82c-30 0 -56 -12 -80 -34z" />
    <glyph glyph-name="n" unicode="n" horiz-adv-x="561" 
d="M492 48l59 -19l-13 -29h-219v28l41 19v218c0 65 -34 87 -71 87c-34 0 -61 -17 -79 -34v-270l59 -19l-13 -29h-218v28l41 18v274l-42 66v11l151 49h21l-3 -87h4c36 57 86 87 153 87c73 0 129 -51 129 -153v-245z" />
    <glyph glyph-name="o" unicode="o" 
d="M482 218c0 -151 -89 -228 -224 -228s-224 77 -224 228s89 228 224 228s224 -77 224 -228zM173 218c0 -116 18 -182 85 -182s85 66 85 182s-18 182 -85 182s-85 -66 -85 -182z" />
    <glyph glyph-name="p" unicode="p" horiz-adv-x="546" 
d="M260 -10c-27 0 -46 4 -61 8v-160l70 -19l-13 -29h-236v28l47 17v484l-42 67v11l161 49h16l-3 -69h4c22 37 69 69 131 69c101 0 178 -74 178 -210c0 -182 -134 -246 -252 -246zM199 339v-281c14 -10 33 -17 56 -17c65 0 122 48 122 171c0 105 -48 145 -117 145
c-27 0 -47 -8 -61 -18z" />
    <glyph glyph-name="q" unicode="q" horiz-adv-x="535" 
d="M348 48h-3c-25 -36 -67 -58 -124 -58c-117 0 -187 80 -187 213c0 171 114 243 232 243c38 0 71 -9 88 -23l125 23v-608l70 -19l-13 -29h-235v28l47 17v213zM169 231c0 -106 42 -160 132 -160c14 0 33 4 47 12v285c-18 22 -42 31 -70 31c-65 0 -109 -59 -109 -168z" />
    <glyph glyph-name="r" unicode="r" horiz-adv-x="420" 
d="M210 50l85 -19l-13 -31h-244v28l41 18v273l-42 66v11l151 50h21l-3 -102h4c20 51 59 102 125 102c53 0 85 -31 85 -80c0 -45 -31 -73 -69 -73c-43 0 -69 29 -69 70c-25 -11 -49 -34 -72 -64v-249z" />
    <glyph glyph-name="s" unicode="s" horiz-adv-x="418" 
d="M37 137l27 6c53 -88 90 -110 146 -110c40 0 69 13 69 53c0 32 -19 50 -64 64l-65 21c-69 21 -107 61 -107 135c0 97 67 140 157 140c34 0 72 -8 95 -20l55 19l3 -131l-24 -6c-40 64 -78 93 -128 93c-36 0 -58 -19 -58 -48c0 -28 15 -44 50 -56l72 -24
c82 -27 119 -69 119 -145c0 -97 -68 -138 -177 -138c-38 0 -78 10 -107 23l-52 -23z" />
    <glyph glyph-name="t" unicode="t" horiz-adv-x="343" 
d="M9 384v33l160 137h30v-118h132l-7 -52h-124v-236c0 -58 22 -80 62 -80c26 0 46 6 74 21l10 -24c-31 -47 -81 -75 -145 -75c-78 0 -132 39 -132 141v253h-60z" />
    <glyph glyph-name="u" unicode="u" horiz-adv-x="528" 
d="M330 320l-42 66v11l151 49h22v-359l49 -46v-17l-165 -31l-11 69h-4c-31 -50 -81 -72 -134 -72c-72 0 -139 38 -139 152v178l-42 66v11l151 49h22v-291c0 -61 24 -86 64 -86c28 0 50 9 78 30v221z" />
    <glyph glyph-name="v" unicode="v" horiz-adv-x="482" 
d="M309 214l59 169l-63 19l5 34h169l6 -33l-46 -16l-149 -387h-99l-149 375l-45 30l7 31h231l7 -35l-64 -15l61 -173c23 -67 31 -116 31 -116h4s10 50 35 117z" />
    <glyph glyph-name="w" unicode="w" horiz-adv-x="719" 
d="M4 436h233l6 -34l-61 -16l49 -177c16 -56 20 -99 20 -99h4s5 43 22 100l68 226h98l66 -227c16 -55 23 -99 23 -99h4s5 44 22 100l52 173l-63 19l5 34h165l5 -33l-45 -15l-124 -388h-109l-61 196c-15 46 -22 100 -22 100h-4s-9 -56 -23 -100l-59 -196h-113l-120 376
l-45 29z" />
    <glyph glyph-name="x" unicode="x" horiz-adv-x="497" 
d="M64 56l120 153l-126 170l-54 25l7 32h228l8 -34l-41 -10l64 -101h4l74 97l-50 15l6 33h168l7 -31l-63 -24l-110 -136l142 -196l55 -19l-9 -30h-227l-9 29l44 13l-81 120h-5l-88 -114l71 -19l-9 -29h-191l-5 28z" />
    <glyph glyph-name="y" unicode="y" horiz-adv-x="486" 
d="M218 -40l-173 415l-45 30l7 31h232l6 -35l-64 -15l65 -165c28 -72 31 -118 31 -118h4s11 51 34 119l55 161l-63 19l5 34h168l6 -33l-46 -16l-147 -394c-52 -140 -107 -211 -208 -211c-63 0 -91 37 -91 81c0 42 25 69 67 69c43 0 62 -30 62 -62c0 -21 -9 -34 -16 -42
c43 4 89 64 111 132z" />
    <glyph glyph-name="z" unicode="z" horiz-adv-x="462" 
d="M192 393h-46l-87 -107l-22 4l11 146h370l5 -14l-190 -305c-31 -51 -53 -73 -53 -73v-4s14 4 68 4h71l91 115l24 -7l-24 -152h-379l-6 12l188 308c31 52 49 72 49 72v4s-16 -3 -70 -3z" />
    <glyph glyph-name="braceleft" unicode="{" horiz-adv-x="393" 
d="M128 280v-4c59 -15 117 -48 117 -141v-112c0 -78 43 -119 108 -132v-34c-112 0 -197 45 -197 167v104c0 102 -53 124 -132 135v30c79 11 132 33 132 135v104c0 122 85 167 197 167v-34c-65 -13 -108 -54 -108 -132v-112c0 -93 -58 -126 -117 -141z" />
    <glyph glyph-name="bar" unicode="|" horiz-adv-x="138" 
d="M38 -141v842h62v-842h-62z" />
    <glyph glyph-name="braceright" unicode="}" horiz-adv-x="393" 
d="M265 276v4c-60 15 -118 48 -118 141v112c0 78 -43 119 -107 132v34c111 0 197 -45 197 -167v-104c0 -102 53 -124 132 -135v-30c-79 -11 -132 -33 -132 -135v-104c0 -122 -86 -167 -197 -167v34c64 13 107 54 107 132v112c0 93 58 126 118 141z" />
    <glyph glyph-name="asciitilde" unicode="~" horiz-adv-x="438" 
d="M233 191l-59 25c-14 6 -26 9 -38 9c-27 -1 -46 -19 -49 -58l-24 4c-5 15 -9 29 -9 45c0 53 38 92 95 92c17 0 36 -4 55 -12l59 -24c16 -6 31 -11 44 -11c23 0 39 16 43 54l25 -4c5 -17 9 -33 9 -50c0 -51 -34 -84 -85 -84c-20 0 -42 4 -66 14z" />
    <glyph glyph-name="Euro" unicode="&#x20ac;" horiz-adv-x="620" 
d="M400 598c108 0 174 -45 174 -112c0 -42 -26 -66 -63 -66c-35 0 -64 22 -64 59c0 23 11 46 34 54c-18 11 -43 18 -76 18c-74 0 -124 -55 -139 -174h191v-44h-195c-1 -13 -1 -26 -1 -39s0 -26 1 -37h196v-44h-191c18 -111 76 -151 147 -151c57 0 99 14 151 55l21 -32
c-42 -61 -112 -94 -205 -94c-138 0 -234 72 -259 222h-75v44h70c-1 12 -1 25 -1 38s0 25 1 38h-71v44h77c28 147 133 221 277 221z" />
    <glyph glyph-name="quotesinglbase" unicode="&#x201a;" horiz-adv-x="239" 
d="M147 33h-7c-6 -25 -28 -34 -43 -34c-43 0 -64 34 -64 72c0 47 35 78 80 78c60 0 96 -42 96 -106c0 -96 -85 -166 -178 -188l-9 34c80 33 125 87 125 144z" />
    <glyph glyph-name="florin" unicode="&#x192;" horiz-adv-x="587" 
d="M120 272v44h113l10 93c13 131 87 189 203 189c68 0 131 -27 131 -87c0 -40 -25 -67 -61 -67c-37 0 -63 24 -63 56c0 26 11 44 26 54c-7 4 -15 6 -24 6c-45 0 -65 -36 -74 -123l-13 -121h128v-44h-132l-20 -193c-13 -131 -87 -189 -203 -189c-68 0 -131 27 -131 87
c0 40 25 67 61 67c38 0 63 -24 63 -56c0 -26 -10 -44 -26 -54c7 -4 15 -6 24 -6c46 0 65 36 75 123l22 221h-109z" />
    <glyph glyph-name="quotedblbase" unicode="&#x201e;" horiz-adv-x="465" 
d="M147 33h-7c-6 -25 -28 -34 -43 -34c-43 0 -64 34 -64 72c0 47 35 78 80 78c60 0 96 -43 96 -106c0 -97 -85 -166 -178 -188l-9 33c80 33 125 87 125 145zM374 33h-7c-6 -25 -28 -34 -43 -34c-43 0 -64 34 -64 72c0 47 34 78 79 78c60 0 96 -43 96 -106
c0 -97 -85 -166 -177 -188l-9 33c80 33 125 87 125 145z" />
    <glyph glyph-name="ellipsis" unicode="&#x2026;" horiz-adv-x="773" 
d="M49 71c0 45 36 81 79 81c44 0 81 -36 81 -81c0 -44 -37 -79 -81 -79c-43 0 -79 35 -79 79zM307 71c0 45 36 81 79 81c44 0 81 -36 81 -81c0 -44 -37 -79 -81 -79c-43 0 -79 35 -79 79zM565 71c0 45 35 81 79 81s80 -36 80 -81c0 -44 -36 -79 -80 -79s-79 35 -79 79z" />
    <glyph glyph-name="dagger" unicode="&#x2020;" horiz-adv-x="529" 
d="M238 329l-170 -35l-42 56l42 58l170 -33l-35 218l63 42l60 -42l-35 -218l170 33l42 -58l-42 -56l-169 35l34 -417l-62 -73l-60 73z" />
    <glyph glyph-name="daggerdbl" unicode="&#x2021;" horiz-adv-x="529" 
d="M238 144v185l-170 -35l-42 56l42 58l170 -33l-35 218l63 42l60 -42l-35 -218l170 33l42 -58l-42 -56l-169 35v-185l169 35l42 -56l-42 -58l-170 33l35 -218l-60 -42l-63 42l35 218l-170 -33l-42 58l42 56z" />
    <glyph glyph-name="circumflex" unicode="&#x2c6;" horiz-adv-x="486" 
d="M229 667h29l148 -185h-121l-71 98l-76 -98h-58z" />
    <glyph glyph-name="perthousand" unicode="&#x2030;" horiz-adv-x="1314" 
d="M35 411c0 117 68 187 163 187c100 0 162 -60 162 -187c0 -116 -62 -184 -162 -184c-95 0 -163 60 -163 184zM152 411c0 -92 25 -135 75 -135c49 0 79 50 79 135c0 78 -28 132 -81 132c-46 0 -73 -34 -73 -132zM211 -39l436 667h60l-435 -667h-61zM558 177
c0 117 68 187 164 187c99 0 162 -60 162 -187c0 -116 -63 -184 -162 -184c-96 0 -164 60 -164 184zM675 177c0 -92 25 -135 75 -135c49 0 79 50 79 135c0 78 -28 132 -80 132c-46 0 -74 -34 -74 -132zM954 177c0 117 67 187 163 187c99 0 162 -60 162 -187
c0 -116 -63 -184 -162 -184c-96 0 -163 60 -163 184zM1071 177c0 -92 25 -135 74 -135c50 0 79 50 79 135c0 78 -28 132 -80 132c-46 0 -73 -34 -73 -132z" />
    <glyph glyph-name="Scaron" unicode="&#x160;" horiz-adv-x="485" 
d="M246 37c53 0 85 30 85 82c0 54 -28 80 -94 106l-72 30c-74 30 -117 80 -117 172c0 119 92 171 189 171c53 0 96 -12 127 -22l49 22l9 -166l-27 -6l-48 63c-30 42 -61 64 -113 64c-47 0 -79 -30 -79 -76s21 -73 81 -97l75 -30c94 -37 135 -91 135 -183
c0 -120 -91 -177 -198 -177c-72 0 -110 18 -138 32l-54 -32l-17 190l31 6l49 -71c33 -51 70 -78 127 -78zM258 621h-30l-147 148h129l62 -72l76 72h58z" />
    <glyph glyph-name="guilsinglleft" unicode="&#x2039;" horiz-adv-x="280" 
d="M185 46l-155 173l155 174l65 -8l-108 -166l108 -165z" />
    <glyph glyph-name="OE" unicode="&#x152;" horiz-adv-x="857" 
d="M319 -10c-180 0 -282 116 -282 304s102 304 282 304c30 0 59 -4 85 -10h400v-157l-21 -5l-84 110h-193c55 -48 87 -121 93 -213h48l43 82l22 -4v-211l-21 -4l-43 85h-49c-4 -96 -36 -171 -93 -219h207l94 136l26 -6l-20 -182h-409c-26 -6 -55 -10 -85 -10zM319 38
c90 0 131 72 131 256c0 185 -41 256 -131 256c-91 0 -132 -71 -132 -256c0 -184 41 -256 132 -256z" />
    <glyph glyph-name="Zcaron" unicode="&#x17d;" horiz-adv-x="529" 
d="M22 12l257 452c29 53 50 72 50 72v4s-17 -3 -71 -3h-97l-93 -113l-22 4l14 160h425l5 -14l-255 -449c-32 -54 -53 -73 -53 -73v-4s19 4 74 4h125l99 131l24 -7l-31 -176h-445zM287 620h-30l-147 148h130l61 -71l76 71h59z" />
    <glyph glyph-name="quoteleft" unicode="&#x2018;" horiz-adv-x="239" 
d="M91 473h7c7 24 28 33 44 33c42 0 64 -33 64 -71c0 -47 -35 -78 -80 -78c-60 0 -96 42 -96 106c0 96 85 165 178 187l9 -33c-80 -33 -126 -87 -126 -144z" />
    <glyph glyph-name="quoteright" unicode="&#x2019;" horiz-adv-x="239" 
d="M147 535h-7c-6 -25 -28 -34 -43 -34c-43 0 -64 33 -64 71c0 48 35 78 80 78c60 0 96 -42 96 -106c0 -96 -85 -165 -178 -187l-9 33c80 33 125 87 125 145z" />
    <glyph glyph-name="quotedblleft" unicode="&#x201c;" horiz-adv-x="465" 
d="M91 473h7c7 24 28 33 44 33c42 0 64 -33 64 -71c0 -47 -35 -78 -80 -78c-60 0 -96 42 -96 106c0 96 85 165 178 187l9 -33c-80 -33 -126 -87 -126 -144zM318 473h7c6 24 28 33 43 33c43 0 64 -33 64 -71c0 -47 -34 -78 -80 -78c-59 0 -95 42 -95 106c0 96 85 165 177 187
l9 -33c-80 -33 -125 -87 -125 -144z" />
    <glyph glyph-name="quotedblright" unicode="&#x201d;" horiz-adv-x="465" 
d="M147 535h-7c-6 -25 -28 -34 -43 -34c-43 0 -64 33 -64 71c0 48 35 78 80 78c60 0 96 -42 96 -106c0 -96 -85 -165 -178 -187l-9 33c80 33 125 87 125 145zM374 535h-7c-6 -25 -28 -34 -43 -34c-43 0 -64 33 -64 71c0 48 34 78 79 78c60 0 96 -42 96 -106
c0 -96 -85 -165 -177 -187l-9 33c80 33 125 87 125 145z" />
    <glyph glyph-name="bullet" unicode="&#x2022;" horiz-adv-x="312" 
d="M40 250c0 65 52 116 116 116c65 0 116 -51 116 -116c0 -64 -51 -116 -116 -116c-64 0 -116 52 -116 116z" />
    <glyph glyph-name="endash" unicode="&#x2013;" horiz-adv-x="500" 
d="M40 199v66h420v-66h-420z" />
    <glyph glyph-name="emdash" unicode="&#x2014;" horiz-adv-x="1000" 
d="M40 199v66h920v-66h-920z" />
    <glyph glyph-name="tilde" unicode="&#x2dc;" horiz-adv-x="490" 
d="M259 510l-59 25c-14 6 -26 9 -38 9c-27 -1 -46 -19 -49 -58l-24 4c-5 15 -9 29 -9 45c0 53 38 92 95 92c17 0 36 -4 55 -12l59 -24c16 -6 31 -11 44 -11c23 0 39 16 43 54l25 -4c5 -17 9 -33 9 -50c0 -51 -34 -84 -85 -84c-20 0 -42 4 -66 14z" />
    <glyph glyph-name="trademark" unicode="&#x2122;" horiz-adv-x="776" 
d="M67 322l49 12v218h-45l-31 -56l-20 3v89h277v-89l-20 -3l-30 56h-46v-218l49 -12l-4 -23h-175zM603 588h129l4 -22l-33 -11v-223l33 -11l-4 -22h-141l-3 22l31 11v189l-88 -222h-47l-89 222v-189l38 -11l-4 -22h-104l-4 22l32 11v223l-32 11l4 22h130l75 -197z" />
    <glyph glyph-name="scaron" unicode="&#x161;" horiz-adv-x="418" 
d="M37 137l27 6c53 -88 90 -110 146 -110c40 0 69 13 69 53c0 32 -19 50 -64 64l-65 21c-69 21 -107 61 -107 135c0 97 67 140 157 140c34 0 72 -8 95 -20l55 19l3 -131l-24 -6c-40 64 -78 93 -128 93c-36 0 -58 -19 -58 -48c0 -28 15 -44 50 -56l72 -24
c82 -27 119 -69 119 -145c0 -97 -68 -138 -177 -138c-38 0 -78 10 -107 23l-52 -23zM223 482h-29l-147 185h120l71 -98l77 98h57z" />
    <glyph glyph-name="guilsinglright" unicode="&#x203a;" horiz-adv-x="280" 
d="M250 219l-156 -173l-64 8l108 165l-108 166l64 8z" />
    <glyph glyph-name="oe" unicode="&#x153;" horiz-adv-x="775" 
d="M482 227c2 -91 42 -153 127 -153c45 0 72 11 109 39l18 -22c-32 -72 -92 -101 -178 -101c-56 0 -116 23 -143 67c-32 -45 -92 -67 -157 -67c-135 0 -224 77 -224 228s89 228 224 228c70 0 131 -25 165 -72c32 44 85 72 154 72c98 0 166 -57 166 -162c0 -16 -1 -38 -5 -57
h-256zM173 218c0 -116 18 -182 85 -182s85 66 85 182s-18 182 -85 182s-85 -66 -85 -182zM569 400c-45 0 -77 -41 -85 -126h141c2 8 3 21 3 37c0 47 -13 89 -59 89z" />
    <glyph glyph-name="zcaron" unicode="&#x17e;" horiz-adv-x="462" 
d="M192 393h-46l-87 -107l-22 4l11 146h370l5 -14l-190 -305c-31 -51 -53 -73 -53 -73v-4s14 4 68 4h71l91 115l24 -7l-24 -152h-379l-6 12l188 308c31 52 49 72 49 72v4s-16 -3 -70 -3zM257 482h-30l-147 185h120l71 -98l77 98h57z" />
    <glyph glyph-name="Ydieresis" unicode="&#x178;" horiz-adv-x="572" 
d="M196 536l89 -171c31 -59 32 -90 32 -90h4s6 29 39 89l92 168l-76 21l5 35h182l7 -30l-48 -27l-168 -307v-165l99 -24l-8 -35h-318l-8 35l99 24v165l-168 307l-48 27l7 30h248l6 -36zM138 687c0 43 31 67 68 67c41 0 71 -24 71 -67c0 -40 -30 -65 -71 -65
c-37 0 -68 25 -68 65zM331 686c0 43 32 67 69 67c41 0 72 -24 72 -67c0 -39 -31 -65 -72 -65c-37 0 -69 26 -69 65z" />
    <glyph glyph-name="nbspace" unicode="&#xa0;" horiz-adv-x="170" 
 />
    <glyph glyph-name="exclamdown" unicode="&#xa1;" horiz-adv-x="227" 
d="M33 365c0 45 36 81 81 81s82 -36 82 -81s-37 -82 -82 -82s-81 37 -81 82zM37 -87l50 325h45l51 -324v-65h-146v64z" />
    <glyph glyph-name="cent" unicode="&#xa2;" horiz-adv-x="519" 
d="M262 -114v105c-126 5 -208 81 -208 226s98 218 208 228v107h44v-107c95 -6 158 -54 158 -115c0 -36 -24 -61 -59 -61c-34 0 -59 24 -59 55c0 25 13 44 32 52c-14 10 -38 23 -72 26v-340c49 0 91 20 133 60l23 -19c-34 -64 -84 -103 -156 -110v-107h-44zM175 230
c0 -84 29 -143 87 -162v331c-55 -15 -87 -74 -87 -169z" />
    <glyph glyph-name="sterling" unicode="&#xa3;" horiz-adv-x="631" 
d="M118 285v44h77l4 42c9 152 85 227 230 227c83 0 142 -32 142 -97c0 -41 -25 -66 -61 -66c-33 0 -59 22 -59 55c0 29 17 46 36 51c-9 11 -30 17 -55 17c-53 0 -72 -36 -82 -106l-17 -123h133v-44h-139l-12 -88c-3 -24 -8 -46 -15 -67c52 -18 103 -34 147 -34
c62 0 90 13 95 77l25 5c5 -11 11 -34 11 -55c0 -92 -60 -132 -139 -132c-76 0 -128 35 -175 69c-33 -42 -81 -69 -145 -69c-67 0 -101 36 -101 89c0 59 41 92 105 92c19 0 39 -3 59 -7l10 120h-74zM116 36c35 0 57 24 62 79c-18 8 -37 13 -57 13c-34 0 -50 -20 -50 -47
c0 -29 17 -45 45 -45z" />
    <glyph glyph-name="currency" unicode="&#xa4;" horiz-adv-x="535" 
d="M507 488l-71 -72c22 -33 34 -72 34 -110c0 -39 -11 -78 -33 -112l71 -70l-56 -56l-68 69c-35 -25 -77 -37 -118 -37c-40 0 -79 11 -114 33l-69 -70l-56 57l70 69c-24 35 -36 76 -36 117c0 40 12 82 38 116l-70 70l56 56l70 -72c32 21 70 33 112 33c40 0 79 -13 114 -37
l70 70zM151 304c0 -65 51 -116 116 -116c64 0 116 51 116 116c0 64 -52 116 -116 116c-65 0 -116 -52 -116 -116z" />
    <glyph glyph-name="yen" unicode="&#xa5;" horiz-adv-x="612" 
d="M216 536l89 -171c31 -59 32 -90 32 -90h4s6 29 39 89l92 168l-76 21l5 35h182l7 -30l-48 -27l-115 -210h98v-43h-122l-29 -54v-23h152v-43h-152v-99l99 -24l-8 -35h-318l-8 35l99 24v99h-147v43h147v23l-30 54h-117v43h94l-115 210l-48 27l7 30h248l6 -36z" />
    <glyph glyph-name="brokenbar" unicode="&#xa6;" horiz-adv-x="138" 
d="M38 317v384h62v-384h-62zM38 -141v384h62v-384h-62z" />
    <glyph glyph-name="section" unicode="&#xa7;" horiz-adv-x="498" 
d="M228 -108c57 0 88 18 88 58c0 31 -18 48 -58 64l-76 29c-72 27 -114 61 -114 146c0 76 50 122 115 140l-15 6c-53 19 -91 55 -91 124c0 93 77 139 175 139c91 0 150 -30 150 -88c0 -34 -24 -58 -56 -58c-33 0 -55 21 -55 50c0 20 12 38 29 43c-15 9 -37 13 -68 13
c-46 0 -71 -21 -71 -53c0 -30 18 -45 53 -59l73 -31c77 -32 127 -66 127 -154c0 -69 -42 -114 -109 -133c66 -29 100 -65 100 -135c0 -94 -88 -138 -200 -138c-83 0 -155 29 -155 92c0 33 20 60 57 60c36 1 56 -20 56 -50c0 -22 -15 -40 -32 -44c13 -13 44 -21 77 -21z
M261 298l-29 11c-39 -4 -71 -27 -71 -70c0 -33 19 -55 62 -72l50 -19c32 9 51 35 51 73c0 44 -24 64 -63 77z" />
    <glyph glyph-name="dieresis" unicode="&#xa8;" horiz-adv-x="494" 
d="M80 565c0 42 31 67 68 67c41 0 71 -25 71 -67c0 -40 -30 -66 -71 -66c-37 0 -68 26 -68 66zM273 564c0 42 32 67 69 67c41 0 72 -25 72 -67c0 -40 -31 -66 -72 -66c-37 0 -69 26 -69 66z" />
    <glyph glyph-name="copyright" unicode="&#xa9;" horiz-adv-x="680" 
d="M47 294c0 178 137 307 306 307c170 0 307 -129 307 -307s-137 -306 -307 -306c-169 0 -306 128 -306 306zM79 294c0 -163 124 -278 276 -278c151 0 276 115 276 278c0 162 -125 279 -276 279c-152 0 -276 -117 -276 -279zM484 200l15 -20c-26 -33 -70 -58 -135 -58
c-112 0 -177 66 -177 171c0 112 77 170 183 170c26 0 50 -5 75 -11l39 11v-108l-16 -3l-25 33c-20 25 -39 41 -74 41c-58 0 -78 -44 -78 -133c0 -86 33 -125 91 -125c40 0 68 9 102 32z" />
    <glyph glyph-name="ordfeminine" unicode="&#xaa;" horiz-adv-x="417" 
d="M338 495v-144c0 -37 21 -38 47 -41l2 -15c-23 -18 -56 -30 -90 -30s-62 15 -68 52h-2c-26 -35 -61 -54 -102 -54c-51 0 -95 32 -95 91c0 90 95 117 195 120v15c0 47 -30 73 -75 73c-36 0 -62 -6 -97 -27l-11 25c34 48 90 73 155 73c66 0 141 -30 141 -138zM142 378
c0 -26 16 -45 40 -45c12 0 28 2 43 12v99c-63 -3 -83 -27 -83 -66z" />
    <glyph glyph-name="guillemotleft" unicode="&#xab;" horiz-adv-x="460" 
d="M185 46l-155 173l155 174l65 -8l-108 -166l108 -165zM366 46l-156 173l156 174l64 -8l-107 -166l107 -165z" />
    <glyph glyph-name="logicalnot" unicode="&#xac;" horiz-adv-x="553" 
d="M431 283h-381v67h453v-213h-72v146z" />
    <glyph glyph-name="uni00AD" unicode="&#xad;" horiz-adv-x="329" 
d="M40 196v81h249v-81h-249z" />
    <glyph glyph-name="registered" unicode="&#xae;" horiz-adv-x="680" 
d="M33 294c0 178 137 307 306 307c170 0 307 -129 307 -307s-137 -306 -307 -306c-169 0 -306 128 -306 306zM65 294c0 -163 124 -278 276 -278c151 0 276 115 276 278c0 162 -125 279 -276 279c-152 0 -276 -117 -276 -279zM303 431v-124h21c48 1 70 12 70 63
s-27 61 -70 61h-21zM489 169l44 -14l-4 -20h-121l-52 109c-11 22 -22 33 -53 34v-107l45 -15l-5 -21h-167l-4 21l41 15v255l-41 15l4 21h154c83 0 159 -9 159 -92c0 -66 -51 -80 -104 -84c39 -6 58 -20 68 -44z" />
    <glyph glyph-name="macron" unicode="&#xaf;" horiz-adv-x="445" 
d="M365 509h-285v68h285v-68z" />
    <glyph glyph-name="degree" unicode="&#xb0;" horiz-adv-x="310" 
d="M30 534c0 65 50 119 127 119c73 0 123 -54 123 -119c0 -69 -50 -123 -123 -123c-81 0 -127 54 -127 123zM94 531c0 -34 23 -62 62 -62c37 0 61 28 61 62c0 37 -24 65 -61 65s-62 -28 -62 -65z" />
    <glyph glyph-name="plusminus" unicode="&#xb1;" horiz-adv-x="496" 
d="M55 344h160v120h63v-120h163v-64h-163v-133h-63v133h-160v64zM441 40h-386v63h386v-63z" />
    <glyph glyph-name="twosuperior" unicode="&#xb2;" horiz-adv-x="367" 
d="M134 310h187v-76h-281l-11 54c120 61 173 109 173 175c0 44 -24 67 -60 67c-39 0 -56 -24 -58 -59c-1 -8 0 -17 2 -26l-34 -8c-6 15 -10 33 -10 49c-1 60 41 112 133 112c80 0 133 -44 133 -122c0 -97 -101 -136 -174 -162v-4z" />
    <glyph glyph-name="threesuperior" unicode="&#xb3;" horiz-adv-x="358" 
d="M32 332l42 5c4 -44 25 -64 66 -64c35 0 65 15 65 55c0 43 -25 67 -97 67l-5 28c64 11 83 28 83 66c0 33 -18 49 -49 49c-32 0 -48 -19 -48 -45c0 -7 1 -13 3 -18l-32 -8c-7 10 -11 24 -11 38c0 45 31 93 125 93c78 0 124 -32 124 -94c0 -50 -38 -78 -96 -84v-4
c69 -3 110 -32 110 -89c0 -76 -74 -102 -154 -102c-94 0 -126 48 -126 107z" />
    <glyph glyph-name="acute" unicode="&#xb4;" horiz-adv-x="330" 
d="M220 571l-121 -85l-19 17l55 133c16 39 58 53 91 26c35 -28 28 -70 -6 -91z" />
    <glyph glyph-name="mu" unicode="&#xb5;" horiz-adv-x="528" 
d="M330 418l109 28h22v-359l49 -46v-17l-165 -31l-11 69h-4c-31 -50 -76 -71 -130 -71c-23 0 -49 11 -64 34l53 -191l-18 -27l-114 24v587l109 28h22v-291c0 -61 24 -86 64 -86c28 0 50 9 78 30v319z" />
    <glyph glyph-name="paragraph" unicode="&#xb6;" horiz-adv-x="480" 
d="M373 527v-512c0 -98 -44 -165 -161 -165c-73 0 -112 37 -112 88c0 41 29 66 67 66c42 0 61 -29 61 -61c0 -25 -11 -44 -18 -51c66 0 98 33 98 120v192h-70c-121 0 -208 62 -208 185c0 137 99 199 234 199h174v-48z" />
    <glyph glyph-name="periodcentered" unicode="&#xb7;" horiz-adv-x="240" 
d="M40 249c0 45 36 81 79 81c44 0 81 -36 81 -81c0 -44 -37 -79 -81 -79c-43 0 -79 35 -79 79z" />
    <glyph glyph-name="periodcentered" unicode="&#x22c5;" horiz-adv-x="240" 
d="M40 249c0 45 36 81 79 81c44 0 81 -36 81 -81c0 -44 -37 -79 -81 -79c-43 0 -79 35 -79 79z" />
    <glyph glyph-name="cedilla" unicode="&#xb8;" horiz-adv-x="370" 
d="M80 -177l18 24c12 -11 31 -22 57 -22c25 0 42 11 42 35c0 38 -32 46 -69 57l40 102h40l-26 -60c44 -5 108 -28 108 -89c0 -62 -49 -88 -117 -88c-44 0 -75 16 -93 41z" />
    <glyph glyph-name="onesuperior" unicode="&#xb9;" horiz-adv-x="349" 
d="M242 583v-298l93 -19l-10 -32h-274l-10 32l95 19v212h-97l-8 27l191 74z" />
    <glyph glyph-name="ordmasculine" unicode="&#xba;" horiz-adv-x="435" 
d="M220 633c107 0 185 -59 185 -188c0 -130 -80 -186 -189 -186c-117 0 -186 56 -186 186c0 125 80 188 190 188zM218 295c50 0 69 60 69 150c0 100 -24 150 -69 150c-47 0 -69 -54 -69 -150c0 -87 14 -150 69 -150z" />
    <glyph glyph-name="guillemotright" unicode="&#xbb;" horiz-adv-x="460" 
d="M250 219l-156 -173l-64 8l108 165l-108 166l64 8zM430 219l-155 -173l-65 8l108 165l-108 166l65 8z" />
    <glyph glyph-name="onequarter" unicode="&#xbc;" horiz-adv-x="878" 
d="M242 583v-298l93 -19l-10 -32h-274l-10 32l95 19v212h-97l-8 27l191 74zM215 -39l435 667h61l-436 -667h-60zM786 122h70v-46h-70v-76h-107v76h-187v32l174 246h120v-232zM679 122v111c0 36 4 72 4 72h-4s-10 -25 -30 -55l-56 -82c-20 -30 -40 -46 -40 -46v-4s11 4 48 4
h78z" />
    <glyph glyph-name="onehalf" unicode="&#xbd;" horiz-adv-x="895" 
d="M242 583v-298l93 -19l-10 -32h-274l-10 32l95 19v212h-97l-8 27l191 74zM215 -39l435 667h61l-436 -667h-60zM656 76h193v-76h-282l-11 54c120 61 173 109 173 175c0 44 -23 67 -60 67c-39 0 -56 -24 -58 -59c0 -8 1 -17 2 -26l-33 -8c-7 15 -11 33 -11 49
c0 60 41 112 134 112c79 0 132 -44 132 -122c0 -97 -106 -140 -179 -166z" />
    <glyph glyph-name="threequarters" unicode="&#xbe;" horiz-adv-x="837" 
d="M32 332l42 5c4 -44 25 -64 66 -64c35 0 65 15 65 55c0 43 -25 67 -97 67l-5 28c64 11 83 28 83 66c0 33 -18 49 -49 49c-32 0 -48 -19 -48 -45c0 -7 1 -13 3 -18l-32 -8c-7 10 -11 24 -11 38c0 45 31 93 125 93c78 0 124 -32 124 -94c0 -50 -38 -78 -96 -84v-4
c69 -3 110 -32 110 -89c0 -76 -74 -102 -154 -102c-94 0 -126 48 -126 107zM174 -39l435 667h61l-436 -667h-60zM744 122h71v-46h-71v-76h-106v76h-187v32l174 246h119v-232zM638 122v111c0 36 4 72 4 72h-4s-10 -25 -30 -55l-57 -82c-19 -30 -40 -46 -40 -46v-4s11 4 48 4
h79z" />
    <glyph glyph-name="questiondown" unicode="&#xbf;" horiz-adv-x="411" 
d="M197 239h33c14 -15 26 -33 26 -63c0 -40 -23 -57 -48 -77c-27 -21 -47 -45 -47 -89c0 -49 30 -86 85 -86s84 42 84 87c0 34 -14 53 -30 72l29 20c34 -22 56 -58 56 -108c0 -76 -52 -155 -176 -155c-119 0 -180 64 -180 153c0 91 53 120 107 149c43 23 61 33 61 74v23z
M293 367c0 -45 -35 -81 -79 -81s-80 36 -80 81c0 44 36 79 80 79s79 -35 79 -79z" />
    <glyph glyph-name="Agrave" unicode="&#xc0;" horiz-adv-x="604" 
d="M409 52l-42 114h-207l-40 -110l74 -21l-5 -35h-180l-7 30l48 27l199 531h107l198 -531l48 -27l-7 -30h-247l-6 36zM230 354l-51 -136h169l-49 137c-28 78 -31 127 -31 127h-4s-6 -53 -34 -128zM363 616l-138 65c-37 15 -57 51 -31 84c25 32 65 27 90 -6l94 -122z" />
    <glyph glyph-name="Aacute" unicode="&#xc1;" horiz-adv-x="604" 
d="M409 52l-42 114h-207l-40 -110l74 -21l-5 -35h-180l-7 30l48 27l199 531h107l198 -531l48 -27l-7 -30h-247l-6 36zM230 354l-51 -136h169l-49 137c-28 78 -31 127 -31 127h-4s-6 -53 -34 -128zM384 690l-138 -65l-15 21l94 122c25 33 65 38 90 6c26 -33 6 -69 -31 -84z
" />
    <glyph glyph-name="Acircumflex" unicode="&#xc2;" horiz-adv-x="604" 
d="M409 52l-42 114h-207l-40 -110l74 -21l-5 -35h-180l-7 30l48 27l199 531h107l198 -531l48 -27l-7 -30h-247l-6 36zM295 766h30l147 -148h-128l-67 70l-73 -70h-58zM230 354l-51 -136h169l-49 137c-28 78 -31 127 -31 127h-4s-6 -53 -34 -128z" />
    <glyph glyph-name="Atilde" unicode="&#xc3;" horiz-adv-x="604" 
d="M409 52l-42 114h-207l-40 -110l74 -21l-5 -35h-180l-7 30l48 27l199 531h107l198 -531l48 -27l-7 -30h-247l-6 36zM318 653l-62 25c-14 6 -26 9 -38 9c-28 -1 -48 -19 -52 -58l-24 4c-6 15 -10 29 -10 45c0 53 40 91 99 91c18 0 38 -4 58 -12l61 -23c16 -6 32 -11 45 -11
c24 0 41 16 45 54l26 -4c6 -18 9 -34 9 -50c0 -51 -35 -84 -88 -85c-21 0 -44 5 -69 15zM230 354l-51 -136h169l-49 137c-28 78 -31 127 -31 127h-4s-6 -53 -34 -128z" />
    <glyph glyph-name="Adieresis" unicode="&#xc4;" horiz-adv-x="604" 
d="M409 52l-42 114h-207l-40 -110l74 -21l-5 -35h-180l-7 30l48 27l199 531h107l198 -531l48 -27l-7 -30h-247l-6 36zM230 354l-51 -136h169l-49 137c-28 78 -31 127 -31 127h-4s-6 -53 -34 -128zM327 686c0 43 32 67 69 67c41 0 72 -24 72 -67c0 -39 -31 -65 -72 -65
c-37 0 -69 26 -69 65zM134 687c0 43 31 67 68 67c41 0 71 -24 71 -67c0 -40 -30 -65 -71 -65c-37 0 -68 25 -68 65z" />
    <glyph glyph-name="Aring" unicode="&#xc5;" horiz-adv-x="604" 
d="M409 52l-42 114h-207l-40 -110l74 -21l-5 -35h-180l-7 30l48 27l199 531h107l198 -531l48 -27l-7 -30h-247l-6 36zM191 728c0 55 43 101 108 101c63 0 109 -46 109 -101c0 -59 -46 -105 -109 -105c-69 0 -108 46 -108 105zM230 354l-51 -136h169l-49 137
c-28 78 -31 127 -31 127h-4s-6 -53 -34 -128zM242 725c0 -30 20 -54 57 -54c34 0 55 24 55 54c0 33 -21 57 -55 57c-35 0 -57 -24 -57 -57z" />
    <glyph glyph-name="AE" unicode="&#xc6;" horiz-adv-x="835" 
d="M274 588h508v-157l-21 -5l-84 110h-140v-213h87l44 82l22 -4v-211l-21 -4l-44 85h-88v-202l32 -17h122l94 136l26 -6l-20 -182h-446l-7 32l63 23v135h-191l-78 -135l70 -20l-5 -35h-188l-7 30l59 27l270 476l-64 23zM358 447l-119 -206h162v298h-4s-8 -38 -39 -92z" />
    <glyph glyph-name="Ccedilla" unicode="&#xc7;" horiz-adv-x="554" 
d="M200 -177l17 24c12 -11 32 -22 57 -22c26 0 43 11 43 35c0 38 -33 46 -70 57l29 76c-140 15 -239 108 -239 302c0 209 119 303 286 303c41 0 87 -9 125 -19l60 19v-167l-21 -5l-45 55c-35 44 -67 70 -117 70c-85 0 -139 -64 -139 -257c0 -171 68 -232 155 -232
c57 0 109 12 167 57l22 -33c-44 -61 -122 -96 -210 -96h-5l-13 -31c44 -5 108 -28 108 -89c0 -62 -49 -88 -118 -88c-44 0 -74 16 -92 41z" />
    <glyph glyph-name="Egrave" unicode="&#xc8;" horiz-adv-x="532" 
d="M323 271h-88v-202l32 -17h121l94 136l26 -6l-20 -182h-446l-7 32l64 23v478l-64 23l7 32h437v-157l-21 -5l-84 110h-139v-213h87l43 82l22 -4v-211l-21 -4zM349 616l-138 65c-37 15 -57 51 -31 84c25 32 64 27 90 -6l94 -122z" />
    <glyph glyph-name="Eacute" unicode="&#xc9;" horiz-adv-x="532" 
d="M323 271h-88v-202l32 -17h121l94 136l26 -6l-20 -182h-446l-7 32l64 23v478l-64 23l7 32h437v-157l-21 -5l-84 110h-139v-213h87l43 82l22 -4v-211l-21 -4zM337 690l-139 -65l-14 21l94 122c25 33 65 38 90 6c25 -33 5 -69 -31 -84z" />
    <glyph glyph-name="Ecircumflex" unicode="&#xca;" horiz-adv-x="532" 
d="M323 271h-88v-202l32 -17h121l94 136l26 -6l-20 -182h-446l-7 32l64 23v478l-64 23l7 32h437v-157l-21 -5l-84 110h-139v-213h87l43 82l22 -4v-211l-21 -4zM263 776h29l148 -148h-128l-67 70l-74 -70h-57z" />
    <glyph glyph-name="Edieresis" unicode="&#xcb;" horiz-adv-x="532" 
d="M323 271h-88v-202l32 -17h121l94 136l26 -6l-20 -182h-446l-7 32l64 23v478l-64 23l7 32h437v-157l-21 -5l-84 110h-139v-213h87l43 82l22 -4v-211l-21 -4zM112 687c0 43 31 67 68 67c42 0 71 -24 71 -67c0 -40 -29 -65 -71 -65c-37 0 -68 25 -68 65zM306 686
c0 43 31 67 69 67c40 0 71 -24 71 -67c0 -39 -31 -65 -71 -65c-38 0 -69 26 -69 65z" />
    <glyph glyph-name="Igrave" unicode="&#xcc;" horiz-adv-x="334" 
d="M42 588h250l7 -32l-64 -23v-478l64 -23l-7 -32h-250l-7 32l64 23v478l-64 23zM226 616l-138 65c-37 15 -57 51 -31 84c25 32 64 27 90 -6l94 -122z" />
    <glyph glyph-name="Iacute" unicode="&#xcd;" horiz-adv-x="334" 
d="M42 588h250l7 -32l-64 -23v-478l64 -23l-7 -32h-250l-7 32l64 23v478l-64 23zM238 690l-138 -65l-15 21l94 122c25 33 65 38 90 6c26 -33 6 -69 -31 -84z" />
    <glyph glyph-name="Icircumflex" unicode="&#xce;" horiz-adv-x="334" 
d="M42 588h252l8 -32l-67 -23v-478l67 -23l-8 -32h-252l-7 32l64 23v478l-64 23zM155 776h29l131 -148h-128l-51 63l-57 -63h-57z" />
    <glyph glyph-name="Idieresis" unicode="&#xcf;" horiz-adv-x="334" 
d="M12 687c0 43 31 67 68 67c41 0 71 -24 71 -67c0 -40 -30 -65 -71 -65c-37 0 -68 25 -68 65zM187 686c0 43 32 67 69 67c41 0 72 -24 72 -67c0 -39 -31 -65 -72 -65c-37 0 -69 26 -69 65zM42 588h250l7 -32l-64 -23v-478l64 -23l-7 -32h-250l-7 32l64 23v478l-64 23z" />
    <glyph glyph-name="Eth" unicode="&#xd0;" horiz-adv-x="634" 
d="M38 271v52h61v210l-64 23l7 32h227c184 0 328 -74 328 -285c0 -213 -146 -303 -314 -303h-241l-7 32l64 23v216h-61zM235 60l39 -15c132 3 178 87 178 252c0 171 -65 242 -191 242h-26v-216h108v-52h-108v-211z" />
    <glyph glyph-name="Ntilde" unicode="&#xd1;" horiz-adv-x="651" 
d="M166 319v-264l76 -23l-7 -32h-193l-7 32l64 23v478l-64 23l7 32h190l208 -293c41 -57 65 -118 65 -118h4s-5 77 -5 150v206l-76 23l7 32h188l8 -32l-65 -23v-533h-77l-257 353c-43 57 -68 118 -68 118h-4s6 -77 6 -152zM348 653l-61 25c-14 6 -27 9 -39 9
c-28 -1 -48 -19 -51 -58l-25 4c-6 15 -10 29 -10 45c0 53 41 91 100 91c17 0 37 -4 57 -12l61 -23c17 -6 32 -11 46 -11c24 0 41 16 45 54l26 -4c6 -18 9 -34 9 -50c0 -51 -35 -84 -89 -85c-20 0 -44 5 -69 15z" />
    <glyph glyph-name="Ograve" unicode="&#xd2;" horiz-adv-x="637" 
d="M319 38c90 0 131 72 131 256c0 185 -41 256 -131 256c-91 0 -132 -71 -132 -256c0 -184 41 -256 132 -256zM319 -10c-180 0 -282 116 -282 304s102 304 282 304c179 0 281 -116 281 -304s-102 -304 -281 -304zM393 616l-138 65c-37 15 -57 51 -31 84c25 32 65 27 90 -6
l94 -122z" />
    <glyph glyph-name="Oacute" unicode="&#xd3;" horiz-adv-x="637" 
d="M319 38c90 0 131 72 131 256c0 185 -41 256 -131 256c-91 0 -132 -71 -132 -256c0 -184 41 -256 132 -256zM319 -10c-180 0 -282 116 -282 304s102 304 282 304c179 0 281 -116 281 -304s-102 -304 -281 -304zM387 690l-138 -65l-15 21l94 122c25 33 65 38 90 6
c26 -33 6 -69 -31 -84z" />
    <glyph glyph-name="Ocircumflex" unicode="&#xd4;" horiz-adv-x="637" 
d="M319 38c90 0 131 72 131 256c0 185 -41 256 -131 256c-91 0 -132 -71 -132 -256c0 -184 41 -256 132 -256zM319 -10c-180 0 -282 116 -282 304s102 304 282 304c179 0 281 -116 281 -304s-102 -304 -281 -304zM312 776h29l147 -148h-128l-67 70l-73 -70h-57z" />
    <glyph glyph-name="Otilde" unicode="&#xd5;" horiz-adv-x="637" 
d="M319 38c90 0 131 72 131 256c0 185 -41 256 -131 256c-91 0 -132 -71 -132 -256c0 -184 41 -256 132 -256zM319 -10c-180 0 -282 116 -282 304s102 304 282 304c179 0 281 -116 281 -304s-102 -304 -281 -304zM333 653l-61 25c-14 6 -27 9 -39 9c-28 -1 -48 -19 -51 -58
l-25 4c-6 15 -10 29 -10 45c0 53 41 91 100 91c17 0 37 -4 57 -12l61 -23c17 -6 32 -11 46 -11c24 0 41 16 45 54l26 -4c6 -18 9 -34 9 -50c0 -51 -35 -84 -89 -85c-20 0 -44 5 -69 15z" />
    <glyph glyph-name="Odieresis" unicode="&#xd6;" horiz-adv-x="637" 
d="M319 38c90 0 131 72 131 256c0 185 -41 256 -131 256c-91 0 -132 -71 -132 -256c0 -184 41 -256 132 -256zM319 -10c-180 0 -282 116 -282 304s102 304 282 304c179 0 281 -116 281 -304s-102 -304 -281 -304zM152 687c0 43 31 67 68 67c41 0 71 -24 71 -67
c0 -40 -30 -65 -71 -65c-37 0 -68 25 -68 65zM345 686c0 43 32 67 69 67c41 0 72 -24 72 -67c0 -39 -31 -65 -72 -65c-37 0 -69 26 -69 65z" />
    <glyph glyph-name="multiply" unicode="&#xd7;" horiz-adv-x="455" 
d="M55 122l124 124l-120 121l44 45l122 -121l126 127l46 -45l-127 -127l130 -131l-45 -44l-130 130l-125 -124z" />
    <glyph glyph-name="Oslash" unicode="&#xd8;" horiz-adv-x="636" 
d="M318 -9c-68 0 -123 13 -166 40l-44 -60h-60l66 90c-52 52 -77 131 -77 237c0 186 102 300 281 300c62 0 116 -14 158 -40l44 60h61l-66 -90c55 -52 84 -131 84 -230c0 -200 -91 -307 -281 -307zM450 297c0 51 -4 93 -11 127l-226 -309c22 -51 57 -76 105 -76
c89 0 132 87 132 258zM318 550c-87 0 -132 -71 -132 -253c0 -48 3 -89 10 -123l225 309c-22 46 -56 67 -103 67z" />
    <glyph glyph-name="Ugrave" unicode="&#xd9;" horiz-adv-x="631" 
d="M550 533v-325c0 -139 -90 -218 -229 -218c-138 0 -240 59 -240 214v329l-64 23l7 32h249l8 -32l-64 -23v-327c0 -106 48 -150 129 -150c82 0 137 48 137 153v324l-76 23l8 32h191l8 -32zM380 616l-138 65c-37 15 -57 51 -31 84c25 32 65 27 90 -6l94 -122z" />
    <glyph glyph-name="Uacute" unicode="&#xda;" horiz-adv-x="631" 
d="M550 533v-325c0 -139 -90 -218 -229 -218c-138 0 -240 59 -240 214v329l-64 23l7 32h249l8 -32l-64 -23v-327c0 -106 48 -150 129 -150c82 0 137 48 137 153v324l-76 23l8 32h191l8 -32zM409 690l-138 -65l-15 21l94 122c26 33 65 38 90 6c26 -33 6 -69 -31 -84z" />
    <glyph glyph-name="Ucircumflex" unicode="&#xdb;" horiz-adv-x="631" 
d="M550 533v-325c0 -139 -90 -218 -229 -218c-138 0 -240 59 -240 214v329l-64 23l7 32h249l8 -32l-64 -23v-327c0 -106 48 -150 129 -150c82 0 137 48 137 153v324l-76 23l8 32h191l8 -32zM319 776h30l147 -148h-128l-67 70l-74 -70h-57z" />
    <glyph glyph-name="Udieresis" unicode="&#xdc;" horiz-adv-x="631" 
d="M550 533v-325c0 -139 -90 -218 -229 -218c-138 0 -240 59 -240 214v329l-64 23l7 32h249l8 -32l-64 -23v-327c0 -106 48 -150 129 -150c82 0 137 48 137 153v324l-76 23l8 32h191l8 -32zM162 687c0 43 31 67 69 67c41 0 71 -24 71 -67c0 -40 -30 -65 -71 -65
c-38 0 -69 25 -69 65zM356 686c0 43 31 67 69 67c40 0 71 -24 71 -67c0 -39 -31 -65 -71 -65c-38 0 -69 26 -69 65z" />
    <glyph glyph-name="Yacute" unicode="&#xdd;" horiz-adv-x="572" 
d="M196 536l89 -171c31 -59 32 -90 32 -90h4s6 29 39 89l92 168l-76 21l5 35h182l7 -30l-48 -27l-168 -307v-165l99 -24l-8 -35h-318l-8 35l99 24v165l-168 307l-48 27l7 30h248l6 -36zM372 690l-138 -65l-15 21l94 122c25 33 65 38 90 6c26 -33 6 -69 -31 -84z" />
    <glyph glyph-name="Thorn" unicode="&#xde;" horiz-adv-x="546" 
d="M234 467h53c123 0 237 -29 237 -166c0 -144 -122 -175 -237 -175h-53v-65l105 -26l-8 -35h-289l-7 32l63 23v478l-63 23l7 32h252l8 -32l-68 -23v-66zM234 418v-243h33c83 0 118 30 118 126c0 83 -44 117 -118 117h-33z" />
    <glyph glyph-name="germandbls" unicode="&#xdf;" horiz-adv-x="613" 
d="M419 542c0 67 -40 99 -98 99c-80 0 -106 -51 -106 -155l-1 -486h-178v28l47 20v336h-67v40l67 16v25c0 159 117 222 256 222c110 0 197 -39 197 -132c0 -68 -40 -93 -93 -134c-31 -23 -48 -35 -48 -60c0 -27 26 -46 97 -89c68 -41 106 -76 106 -148
c0 -90 -67 -134 -173 -134c-38 0 -69 10 -97 23l-51 -23l-12 153l25 6c60 -94 92 -122 141 -122c36 0 59 15 59 45c0 38 -22 56 -84 98c-75 47 -112 76 -112 138c0 56 34 81 73 118c41 39 52 66 52 116z" />
    <glyph glyph-name="agrave" unicode="&#xe0;" horiz-adv-x="470" 
d="M401 287v-191c0 -45 16 -55 63 -50l3 -20c-25 -24 -58 -36 -105 -36c-43 0 -79 18 -87 64l-3 1c-21 -45 -67 -65 -121 -65c-67 0 -122 37 -122 120c0 88 70 131 181 131c21 0 44 -4 60 -8v38c0 58 -37 87 -96 87c-42 0 -77 -8 -119 -30l-12 29c43 58 112 89 194 89
c83 0 164 -37 164 -159zM270 195h-22c-59 0 -93 -15 -93 -68c0 -37 22 -62 57 -62c22 0 40 5 58 21v109zM275 486l-121 85c-34 21 -41 63 -6 91c33 27 75 13 91 -26l55 -133z" />
    <glyph glyph-name="aacute" unicode="&#xe1;" horiz-adv-x="470" 
d="M401 287v-191c0 -45 16 -55 63 -50l3 -20c-25 -24 -58 -36 -105 -36c-43 0 -79 18 -87 64l-3 1c-21 -45 -67 -65 -121 -65c-67 0 -122 37 -122 120c0 88 70 131 181 131c21 0 44 -4 60 -8v38c0 58 -37 87 -96 87c-42 0 -77 -8 -119 -30l-12 29c43 58 112 89 194 89
c83 0 164 -37 164 -159zM270 195h-22c-59 0 -93 -15 -93 -68c0 -37 22 -62 57 -62c22 0 40 5 58 21v109zM308 571l-122 -85l-18 17l55 133c16 39 58 53 90 26c35 -28 28 -70 -5 -91z" />
    <glyph glyph-name="acircumflex" unicode="&#xe2;" horiz-adv-x="470" 
d="M401 287v-191c0 -45 16 -55 63 -50l3 -20c-25 -24 -58 -36 -105 -36c-43 0 -79 18 -87 64l-3 1c-21 -45 -67 -65 -121 -65c-67 0 -122 37 -122 120c0 88 70 131 181 131c21 0 44 -4 60 -8v38c0 58 -37 87 -96 87c-42 0 -77 -8 -119 -30l-12 29c43 58 112 89 194 89
c83 0 164 -37 164 -159zM270 195h-22c-59 0 -93 -15 -93 -68c0 -37 22 -62 57 -62c22 0 40 5 58 21v109zM211 667h29l148 -185h-121l-71 98l-76 -98h-58z" />
    <glyph glyph-name="atilde" unicode="&#xe3;" horiz-adv-x="470" 
d="M401 287v-191c0 -45 16 -55 63 -50l3 -20c-25 -24 -58 -36 -105 -36c-43 0 -79 18 -87 64l-3 1c-21 -45 -67 -65 -121 -65c-67 0 -122 37 -122 120c0 88 70 131 181 131c21 0 44 -4 60 -8v38c0 58 -37 87 -96 87c-42 0 -77 -8 -119 -30l-12 29c43 58 112 89 194 89
c83 0 164 -37 164 -159zM270 195h-22c-59 0 -93 -15 -93 -68c0 -37 22 -62 57 -62c22 0 40 5 58 21v109zM244 510l-59 25c-14 6 -26 9 -37 9c-27 -1 -47 -19 -49 -58l-24 4c-6 15 -10 29 -10 45c0 53 39 92 95 92c18 0 37 -4 56 -12l59 -24c15 -6 30 -11 43 -11
c23 0 40 16 43 54l25 -4c6 -17 9 -33 9 -50c0 -51 -34 -84 -85 -84c-20 0 -42 4 -66 14z" />
    <glyph glyph-name="adieresis" unicode="&#xe4;" horiz-adv-x="470" 
d="M401 287v-191c0 -45 16 -55 63 -50l3 -20c-25 -24 -58 -36 -105 -36c-43 0 -79 18 -87 64l-3 1c-21 -45 -67 -65 -121 -65c-67 0 -122 37 -122 120c0 88 70 131 181 131c21 0 44 -4 60 -8v38c0 58 -37 87 -96 87c-42 0 -77 -8 -119 -30l-12 29c43 58 112 89 194 89
c83 0 164 -37 164 -159zM270 195h-22c-59 0 -93 -15 -93 -68c0 -37 22 -62 57 -62c22 0 40 5 58 21v109zM62 565c0 42 31 67 68 67c41 0 71 -25 71 -67c0 -40 -30 -66 -71 -66c-37 0 -68 26 -68 66zM255 564c0 42 31 67 69 67c40 0 71 -25 71 -67c0 -40 -31 -66 -71 -66
c-38 0 -69 26 -69 66z" />
    <glyph glyph-name="aring" unicode="&#xe5;" horiz-adv-x="470" 
d="M401 287v-191c0 -45 16 -55 63 -50l3 -20c-25 -24 -58 -36 -105 -36c-43 0 -79 18 -87 64l-3 1c-21 -45 -67 -65 -121 -65c-67 0 -122 37 -122 120c0 88 70 131 181 131c21 0 44 -4 60 -8v38c0 58 -37 87 -96 87c-42 0 -77 -8 -119 -30l-12 29c43 58 112 89 194 89
c83 0 164 -37 164 -159zM270 195h-22c-59 0 -93 -15 -93 -68c0 -37 22 -62 57 -62c22 0 40 5 58 21v109zM123 592c0 56 43 102 109 102c63 0 108 -46 108 -102c0 -58 -45 -104 -108 -104c-69 0 -109 46 -109 104zM174 590c0 -30 20 -54 58 -54c33 0 55 24 55 54
c0 33 -22 57 -55 57c-36 0 -58 -24 -58 -57z" />
    <glyph glyph-name="ae" unicode="&#xe6;" horiz-adv-x="680" 
d="M389 216c1 -85 42 -141 127 -141c45 0 71 11 108 38l19 -21c-32 -72 -93 -101 -178 -101c-65 0 -122 23 -159 70c-30 -48 -81 -70 -142 -70c-85 0 -135 43 -135 120c0 106 86 139 235 146c1 11 4 22 7 33c-6 44 -43 72 -94 72c-44 0 -76 -9 -120 -34l-13 29
c42 58 111 89 191 89c46 0 85 -16 111 -45c38 29 86 45 138 45c98 0 166 -57 166 -162c0 -16 -2 -36 -6 -55zM475 400c-46 0 -79 -51 -85 -137l142 9c2 9 3 23 3 39c0 47 -13 89 -60 89zM214 68c30 0 50 5 73 23c-17 32 -26 73 -26 121v1c-79 -6 -110 -25 -110 -82
c0 -36 21 -63 63 -63z" />
    <glyph glyph-name="ccedilla" unicode="&#xe7;" horiz-adv-x="436" 
d="M121 -177l18 24c12 -11 31 -22 57 -22c25 0 42 11 42 35c0 38 -32 46 -69 57l30 76c-97 15 -165 91 -165 219c0 158 111 234 233 234c83 0 144 -33 144 -100c0 -41 -27 -69 -65 -69c-37 0 -64 26 -64 62c0 25 11 44 27 56c-8 3 -17 6 -34 6c-66 0 -111 -52 -111 -169
c0 -97 46 -158 125 -158c45 0 72 14 107 39l18 -22c-36 -74 -93 -101 -178 -101l-13 -31c44 -5 108 -28 108 -89c0 -62 -49 -88 -117 -88c-44 0 -75 16 -93 41z" />
    <glyph glyph-name="egrave" unicode="&#xe8;" horiz-adv-x="453" 
d="M162 227c2 -91 42 -153 127 -153c45 0 71 11 108 39l19 -22c-32 -72 -93 -101 -178 -101c-114 0 -204 73 -204 222c0 151 102 234 223 234c98 0 166 -57 166 -162c0 -16 -1 -38 -5 -57h-256zM248 400c-44 0 -76 -41 -84 -126h141c2 8 3 21 3 37c0 47 -13 89 -60 89z
M286 486l-121 85c-34 21 -41 63 -6 91c33 27 75 13 91 -26l55 -133z" />
    <glyph glyph-name="eacute" unicode="&#xe9;" horiz-adv-x="453" 
d="M162 227c2 -91 42 -153 127 -153c45 0 71 11 108 39l19 -22c-32 -72 -93 -101 -178 -101c-114 0 -204 73 -204 222c0 151 102 234 223 234c98 0 166 -57 166 -162c0 -16 -1 -38 -5 -57h-256zM248 400c-44 0 -76 -41 -84 -126h141c2 8 3 21 3 37c0 47 -13 89 -60 89z
M324 571l-121 -85l-19 17l55 133c17 39 59 53 91 26c35 -28 28 -70 -6 -91z" />
    <glyph glyph-name="ecircumflex" unicode="&#xea;" horiz-adv-x="453" 
d="M162 227c2 -91 42 -153 127 -153c45 0 71 11 108 39l19 -22c-32 -72 -93 -101 -178 -101c-114 0 -204 73 -204 222c0 151 102 234 223 234c98 0 166 -57 166 -162c0 -16 -1 -38 -5 -57h-256zM248 400c-44 0 -76 -41 -84 -126h141c2 8 3 21 3 37c0 47 -13 89 -60 89z
M233 667h30l147 -185h-120l-71 98l-77 -98h-57z" />
    <glyph glyph-name="edieresis" unicode="&#xeb;" horiz-adv-x="453" 
d="M162 227c2 -91 42 -153 127 -153c45 0 71 11 108 39l19 -22c-32 -72 -93 -101 -178 -101c-114 0 -204 73 -204 222c0 151 102 234 223 234c98 0 166 -57 166 -162c0 -16 -1 -38 -5 -57h-256zM248 400c-44 0 -76 -41 -84 -126h141c2 8 3 21 3 37c0 47 -13 89 -60 89z
M84 565c0 42 31 67 68 67c41 0 71 -25 71 -67c0 -40 -30 -66 -71 -66c-37 0 -68 26 -68 66zM277 564c0 42 32 67 69 67c41 0 71 -25 71 -67c0 -40 -30 -66 -71 -66c-37 0 -69 26 -69 66z" />
    <glyph glyph-name="igrave" unicode="&#xec;" horiz-adv-x="287" 
d="M210 48l59 -19l-13 -29h-218v28l41 20v274l-42 66v11l151 47h22v-398zM182 486l-122 85c-33 21 -40 63 -5 91c32 27 74 13 90 -26l55 -133z" />
    <glyph glyph-name="iacute" unicode="&#xed;" horiz-adv-x="287" 
d="M210 48l59 -19l-13 -29h-218v28l41 20v274l-42 66v11l151 47h22v-398zM217 571l-122 -85l-18 17l55 133c16 39 58 53 90 26c35 -28 28 -70 -5 -91z" />
    <glyph glyph-name="icircumflex" unicode="&#xee;" horiz-adv-x="287" 
d="M132 667h30l137 -185h-121l-58 88l-69 -88h-58zM210 48l59 -19l-13 -29h-218v28l41 20v274l-42 66v11l151 47h22v-398z" />
    <glyph glyph-name="idieresis" unicode="&#xef;" horiz-adv-x="287" 
d="M210 48l59 -19l-13 -29h-218v28l41 20v274l-42 66v11l151 47h22v-398zM-18 565c0 42 31 67 68 67c41 0 71 -25 71 -67c0 -40 -30 -66 -71 -66c-37 0 -68 26 -68 66zM175 564c0 42 32 67 69 67c41 0 71 -25 71 -67c0 -40 -30 -66 -71 -66c-37 0 -69 26 -69 66z" />
    <glyph glyph-name="eth" unicode="&#xf0;" horiz-adv-x="524" 
d="M95 530l137 52c-33 28 -74 54 -125 80l16 30c75 -18 137 -45 188 -80l106 40l15 -42l-81 -30c97 -85 139 -201 139 -321c0 -191 -97 -268 -230 -268c-137 0 -226 69 -226 235c0 150 98 220 211 220c38 0 67 -9 91 -29c-13 51 -35 93 -70 132l-156 -58zM352 256
c0 39 -2 74 -6 106c-21 24 -50 35 -79 35c-62 0 -93 -53 -93 -168c0 -100 16 -196 87 -196c65 0 91 74 91 223z" />
    <glyph glyph-name="ntilde" unicode="&#xf1;" horiz-adv-x="561" 
d="M492 48l59 -19l-13 -29h-219v28l41 19v218c0 65 -34 87 -71 87c-34 0 -61 -17 -79 -34v-270l59 -19l-13 -29h-218v28l41 18v274l-42 66v11l151 49h21l-3 -87h4c36 57 86 87 153 87c73 0 129 -51 129 -153v-245zM304 510l-59 25c-14 6 -26 9 -38 9c-27 -1 -46 -19 -49 -58
l-24 4c-5 15 -9 29 -9 45c0 53 38 92 95 92c17 0 36 -4 55 -12l59 -24c16 -6 31 -11 44 -11c23 0 39 16 43 54l25 -4c5 -17 9 -33 9 -50c0 -51 -34 -84 -85 -84c-20 0 -42 4 -66 14z" />
    <glyph glyph-name="ograve" unicode="&#xf2;" 
d="M482 218c0 -151 -89 -228 -224 -228s-224 77 -224 228s89 228 224 228s224 -77 224 -228zM173 218c0 -116 18 -182 85 -182s85 66 85 182s-18 182 -85 182s-85 -66 -85 -182zM305 486l-122 85c-34 21 -40 63 -6 91c33 27 75 13 91 -26l55 -133z" />
    <glyph glyph-name="oacute" unicode="&#xf3;" 
d="M482 218c0 -151 -89 -228 -224 -228s-224 77 -224 228s89 228 224 228s224 -77 224 -228zM173 218c0 -116 18 -182 85 -182s85 66 85 182s-18 182 -85 182s-85 -66 -85 -182zM332 571l-121 -85l-19 17l55 133c17 39 59 53 91 26c35 -28 28 -70 -6 -91z" />
    <glyph glyph-name="ocircumflex" unicode="&#xf4;" 
d="M482 218c0 -151 -89 -228 -224 -228s-224 77 -224 228s89 228 224 228s224 -77 224 -228zM173 218c0 -116 18 -182 85 -182s85 66 85 182s-18 182 -85 182s-85 -66 -85 -182zM252 667h29l148 -185h-121l-71 98l-76 -98h-58z" />
    <glyph glyph-name="otilde" unicode="&#xf5;" 
d="M482 218c0 -151 -89 -228 -224 -228s-224 77 -224 228s89 228 224 228s224 -77 224 -228zM173 218c0 -116 18 -182 85 -182s85 66 85 182s-18 182 -85 182s-85 -66 -85 -182zM275 510l-59 25c-14 6 -26 9 -38 9c-27 -1 -46 -19 -49 -58l-24 4c-5 15 -9 29 -9 45
c0 53 38 92 95 92c17 0 36 -4 55 -12l59 -24c16 -6 31 -11 44 -11c23 0 39 16 43 54l25 -4c5 -17 9 -33 9 -50c0 -51 -34 -84 -85 -84c-20 0 -42 4 -66 14z" />
    <glyph glyph-name="odieresis" unicode="&#xf6;" 
d="M482 218c0 -151 -89 -228 -224 -228s-224 77 -224 228s89 228 224 228s224 -77 224 -228zM173 218c0 -116 18 -182 85 -182s85 66 85 182s-18 182 -85 182s-85 -66 -85 -182zM93 565c0 42 31 67 68 67c42 0 71 -25 71 -67c0 -40 -29 -66 -71 -66c-37 0 -68 26 -68 66z
M287 564c0 42 31 67 69 67c40 0 71 -25 71 -67c0 -40 -31 -66 -71 -66c-38 0 -69 26 -69 66z" />
    <glyph glyph-name="divide" unicode="&#xf7;" horiz-adv-x="496" 
d="M441 213h-386v63h386v-63zM195 88c0 27 22 50 49 50c28 0 50 -23 50 -50c0 -28 -22 -49 -50 -49c-27 0 -49 21 -49 49zM195 397c0 27 22 50 49 50c28 0 50 -23 50 -50c0 -28 -22 -50 -50 -50c-27 0 -49 22 -49 50z" />
    <glyph glyph-name="oslash" unicode="&#xf8;" horiz-adv-x="525" 
d="M265 446c44 0 83 -8 116 -24l32 44h57l-50 -69c44 -37 71 -97 71 -180c0 -158 -98 -226 -231 -226c-47 0 -87 8 -121 23l-31 -43h-56l49 67c-44 37 -67 95 -67 179c0 152 93 229 231 229zM262 33c65 0 88 73 88 183c0 30 -2 56 -5 79l-154 -211c13 -32 35 -51 71 -51z
M173 216c0 -27 1 -51 4 -74l153 210c-15 32 -38 48 -69 48c-67 0 -88 -65 -88 -184z" />
    <glyph glyph-name="ugrave" unicode="&#xf9;" horiz-adv-x="528" 
d="M330 320l-42 66v11l151 49h22v-359l49 -46v-17l-165 -31l-11 69h-4c-31 -50 -81 -72 -134 -72c-72 0 -139 38 -139 152v178l-42 66v11l151 49h22v-291c0 -61 24 -86 64 -86c28 0 50 9 78 30v221zM298 486l-121 85c-34 21 -41 63 -6 91c32 27 74 13 91 -26l55 -133z" />
    <glyph glyph-name="uacute" unicode="&#xfa;" horiz-adv-x="528" 
d="M330 320l-42 66v11l151 49h22v-359l49 -46v-17l-165 -31l-11 69h-4c-31 -50 -81 -72 -134 -72c-72 0 -139 38 -139 152v178l-42 66v11l151 49h22v-291c0 -61 24 -86 64 -86c28 0 50 9 78 30v221zM355 571l-121 -85l-19 17l55 133c16 39 58 53 91 26c35 -28 28 -70 -6 -91
z" />
    <glyph glyph-name="ucircumflex" unicode="&#xfb;" horiz-adv-x="528" 
d="M330 320l-42 66v11l151 49h22v-359l49 -46v-17l-165 -31l-11 69h-4c-31 -50 -81 -72 -134 -72c-72 0 -139 38 -139 152v178l-42 66v11l151 49h22v-291c0 -61 24 -86 64 -86c28 0 50 9 78 30v221zM256 667h30l147 -185h-121l-70 98l-77 -98h-58z" />
    <glyph glyph-name="udieresis" unicode="&#xfc;" horiz-adv-x="528" 
d="M330 320l-42 66v11l151 49h22v-359l49 -46v-17l-165 -31l-11 69h-4c-31 -50 -81 -72 -134 -72c-72 0 -139 38 -139 152v178l-42 66v11l151 49h22v-291c0 -61 24 -86 64 -86c28 0 50 9 78 30v221zM99 565c0 42 31 67 69 67c41 0 71 -25 71 -67c0 -40 -30 -66 -71 -66
c-38 0 -69 26 -69 66zM293 564c0 42 31 67 69 67c40 0 71 -25 71 -67c0 -40 -31 -66 -71 -66c-38 0 -69 26 -69 66z" />
    <glyph glyph-name="yacute" unicode="&#xfd;" horiz-adv-x="486" 
d="M218 -40l-173 415l-45 30l7 31h232l6 -35l-64 -15l65 -165c28 -72 31 -118 31 -118h4s11 51 34 119l55 161l-63 19l5 34h168l6 -33l-46 -16l-147 -394c-52 -140 -107 -211 -208 -211c-63 0 -91 37 -91 81c0 42 25 69 67 69c43 0 62 -30 62 -62c0 -21 -9 -34 -16 -42
c43 4 89 64 111 132zM331 571l-122 -85l-18 17l55 133c16 39 58 53 90 26c35 -28 28 -70 -5 -91z" />
    <glyph glyph-name="thorn" unicode="&#xfe;" horiz-adv-x="538" 
d="M252 -9c-27 0 -46 3 -61 8v-161l70 -19l-13 -29h-236v28l47 17v739l-47 54v11l157 42h22v-304h4c22 37 69 69 131 69c101 0 178 -74 178 -210c0 -182 -134 -245 -252 -245zM191 339v-280c14 -11 33 -17 56 -17c65 0 122 47 122 170c0 105 -48 145 -117 145
c-27 0 -47 -8 -61 -18z" />
    <glyph glyph-name="ydieresis" unicode="&#xff;" horiz-adv-x="486" 
d="M218 -40l-173 415l-45 30l7 31h232l6 -35l-64 -15l65 -165c28 -72 31 -118 31 -118h4s11 51 34 119l55 161l-63 19l5 34h168l6 -33l-46 -16l-147 -394c-52 -140 -107 -211 -208 -211c-63 0 -91 37 -91 81c0 42 25 69 67 69c43 0 62 -30 62 -62c0 -21 -9 -34 -16 -42
c43 4 89 64 111 132zM89 565c0 42 31 67 68 67c41 0 71 -25 71 -67c0 -40 -30 -66 -71 -66c-37 0 -68 26 -68 66zM282 564c0 42 31 67 69 67c40 0 71 -25 71 -67c0 -40 -31 -66 -71 -66c-38 0 -69 26 -69 66z" />
    <glyph glyph-name="ndescender" horiz-adv-x="542" 
d="M492 -209h-132v474c0 65 -34 87 -71 87c-34 0 -61 -17 -79 -34v-270l59 -19l-13 -29h-218v28l41 18v274l-42 66v11l151 49h21l-3 -87h4c36 57 86 87 153 87c73 0 129 -51 129 -153v-502z" />
    <glyph glyph-name="barredo" 
d="M482 218c0 -151 -89 -228 -224 -228s-224 77 -224 228s89 228 224 228s224 -77 224 -228zM258 400c-63 0 -83 -58 -85 -161h170c-2 103 -22 161 -85 161zM258 36c62 0 82 57 85 159h-170c2 -102 22 -159 85 -159z" />
    <glyph glyph-name="adoublegrave" horiz-adv-x="470" 
d="M401 287v-191c0 -45 16 -55 63 -50l3 -20c-25 -24 -58 -36 -105 -36c-43 0 -79 18 -87 64l-3 1c-21 -45 -67 -65 -121 -65c-67 0 -122 37 -122 120c0 88 70 131 181 131c21 0 44 -4 60 -8v38c0 58 -37 87 -96 87c-42 0 -77 -8 -119 -30l-12 29c43 58 112 89 194 89
c83 0 164 -37 164 -159zM270 195h-22c-59 0 -93 -15 -93 -68c0 -37 22 -62 57 -62c22 0 40 5 58 21v109zM176 483l-113 95c-30 24 -38 50 -4 78c33 26 60 16 77 -19l65 -131zM336 483l-113 95c-30 24 -38 50 -4 78c33 26 60 16 77 -19l65 -131z" />
    <glyph glyph-name="ibreve" horiz-adv-x="287" 
d="M141 571c59 0 86 31 92 89h38c1 -8 2 -15 2 -24c0 -81 -44 -144 -132 -144s-132 63 -132 144c0 9 0 16 2 24h38c5 -58 32 -89 92 -89zM210 48l59 -19l-13 -29h-218v28l41 20v274l-42 66v11l151 47h22v-398z" />
    <glyph glyph-name="idotaccent" horiz-adv-x="287" 
d="M63 579c0 46 35 82 81 82c45 0 81 -36 81 -82c0 -45 -36 -80 -81 -80c-46 0 -81 35 -81 80zM210 48l59 -19l-13 -29h-218v28l41 20v274l-42 66v11l151 47h22v-398z" />
    <glyph glyph-name="Anocross" horiz-adv-x="604" 
d="M230 354l-110 -298l74 -21l-5 -35h-180l-7 30l48 27l199 531h107l198 -531l48 -27l-7 -30h-247l-6 36l67 16l-109 303c-28 78 -32 127 -32 127h-4s-6 -53 -34 -128z" />
    <glyph glyph-name="barredO" horiz-adv-x="637" 
d="M319 -10c-180 0 -282 116 -282 304s102 304 282 304c179 0 281 -116 281 -304s-102 -304 -281 -304zM319 38c86 0 127 66 131 233h-263c3 -167 45 -233 132 -233zM319 550c-86 0 -127 -64 -132 -227h262c-4 163 -45 227 -130 227z" />
    <glyph glyph-name="Ndescender" horiz-adv-x="654" 
d="M481 12l-249 341c-43 57 -68 118 -68 118h-4s6 -77 6 -152v-264l76 -23l-7 -32h-193l-7 32l64 23v478l-64 23l7 32h190l208 -293c41 -57 65 -118 65 -118h4s-5 77 -5 150v206l-76 23l7 32h188l8 -32l-65 -23v-385l20 -32v-279h-53z" />
    <glyph glyph-name=".null" horiz-adv-x="0" 
 />
    <glyph glyph-name="CR" horiz-adv-x="0" 
 />
    <glyph glyph-name="x.superior" horiz-adv-x="404" 
d="M49 320l89 106l-92 120l-43 20l6 25h187l4 -27l-27 -7l41 -63h3l50 61l-36 10l5 26h127l5 -23l-47 -17l-80 -92l108 -143l37 -14l-3 -21h-188l-7 21l34 9l-57 79h-3l-63 -74l53 -14l-8 -21h-142l-4 20z" />
    <glyph glyph-name="plusminus.cap" horiz-adv-x="496" 
d="M55 389h160v120h63v-120h163v-64h-163v-133h-63v133h-160v64zM441 85h-386v63h386v-63z" />
    <glyph glyph-name="notequal.cap" horiz-adv-x="496" 
d="M441 324h-119l-55 -72h174v-64h-221l-87 -114l-51 38l59 76h-86v64h133l54 72h-187v63h235l80 105l51 -38l-51 -67h71v-63z" />
    <glyph glyph-name="approxequal.cap" horiz-adv-x="496" 
d="M353 289c-61 0 -147 42 -202 42c-38 0 -68 -14 -96 -42v65c30 30 62 40 99 40c62 0 137 -39 196 -39c33 0 61 10 91 37v-69c-23 -24 -50 -34 -88 -34zM353 170c-61 0 -147 41 -202 41c-38 0 -68 -14 -96 -41v64c30 30 62 41 99 41c62 0 137 -39 196 -39c33 0 61 9 91 37
v-69c-23 -25 -50 -34 -88 -34z" />
    <glyph glyph-name="lessequal.cap" horiz-adv-x="425" 
d="M351 453l-175 -118l174 -118l-45 -57l-244 175l247 172zM370 74h-315v64h315v-64z" />
    <glyph glyph-name="greaterequal.cap" horiz-adv-x="425" 
d="M249 335l-173 118l42 54l247 -172l-244 -175l-45 57zM370 74h-315v64h315v-64z" />
    <glyph glyph-name="s_l" horiz-adv-x="695" 
d="M622 681v-633l58 -19l-13 -29h-217v28l41 18v489c0 68 -35 108 -97 108c-64 0 -104 -38 -104 -110c0 -37 10 -73 27 -102l33 14l3 -131l-24 -6c-40 64 -78 93 -128 93c-36 0 -58 -19 -58 -48c0 -28 15 -44 50 -56l72 -24c82 -27 119 -69 119 -145
c0 -97 -68 -138 -177 -138c-38 0 -78 10 -107 23l-52 -23l-11 147l27 6c53 -88 90 -110 146 -110c40 0 69 13 69 53c0 32 -19 50 -64 64l-65 21c-69 21 -107 61 -107 135c0 97 67 140 157 140c34 0 66 -11 89 -24v4c-24 22 -43 64 -43 111c0 88 58 149 154 149
c66 0 104 -23 130 -51l70 46h22z" />
    <glyph glyph-name="s_k" horiz-adv-x="952" 
d="M622 681v-436l41 8l128 125l-62 24l6 34h194l8 -32l-58 -18l-117 -113l138 -224l61 -21l-12 -28h-171l-118 202h-38v-154l59 -19l-13 -29h-218v28l41 18v489c0 68 -35 108 -97 108c-64 0 -104 -41 -104 -110c0 -37 10 -73 27 -102l33 14l3 -131l-24 -6
c-40 64 -78 93 -128 93c-36 0 -58 -19 -58 -48c0 -28 15 -44 50 -56l72 -24c82 -27 119 -69 119 -145c0 -97 -68 -138 -177 -138c-38 0 -78 10 -107 23l-52 -23l-11 147l27 6c53 -88 90 -110 146 -110c40 0 69 13 69 53c0 32 -19 50 -64 64l-65 21c-69 21 -107 61 -107 135
c0 97 67 140 157 140c34 0 66 -11 89 -24v4c-24 22 -43 64 -43 111c0 88 58 149 154 149c66 0 104 -23 130 -51l70 46h22z" />
    <glyph glyph-name="s_b" horiz-adv-x="961" 
d="M482 19v516c0 68 -32 108 -94 108c-64 0 -100 -41 -100 -110c0 -37 12 -73 29 -102l33 14l3 -131l-24 -6c-40 64 -78 93 -128 93c-36 0 -58 -19 -58 -48c0 -28 15 -44 50 -56l72 -24c82 -27 119 -69 119 -145c0 -97 -68 -138 -177 -138c-38 0 -78 10 -107 23l-52 -23
l-11 147l27 6c53 -88 90 -110 146 -110c40 0 69 13 69 53c0 32 -19 50 -64 64l-65 21c-69 21 -107 61 -107 135c0 97 67 140 157 140c34 0 66 -11 89 -24v4c-24 22 -45 64 -45 111c0 88 54 149 150 149c66 0 101 -23 127 -51l70 46h22v-297h4c24 38 69 62 131 62
c102 0 179 -74 179 -210c0 -182 -135 -246 -268 -246c-74 0 -128 10 -177 29zM613 345v-290c15 -10 33 -17 56 -17c65 0 123 51 123 172c0 110 -50 152 -120 152c-26 0 -45 -7 -59 -17z" />
    <glyph glyph-name="c_b" horiz-adv-x="978" 
d="M631 345v-290c14 -10 33 -17 56 -17c65 0 122 51 122 172c0 110 -49 152 -119 152c-26 0 -45 -7 -59 -17zM631 681v-297h4c24 38 69 62 131 62c101 0 178 -74 178 -210c0 -182 -134 -246 -267 -246c-75 0 -128 10 -178 29v520c0 68 -28 104 -86 104s-96 -43 -96 -103
c0 -97 93 -130 93 -194c0 -43 -27 -69 -65 -69c-37 0 -64 26 -64 62c0 25 11 45 26 57c-7 3 -19 5 -31 5c-67 0 -112 -52 -112 -169c0 -97 46 -158 125 -158c45 0 72 14 107 39l18 -22c-36 -74 -93 -101 -178 -101c-116 0 -202 79 -202 222c0 158 111 234 233 234
c21 0 40 -5 57 -12c-27 20 -52 62 -52 106c0 78 53 146 152 146c61 0 95 -19 123 -44l62 39h22z" />
    <glyph glyph-name="c_l" horiz-adv-x="714" 
d="M640 681v-633l59 -19l-13 -29h-219v28l41 18v493c0 68 -28 104 -86 104s-95 -43 -95 -107c0 -99 83 -126 83 -190c0 -43 -27 -69 -65 -69c-37 0 -64 26 -64 62c0 25 11 45 26 57c-7 3 -19 5 -31 5c-67 0 -112 -52 -112 -169c0 -97 46 -158 125 -158c45 0 72 14 107 39
l18 -22c-36 -74 -93 -101 -178 -101c-116 0 -202 79 -202 222c0 158 111 234 233 234c21 0 40 -5 57 -12c-23 22 -42 62 -42 102c0 82 52 150 151 150c61 0 95 -19 123 -44l62 39h22z" />
    <glyph glyph-name="c_p" horiz-adv-x="983" 
d="M635 339v-281c15 -10 33 -17 56 -17c65 0 123 48 123 171c0 105 -49 145 -118 145c-26 0 -47 -8 -61 -18zM635 484v-107h4c22 37 69 69 131 69c102 0 179 -74 179 -210c0 -182 -135 -246 -253 -246c-27 0 -45 4 -61 8v-160l70 -19l-13 -29h-235v28l47 17v485l-42 67v11
c76 20 104 44 104 125c0 73 -44 124 -113 124c-71 0 -117 -44 -117 -113c0 -97 74 -124 74 -188c0 -43 -27 -69 -65 -69c-37 0 -64 26 -64 62c0 25 11 45 26 57c-7 3 -19 5 -31 5c-67 0 -112 -52 -112 -169c0 -97 46 -158 125 -158c45 0 72 14 107 39l18 -22
c-36 -74 -93 -101 -178 -101c-116 0 -202 79 -202 222c0 158 111 234 233 234c21 0 40 -5 57 -12c-20 20 -35 62 -35 98c0 80 57 154 164 154c125 0 182 -81 182 -202z" />
    <glyph glyph-name="c_t" horiz-adv-x="780" 
d="M636 384v-236c0 -58 23 -80 62 -80c26 0 46 6 74 21l11 -24c-32 -47 -82 -75 -146 -75c-78 0 -132 39 -132 141v253h-60v33c60 10 121 27 121 117c0 69 -44 113 -113 113c-71 0 -117 -44 -117 -113c0 -97 74 -124 74 -188c0 -43 -27 -69 -65 -69c-37 0 -64 26 -64 62
c0 25 11 45 26 57c-7 3 -19 5 -31 5c-67 0 -112 -52 -112 -169c0 -97 46 -158 125 -158c45 0 72 14 107 39l18 -22c-36 -74 -93 -101 -178 -101c-116 0 -202 79 -202 222c0 158 111 234 233 234c21 0 40 -5 57 -12c-20 20 -35 62 -35 98c0 80 57 154 164 154
c125 0 182 -77 182 -195v-55h132l-7 -52h-124z" />
    <glyph glyph-name="c_k" horiz-adv-x="970" 
d="M640 681v-436l41 8l128 125l-63 24l7 34h194l8 -32l-58 -18l-118 -113l139 -224l61 -21l-12 -28h-171l-118 202h-38v-154l59 -19l-13 -29h-219v28l41 18v493c0 68 -28 104 -86 104s-95 -43 -95 -107c0 -99 83 -126 83 -190c0 -43 -27 -69 -65 -69c-37 0 -64 26 -64 62
c0 25 11 45 26 57c-7 3 -19 5 -31 5c-67 0 -112 -52 -112 -169c0 -97 46 -158 125 -158c45 0 72 14 107 39l18 -22c-36 -74 -93 -101 -178 -101c-116 0 -202 79 -202 222c0 158 111 234 233 234c21 0 40 -5 57 -12c-23 22 -42 62 -42 102c0 82 52 150 151 150
c61 0 95 -19 123 -44l62 39h22z" />
    <glyph glyph-name="c_h" horiz-adv-x="990" 
d="M508 46v493c0 68 -28 104 -86 104s-95 -43 -95 -107c0 -99 83 -126 83 -190c0 -43 -27 -69 -65 -69c-37 0 -64 26 -64 62c0 25 11 45 26 57c-7 3 -19 5 -31 5c-67 0 -112 -52 -112 -169c0 -97 46 -158 125 -158c45 0 72 14 107 39l18 -22c-36 -74 -93 -101 -178 -101
c-116 0 -202 79 -202 222c0 158 111 234 233 234c21 0 40 -5 57 -12c-23 22 -42 62 -42 102c0 82 52 150 151 150c61 0 95 -19 123 -44l62 39h22v-319h4c33 56 86 84 146 84c66 0 131 -34 131 -151v-247l59 -19l-13 -29h-218v28l41 18v221c0 58 -30 88 -71 88
c-30 0 -57 -13 -79 -34v-273l58 -19l-13 -29h-218v28z" />
    <glyph glyph-name="s_p" horiz-adv-x="965" 
d="M444 386v11c77 21 110 33 110 115c0 78 -49 132 -136 132c-81 0 -129 -48 -129 -117c0 -37 11 -67 28 -96l33 14l3 -131l-24 -6c-40 64 -78 93 -128 93c-36 0 -58 -19 -58 -48c0 -28 15 -44 50 -56l72 -24c82 -27 119 -69 119 -145c0 -97 -68 -138 -177 -138
c-38 0 -78 10 -107 23l-52 -23l-11 147l27 6c53 -88 90 -110 146 -110c40 0 69 13 69 53c0 32 -19 50 -64 64l-65 21c-69 21 -107 61 -107 135c0 97 67 140 157 140c34 0 66 -11 89 -24v4c-24 22 -43 58 -43 105c0 85 58 155 172 155c129 0 198 -69 199 -186v-123h4
c22 37 70 69 132 69c101 0 178 -74 178 -210c0 -182 -135 -246 -253 -246c-27 0 -45 4 -61 8v-160l70 -19l-13 -29h-235v28l47 17v484zM617 339v-281c15 -10 33 -17 56 -17c66 0 123 48 123 171c0 105 -49 145 -118 145c-26 0 -47 -8 -61 -18z" />
    <glyph glyph-name="s_h" horiz-adv-x="972" 
d="M289 422v4c-24 22 -43 64 -43 111c0 88 58 149 154 149c66 0 104 -23 130 -51l70 46h22v-319h4c33 56 86 84 147 84c65 0 130 -34 130 -151v-247l59 -19l-13 -29h-218v28l41 18v221c0 58 -29 88 -71 88c-30 0 -57 -13 -79 -34v-273l58 -19l-13 -29h-217v28l41 18v489
c0 68 -35 108 -97 108c-64 0 -104 -41 -104 -110c0 -37 10 -73 27 -102l33 14l3 -131l-24 -6c-40 64 -78 93 -128 93c-36 0 -58 -19 -58 -48c0 -28 15 -44 50 -56l72 -24c82 -27 119 -69 119 -145c0 -97 -68 -138 -177 -138c-38 0 -78 10 -107 23l-52 -23l-11 147l27 6
c53 -88 90 -110 146 -110c40 0 69 13 69 53c0 32 -19 50 -64 64l-65 21c-69 21 -107 61 -107 135c0 97 67 140 157 140c34 0 66 -11 89 -24z" />
    <glyph glyph-name="Amacron" unicode="&#x100;" horiz-adv-x="604" 
d="M409 52l-42 114h-207l-40 -110l74 -21l-5 -35h-180l-7 30l48 27l199 531h107l198 -531l48 -27l-7 -30h-247l-6 36zM456 654h-315v67h315v-67zM230 354l-51 -136h169l-49 137c-28 78 -31 127 -31 127h-4s-6 -53 -34 -128z" />
    <glyph glyph-name="amacron" unicode="&#x101;" horiz-adv-x="470" 
d="M401 287v-191c0 -45 16 -55 63 -50l3 -20c-25 -24 -58 -36 -105 -36c-43 0 -79 18 -87 64l-3 1c-21 -45 -67 -65 -121 -65c-67 0 -122 37 -122 120c0 88 70 131 181 131c21 0 44 -4 60 -8v38c0 58 -37 87 -96 87c-42 0 -77 -8 -119 -30l-12 29c43 58 112 89 194 89
c83 0 164 -37 164 -159zM270 195h-22c-59 0 -93 -15 -93 -68c0 -37 22 -62 57 -62c22 0 40 5 58 21v109zM366 509h-285v68h285v-68z" />
    <glyph glyph-name="Abreve" unicode="&#x102;" horiz-adv-x="604" 
d="M409 52l-42 114h-207l-40 -110l74 -21l-5 -35h-180l-7 30l48 27l199 531h107l198 -531l48 -27l-7 -30h-247l-6 36zM297 704c57 0 85 23 98 67h43c-3 -87 -51 -145 -141 -145s-138 58 -140 145h42c14 -44 42 -67 98 -67zM230 354l-51 -136h169l-49 137
c-28 78 -31 127 -31 127h-4s-6 -53 -34 -128z" />
    <glyph glyph-name="abreve" unicode="&#x103;" horiz-adv-x="470" 
d="M401 287v-191c0 -45 16 -55 63 -50l3 -20c-25 -24 -58 -36 -105 -36c-43 0 -79 18 -87 64l-3 1c-21 -45 -67 -65 -121 -65c-67 0 -122 37 -122 120c0 88 70 131 181 131c21 0 44 -4 60 -8v38c0 58 -37 87 -96 87c-42 0 -77 -8 -119 -30l-12 29c43 58 112 89 194 89
c83 0 164 -37 164 -159zM270 195h-22c-59 0 -93 -15 -93 -68c0 -37 22 -62 57 -62c22 0 40 5 58 21v109zM224 571c60 0 96 31 102 89h38c2 -8 2 -15 2 -24c0 -81 -54 -144 -142 -144s-142 63 -142 144c0 9 1 16 2 24h38c6 -58 43 -89 102 -89z" />
    <glyph glyph-name="Aogonek" unicode="&#x104;" horiz-adv-x="604" 
d="M204 -117c0 72 58 113 141 145l64 24l-42 114h-206l-41 -110l74 -21l-5 -35h-180l-7 30l48 27l199 531h107l198 -531l48 -27l-7 -30h-216c-47 -22 -73 -47 -73 -92c0 -34 21 -53 52 -53c25 0 42 6 66 31l15 -19c-19 -51 -59 -82 -125 -82c-56 0 -110 26 -110 98zM230 354
l-50 -136h168l-49 137c-28 78 -31 127 -31 127h-4s-6 -53 -34 -128z" />
    <glyph glyph-name="aogonek" unicode="&#x105;" horiz-adv-x="470" 
d="M230 -117c0 56 38 92 92 116c-24 7 -42 24 -47 55l-3 1c-21 -45 -67 -65 -121 -65c-67 0 -122 37 -122 120c0 88 70 131 181 131c21 0 45 -4 60 -7v37c0 58 -37 87 -96 87c-42 0 -77 -8 -119 -30l-12 29c43 58 112 89 194 89c83 0 164 -37 164 -159v-187
c0 -46 16 -56 63 -50l3 -21c-59 -34 -135 -52 -135 -121c0 -34 21 -53 52 -53c26 0 43 6 66 31l16 -19c-20 -51 -60 -82 -126 -82c-56 0 -110 26 -110 98zM270 195h-22c-59 0 -93 -15 -93 -68c0 -37 22 -62 57 -62c22 0 39 6 58 24v106z" />
    <glyph glyph-name="Cacute" unicode="&#x106;" horiz-adv-x="554" 
d="M37 295c0 209 119 303 286 303c41 0 87 -9 125 -19l60 19v-167l-21 -5l-45 55c-35 44 -67 70 -117 70c-85 0 -139 -64 -139 -257c0 -171 68 -232 155 -232c57 0 109 12 167 57l22 -33c-44 -61 -122 -96 -210 -96c-163 0 -283 92 -283 305zM381 690l-138 -65l-15 21
l94 122c25 33 65 38 90 6c26 -33 6 -69 -31 -84z" />
    <glyph glyph-name="cacute" unicode="&#x107;" horiz-adv-x="436" 
d="M309 395c-8 3 -17 6 -34 6c-66 0 -111 -52 -111 -169c0 -97 46 -158 125 -158c45 0 72 14 107 39l18 -22c-36 -74 -93 -101 -178 -101c-116 0 -202 79 -202 222c0 158 111 234 233 234c83 0 144 -33 144 -100c0 -41 -27 -69 -65 -69c-37 0 -64 26 -64 62
c0 25 11 44 27 56zM335 571l-122 -85l-18 17l55 133c16 39 58 53 90 26c35 -28 28 -70 -5 -91z" />
    <glyph glyph-name="Ccircumflex" unicode="&#x108;" horiz-adv-x="554" 
d="M37 295c0 209 119 303 286 303c41 0 87 -9 125 -19l60 19v-167l-21 -5l-45 55c-35 44 -67 70 -117 70c-85 0 -139 -64 -139 -257c0 -171 68 -232 155 -232c57 0 109 12 167 57l22 -33c-44 -61 -122 -96 -210 -96c-163 0 -283 92 -283 305zM310 776h29l147 -148h-128
l-67 70l-73 -70h-57z" />
    <glyph glyph-name="ccircumflex" unicode="&#x109;" horiz-adv-x="436" 
d="M309 395c-8 3 -17 6 -34 6c-66 0 -111 -52 -111 -169c0 -97 46 -158 125 -158c45 0 72 14 107 39l18 -22c-36 -74 -93 -101 -178 -101c-116 0 -202 79 -202 222c0 158 111 234 233 234c83 0 144 -33 144 -100c0 -41 -27 -69 -65 -69c-37 0 -64 26 -64 62
c0 25 11 44 27 56zM238 667h29l148 -185h-121l-71 98l-76 -98h-58z" />
    <glyph glyph-name="Cdotaccent" unicode="&#x10a;" horiz-adv-x="554" 
d="M37 295c0 209 119 303 286 303c41 0 87 -9 125 -19l60 19v-167l-21 -5l-45 55c-35 44 -67 70 -117 70c-85 0 -139 -64 -139 -257c0 -171 68 -232 155 -232c57 0 109 12 167 57l22 -33c-44 -61 -122 -96 -210 -96c-163 0 -283 92 -283 305zM232 705c0 46 35 72 76 72
c43 0 77 -26 77 -72c0 -45 -34 -72 -77 -72c-41 0 -76 27 -76 72z" />
    <glyph glyph-name="cdotaccent" unicode="&#x10b;" horiz-adv-x="436" 
d="M309 395c-8 3 -17 6 -34 6c-66 0 -111 -52 -111 -169c0 -97 46 -158 125 -158c45 0 72 14 107 39l18 -22c-36 -74 -93 -101 -178 -101c-116 0 -202 79 -202 222c0 158 111 234 233 234c83 0 144 -33 144 -100c0 -41 -27 -69 -65 -69c-37 0 -64 26 -64 62
c0 25 11 44 27 56zM173 569c0 46 35 72 76 72c43 0 78 -26 78 -72c0 -45 -35 -72 -78 -72c-41 0 -76 27 -76 72z" />
    <glyph glyph-name="Ccaron" unicode="&#x10c;" horiz-adv-x="554" 
d="M37 295c0 209 119 303 286 303c41 0 87 -9 125 -19l60 19v-167l-21 -5l-45 55c-35 44 -67 70 -117 70c-85 0 -139 -64 -139 -257c0 -171 68 -232 155 -232c57 0 109 12 167 57l22 -33c-44 -61 -122 -96 -210 -96c-163 0 -283 92 -283 305zM328 620h-30l-147 148h130
l61 -71l76 71h59z" />
    <glyph glyph-name="ccaron" unicode="&#x10d;" horiz-adv-x="436" 
d="M309 395c-8 3 -17 6 -34 6c-66 0 -111 -52 -111 -169c0 -97 46 -158 125 -158c45 0 72 14 107 39l18 -22c-36 -74 -93 -101 -178 -101c-116 0 -202 79 -202 222c0 158 111 234 233 234c83 0 144 -33 144 -100c0 -41 -27 -69 -65 -69c-37 0 -64 26 -64 62
c0 25 11 44 27 56zM261 482h-29l-147 185h120l71 -98l77 98h57z" />
    <glyph glyph-name="Dcaron" unicode="&#x10e;" horiz-adv-x="634" 
d="M42 588h227c184 0 328 -74 328 -285c0 -213 -146 -303 -314 -303h-241l-7 32l64 23v478l-64 23zM235 60l39 -15c132 3 178 87 178 252c0 171 -65 242 -191 242h-26v-479zM306 620h-30l-147 148h130l62 -71l75 71h59z" />
    <glyph glyph-name="dcaron" unicode="&#x10f;" horiz-adv-x="549" 
d="M169 231c0 -106 42 -160 132 -160c14 0 33 4 47 12v285c-18 22 -42 31 -70 31c-65 0 -109 -59 -109 -168zM359 55l-3 1c-29 -39 -74 -66 -135 -66c-117 0 -187 80 -187 213c0 171 114 243 232 243c38 0 62 -6 82 -16v144l-47 54v11l156 42h22v-596l52 -46v-16l-164 -31z
M532 474l10 147c2 33 14 54 45 52c29 0 61 -19 57 -51c-1 -9 -4 -19 -9 -28l-70 -127z" />
    <glyph glyph-name="Dcroat" unicode="&#x110;" horiz-adv-x="634" 
d="M38 271v52h61v210l-64 23l7 32h227c184 0 328 -74 328 -285c0 -213 -146 -303 -314 -303h-241l-7 32l64 23v216h-61zM235 60l39 -15c132 3 178 87 178 252c0 171 -65 242 -191 242h-26v-216h108v-52h-108v-211z" />
    <glyph glyph-name="dcroat" unicode="&#x111;" horiz-adv-x="549" 
d="M359 55l-3 1c-29 -39 -74 -66 -135 -66c-117 0 -187 80 -187 213c0 171 114 243 232 243c38 0 62 -6 82 -16v80h-162v44h162v20l-47 54v11l156 42h22v-127h56v-44h-56v-425l52 -46v-16l-164 -31zM169 231c0 -106 42 -160 132 -160c14 0 33 4 47 12v285
c-18 22 -42 31 -70 31c-65 0 -109 -59 -109 -168z" />
    <glyph glyph-name="Emacron" unicode="&#x112;" horiz-adv-x="532" 
d="M323 271h-88v-202l32 -17h121l94 136l26 -6l-20 -182h-446l-7 32l64 23v478l-64 23l7 32h437v-157l-21 -5l-84 110h-139v-213h87l43 82l22 -4v-211l-21 -4zM436 654h-315v67h315v-67z" />
    <glyph glyph-name="emacron" unicode="&#x113;" horiz-adv-x="453" 
d="M162 227c2 -91 42 -153 127 -153c45 0 71 11 108 39l19 -22c-32 -72 -93 -101 -178 -101c-114 0 -204 73 -204 222c0 151 102 234 223 234c98 0 166 -57 166 -162c0 -16 -1 -38 -5 -57h-256zM248 400c-44 0 -76 -41 -84 -126h141c2 8 3 21 3 37c0 47 -13 89 -60 89z
M383 509h-285v68h285v-68z" />
    <glyph glyph-name="Ebreve" unicode="&#x114;" horiz-adv-x="532" 
d="M323 271h-88v-202l32 -17h121l94 136l26 -6l-20 -182h-446l-7 32l64 23v478l-64 23l7 32h437v-157l-21 -5l-84 110h-139v-213h87l43 82l22 -4v-211l-21 -4zM282 704c57 0 85 23 98 67h43c-3 -87 -51 -145 -141 -145s-138 58 -141 145h43c13 -44 41 -67 98 -67z" />
    <glyph glyph-name="ebreve" unicode="&#x115;" horiz-adv-x="453" 
d="M162 227c2 -91 42 -153 127 -153c45 0 71 11 108 39l19 -22c-32 -72 -93 -101 -178 -101c-114 0 -204 73 -204 222c0 151 102 234 223 234c98 0 166 -57 166 -162c0 -16 -1 -38 -5 -57h-256zM248 400c-44 0 -76 -41 -84 -126h141c2 8 3 21 3 37c0 47 -13 89 -60 89z
M242 571c59 0 96 31 102 89h38c1 -8 2 -15 2 -24c0 -81 -55 -144 -142 -144c-88 0 -142 63 -142 144c0 9 0 16 1 24h39c5 -58 42 -89 102 -89z" />
    <glyph glyph-name="Edotaccent" unicode="&#x116;" horiz-adv-x="532" 
d="M323 271h-88v-202l32 -17h121l94 136l26 -6l-20 -182h-446l-7 32l64 23v478l-64 23l7 32h437v-157l-21 -5l-84 110h-139v-213h87l43 82l22 -4v-211l-21 -4zM206 705c0 46 35 72 76 72c43 0 77 -26 77 -72c0 -45 -34 -72 -77 -72c-41 0 -76 27 -76 72z" />
    <glyph glyph-name="edotaccent" unicode="&#x117;" horiz-adv-x="453" 
d="M162 227c2 -91 42 -153 127 -153c45 0 71 11 108 39l19 -22c-32 -72 -93 -101 -178 -101c-114 0 -204 73 -204 222c0 151 102 234 223 234c98 0 166 -57 166 -162c0 -16 -1 -38 -5 -57h-256zM248 400c-44 0 -76 -41 -84 -126h141c2 8 3 21 3 37c0 47 -13 89 -60 89z
M171 573c0 46 35 72 76 72c44 0 78 -26 78 -72c0 -45 -34 -72 -78 -72c-41 0 -76 27 -76 72z" />
    <glyph glyph-name="Eogonek" unicode="&#x118;" horiz-adv-x="532" 
d="M255 -117c0 57 39 93 94 117h-307l-7 32l64 23v478l-64 23l7 32h437v-157l-21 -5l-84 110h-139v-213h87l43 82l22 -4v-211l-21 -4l-43 85h-88v-202l32 -17h121l94 136l26 -6l-20 -182h-58c-47 -22 -73 -47 -73 -92c0 -34 20 -53 52 -53c25 0 42 6 66 31l15 -19
c-19 -51 -59 -82 -125 -82c-56 0 -110 26 -110 98z" />
    <glyph glyph-name="eogonek" unicode="&#x119;" horiz-adv-x="453" 
d="M146 -117c0 51 28 88 67 109c-102 9 -179 82 -179 220c0 151 102 234 223 234c98 0 166 -57 166 -162c0 -16 -1 -38 -5 -57h-256c2 -91 42 -153 127 -153c45 0 71 11 108 39l19 -22c-23 -51 -61 -75 -108 -93c-47 -17 -60 -46 -60 -90c0 -34 21 -53 52 -53
c26 0 43 6 66 31l16 -19c-20 -51 -60 -82 -126 -82c-56 0 -110 26 -110 98zM248 400c-44 0 -76 -41 -84 -126h141c2 8 3 21 3 37c0 47 -13 89 -60 89z" />
    <glyph glyph-name="Ecaron" unicode="&#x11a;" horiz-adv-x="532" 
d="M323 271h-88v-202l32 -17h121l94 136l26 -6l-20 -182h-446l-7 32l64 23v478l-64 23l7 32h437v-157l-21 -5l-84 110h-139v-213h87l43 82l22 -4v-211l-21 -4zM286 620h-29l-147 148h129l62 -71l75 71h59z" />
    <glyph glyph-name="ecaron" unicode="&#x11b;" horiz-adv-x="453" 
d="M162 227c2 -91 42 -153 127 -153c45 0 71 11 108 39l19 -22c-32 -72 -93 -101 -178 -101c-114 0 -204 73 -204 222c0 151 102 234 223 234c98 0 166 -57 166 -162c0 -16 -1 -38 -5 -57h-256zM248 400c-44 0 -76 -41 -84 -126h141c2 8 3 21 3 37c0 47 -13 89 -60 89z
M254 482h-29l-147 185h120l71 -98l77 98h57z" />
    <glyph glyph-name="Gcircumflex" unicode="&#x11c;" horiz-adv-x="613" 
d="M186 294c0 -186 55 -253 133 -253c37 0 65 6 95 25v162l-62 23l7 32h227l8 -32l-52 -23v-237h-30l-47 47c-43 -30 -90 -48 -154 -48c-145 0 -274 91 -274 305c0 209 128 303 296 303c40 0 87 -9 124 -19l61 19v-167l-21 -5l-46 55c-35 44 -67 70 -117 70
c-84 0 -148 -64 -148 -257zM323 776h29l147 -148h-128l-67 70l-73 -70h-57z" />
    <glyph glyph-name="gcircumflex" unicode="&#x11d;" horiz-adv-x="488" 
d="M245 677h29l147 -175h-120l-71 89l-77 -89h-57zM174 87h156c95 0 155 -46 155 -142c0 -122 -121 -167 -253 -167c-122 0 -212 28 -212 105c0 57 45 83 113 93v3c-57 7 -89 40 -89 92s39 83 94 94c-57 20 -93 60 -93 125c0 88 66 156 192 156c52 0 113 -10 160 -33
c-4 6 -6 14 -6 24c0 32 24 52 55 52c32 0 55 -22 55 -57c0 -38 -25 -59 -61 -59c-26 0 -50 10 -79 21v-10c35 -16 59 -50 59 -95c0 -96 -96 -139 -184 -139c-22 0 -42 2 -61 7c-21 -7 -37 -18 -37 -40c0 -20 12 -30 36 -30zM172 -32c-26 -14 -42 -36 -42 -68
c0 -53 39 -78 108 -78c79 0 139 22 139 85c0 38 -20 61 -79 61h-126zM294 297c0 65 -9 104 -61 104c-51 0 -60 -39 -60 -104c0 -64 9 -103 60 -103c52 0 61 39 61 103z" />
    <glyph glyph-name="Gbreve" unicode="&#x11e;" horiz-adv-x="613" 
d="M186 294c0 -186 55 -253 133 -253c37 0 65 6 95 25v162l-62 23l7 32h227l8 -32l-52 -23v-237h-30l-47 47c-43 -30 -90 -48 -154 -48c-145 0 -274 91 -274 305c0 209 128 303 296 303c40 0 87 -9 124 -19l61 19v-167l-21 -5l-46 55c-35 44 -67 70 -117 70
c-84 0 -148 -64 -148 -257zM326 704c57 0 85 23 98 67h43c-2 -87 -51 -145 -141 -145s-138 58 -140 145h43c13 -44 41 -67 97 -67z" />
    <glyph glyph-name="gbreve" unicode="&#x11f;" horiz-adv-x="488" 
d="M174 87h156c95 0 155 -46 155 -142c0 -122 -121 -167 -253 -167c-122 0 -212 28 -212 105c0 57 45 83 113 93v3c-57 7 -89 40 -89 92s39 83 94 94c-57 20 -93 60 -93 125c0 88 66 156 192 156c52 0 113 -10 160 -33c-4 6 -6 14 -6 24c0 32 24 52 55 52
c32 0 55 -22 55 -57c0 -38 -25 -59 -61 -59c-26 0 -50 10 -79 21v-10c35 -16 59 -50 59 -95c0 -96 -96 -139 -184 -139c-22 0 -42 2 -61 7c-21 -7 -37 -18 -37 -40c0 -20 12 -30 36 -30zM172 -32c-26 -14 -42 -36 -42 -68c0 -53 39 -78 108 -78c79 0 139 22 139 85
c0 38 -20 61 -79 61h-126zM294 297c0 65 -9 104 -61 104c-51 0 -60 -39 -60 -104c0 -64 9 -103 60 -103c52 0 61 39 61 103zM252 571c59 0 96 31 102 88h38c1 -8 2 -15 2 -24c0 -81 -55 -144 -142 -144c-88 0 -142 63 -142 144c0 9 0 16 1 24h39c5 -57 42 -88 102 -88z" />
    <glyph glyph-name="Gdotaccent" unicode="&#x120;" horiz-adv-x="613" 
d="M186 294c0 -186 55 -253 133 -253c37 0 65 6 95 25v162l-62 23l7 32h227l8 -32l-52 -23v-237h-30l-47 47c-43 -30 -90 -48 -154 -48c-145 0 -274 91 -274 305c0 209 128 303 296 303c40 0 87 -9 124 -19l61 19v-167l-21 -5l-46 55c-35 44 -67 70 -117 70
c-84 0 -148 -64 -148 -257zM247 705c0 46 35 72 76 72c43 0 77 -26 77 -72c0 -45 -34 -72 -77 -72c-41 0 -76 27 -76 72z" />
    <glyph glyph-name="gdotaccent" unicode="&#x121;" horiz-adv-x="488" 
d="M174 87h156c95 0 155 -46 155 -142c0 -122 -121 -167 -253 -167c-122 0 -212 28 -212 105c0 57 45 83 113 93v3c-57 7 -89 40 -89 92s39 83 94 94c-57 20 -93 60 -93 125c0 88 66 156 192 156c52 0 113 -10 160 -33c-4 6 -6 14 -6 24c0 32 24 52 55 52
c32 0 55 -22 55 -57c0 -38 -25 -59 -61 -59c-26 0 -50 10 -79 21v-10c35 -16 59 -50 59 -95c0 -96 -96 -139 -184 -139c-22 0 -42 2 -61 7c-21 -7 -37 -18 -37 -40c0 -20 12 -30 36 -30zM172 -32c-26 -14 -42 -36 -42 -68c0 -53 39 -78 108 -78c79 0 139 22 139 85
c0 38 -20 61 -79 61h-126zM294 297c0 65 -9 104 -61 104c-51 0 -60 -39 -60 -104c0 -64 9 -103 60 -103c52 0 61 39 61 103zM181 573c0 46 34 72 75 72c44 0 78 -26 78 -72c0 -45 -34 -72 -78 -72c-41 0 -75 27 -75 72z" />
    <glyph glyph-name="Gcommaaccent" unicode="&#x122;" horiz-adv-x="613" 
d="M186 294c0 -186 55 -253 133 -253c37 0 65 6 95 25v162l-62 23l7 32h227l8 -32l-52 -23v-237h-30l-47 47c-43 -30 -90 -48 -154 -48c-145 0 -274 91 -274 305c0 209 128 303 296 303c40 0 87 -9 124 -19l61 19v-167l-21 -5l-46 55c-35 44 -67 70 -117 70
c-84 0 -148 -64 -148 -257zM358 -142h-7c-5 -20 -26 -28 -38 -28c-39 0 -58 29 -58 61c0 42 32 68 71 68c55 0 88 -37 88 -90c0 -82 -69 -120 -152 -126l-9 20c70 22 105 47 105 95z" />
    <glyph glyph-name="gcommaaccent" unicode="&#x123;" horiz-adv-x="488" 
d="M174 87h156c95 0 155 -46 155 -142c0 -122 -121 -167 -253 -167c-122 0 -212 28 -212 105c0 57 45 83 113 93v3c-57 7 -89 40 -89 92s39 83 94 94c-57 20 -93 60 -93 125c0 88 66 156 192 156c52 0 113 -10 160 -33c-4 6 -6 14 -6 24c0 32 24 52 55 52
c32 0 55 -22 55 -57c0 -38 -25 -59 -61 -59c-26 0 -50 10 -79 21v-10c35 -16 59 -50 59 -95c0 -96 -96 -139 -184 -139c-22 0 -42 2 -61 7c-21 -7 -37 -18 -37 -40c0 -20 12 -30 36 -30zM172 -32c-26 -14 -42 -36 -42 -68c0 -53 39 -78 108 -78c79 0 139 22 139 85
c0 38 -20 61 -79 61h-126zM294 297c0 65 -9 104 -61 104c-51 0 -60 -39 -60 -104c0 -64 9 -103 60 -103c52 0 61 39 61 103zM228 587h7c5 20 26 27 38 27c39 0 58 -28 58 -61c0 -41 -31 -67 -71 -67c-55 0 -88 37 -88 90c0 82 69 120 153 125l8 -20
c-69 -21 -105 -47 -105 -94z" />
    <glyph glyph-name="Hcircumflex" unicode="&#x124;" horiz-adv-x="707" 
d="M415 588h250l7 -32l-64 -23v-478l64 -23l-7 -32h-250l-7 32l64 23v216h-237v-216l64 -23l-7 -32h-250l-7 32l64 23v478l-64 23l7 32h250l7 -32l-64 -23v-210h237v210l-64 23zM352 776h30l147 -148h-128l-67 70l-73 -70h-58z" />
    <glyph glyph-name="hcircumflex" unicode="&#x125;" horiz-adv-x="553" 
d="M354 46v221c0 58 -30 88 -71 88c-30 0 -57 -13 -80 -34v-273l59 -19l-13 -29h-218v28l41 18v528l-47 54v11l156 42h22v-319h4c34 56 87 84 147 84c65 0 131 -34 131 -151v-247l58 -19l-13 -29h-217v28zM132 861h29l148 -148h-128l-67 70l-74 -70h-57z" />
    <glyph glyph-name="Hbar" unicode="&#x126;" horiz-adv-x="710" 
d="M415 588h250l7 -32l-64 -23v-56h63v-51h-63v-371l64 -23l-7 -32h-250l-7 32l64 23v216h-237v-216l64 -23l-7 -32h-250l-7 32l64 23v371h-65v51h65v56l-64 23l7 32h250l7 -32l-64 -23v-56h237v56l-64 23zM235 323h237v103h-237v-103z" />
    <glyph glyph-name="hbar" unicode="&#x127;" horiz-adv-x="553" 
d="M354 46v221c0 58 -30 88 -71 88c-30 0 -57 -13 -80 -34v-273l59 -19l-13 -29h-218v28l41 18v464h-62v44h62v20l-47 54v11l156 42h22v-127h162v-44h-162v-148h4c34 56 87 84 147 84c65 0 131 -34 131 -151v-247l58 -19l-13 -29h-217v28z" />
    <glyph glyph-name="Itilde" unicode="&#x128;" horiz-adv-x="334" 
d="M183 644l-55 35c-12 7 -25 12 -35 12c-27 -1 -40 -23 -43 -62l-24 4c-7 16 -10 37 -10 53c1 50 37 87 83 87c21 0 40 -5 58 -16l54 -32c14 -8 26 -15 39 -15c21 0 34 12 40 57l25 -4c6 -18 9 -35 9 -51c0 -52 -35 -86 -82 -86c-18 0 -38 6 -59 18zM42 588h250l7 -32
l-64 -23v-478l64 -23l-7 -32h-250l-7 32l64 23v478l-64 23z" />
    <glyph glyph-name="itilde" unicode="&#x129;" horiz-adv-x="287" 
d="M157 513l-55 35c-12 8 -24 12 -35 12c-26 -1 -40 -23 -43 -62l-24 4c-7 16 -10 37 -10 53c1 50 37 88 83 88c21 0 40 -5 58 -16l54 -33c14 -8 26 -15 39 -15c21 0 35 13 40 58l26 -4c6 -19 8 -36 8 -52c0 -51 -35 -86 -82 -86c-18 0 -38 6 -59 18zM210 48l59 -19l-13 -29
h-218v28l41 20v274l-42 66v11l151 47h22v-398z" />
    <glyph glyph-name="Imacron" unicode="&#x12a;" horiz-adv-x="334" 
d="M295 647h-251l-2 68h255zM42 588h250l7 -32l-64 -23v-478l64 -23l-7 -32h-250l-7 32l64 23v478l-64 23z" />
    <glyph glyph-name="imacron" unicode="&#x12b;" horiz-adv-x="287" 
d="M264 509h-243l-2 68h247zM210 48l59 -19l-13 -29h-218v28l41 20v274l-42 66v11l151 47h22v-398z" />
    <glyph glyph-name="Ibreve" unicode="&#x12c;" horiz-adv-x="334" 
d="M167 703c55 0 82 24 94 68h42c-2 -88 -49 -146 -136 -146s-134 58 -136 146h42c13 -44 40 -68 94 -68zM42 588h250l7 -32l-64 -23v-478l64 -23l-7 -32h-250l-7 32l64 23v478l-64 23z" />
    <glyph glyph-name="Iogonek" unicode="&#x12e;" horiz-adv-x="334" 
d="M53 -117c0 57 37 89 93 113v4h-104l-7 32l64 23v478l-64 23l7 32h252l8 -32l-67 -23v-478l67 -23l-8 -32h-66c-47 -22 -73 -47 -73 -92c0 -34 21 -53 52 -53c26 0 43 6 67 31l15 -19c-20 -51 -60 -82 -125 -82c-57 0 -111 26 -111 98z" />
    <glyph glyph-name="iogonek" unicode="&#x12f;" horiz-adv-x="287" 
d="M35 -117c0 57 39 93 94 117h-91v28l41 18v274l-42 66v11l151 49h22v-398l59 -19l-13 -29h-46c-47 -22 -73 -47 -73 -92c0 -34 21 -53 52 -53c26 0 43 6 66 31l16 -19c-20 -51 -60 -82 -126 -82c-56 0 -110 26 -110 98zM63 579c0 46 35 82 81 82c45 0 81 -36 81 -82
c0 -45 -36 -80 -81 -80c-46 0 -81 35 -81 80z" />
    <glyph glyph-name="Idotaccent" unicode="&#x130;" horiz-adv-x="334" 
d="M42 588h250l7 -32l-64 -23v-478l64 -23l-7 -32h-250l-7 32l64 23v478l-64 23zM90 705c0 46 35 72 76 72c43 0 78 -26 78 -72c0 -45 -35 -72 -78 -72c-41 0 -76 27 -76 72z" />
    <glyph glyph-name="dotlessi" unicode="&#x131;" horiz-adv-x="287" 
d="M210 48l59 -19l-13 -29h-218v28l41 20v274l-42 66v11l151 47h22v-398z" />
    <glyph glyph-name="IJ" unicode="&#x132;" horiz-adv-x="638" 
d="M42 588h249l8 -32l-64 -23v-478l64 -23l-8 -32h-249l-7 32l64 23v478l-64 23zM414 -50v583l-65 23l8 32h249l8 -32l-65 -23v-532c0 -129 -81 -191 -212 -191c-62 0 -106 22 -106 74c0 48 32 68 66 68c44 0 64 -28 64 -66c0 -19 -7 -33 -14 -41c47 1 67 30 67 105z" />
    <glyph glyph-name="ij" unicode="&#x133;" horiz-adv-x="541" 
d="M63 579c0 46 35 82 81 82c45 0 81 -36 81 -82c0 -45 -36 -80 -81 -80c-46 0 -81 35 -81 80zM210 48l59 -19l-13 -29h-218v28l41 18v274l-42 66v11l151 49h22v-398zM335 579c0 46 36 82 81 82c46 0 81 -36 81 -82c0 -45 -35 -80 -81 -80c-45 0 -81 35 -81 80zM482 448
v-498c0 -104 -68 -169 -202 -169c-60 0 -100 21 -100 72c0 39 28 62 65 62c41 0 57 -29 57 -62c0 -17 -5 -31 -11 -40c34 0 60 33 60 109v401l-48 66v11l157 48h22z" />
    <glyph glyph-name="Jcircumflex" unicode="&#x134;" horiz-adv-x="305" 
d="M141 768h30l131 -148h-128l-51 62l-58 -62h-57zM83 -50v583l-64 23l7 32h250l7 -32l-64 -23v-532c0 -129 -82 -191 -213 -191c-62 0 -106 22 -106 74c0 48 33 68 67 68c43 0 64 -28 64 -66c0 -19 -8 -33 -15 -41c48 1 67 30 67 105z" />
    <glyph glyph-name="jcircumflex" unicode="&#x135;" horiz-adv-x="259" 
d="M201 448v-498c0 -92 -69 -169 -202 -169c-61 0 -101 21 -101 72c0 39 28 62 65 62c41 0 58 -29 58 -62c0 -17 -6 -31 -12 -40c34 0 61 33 61 109v401l-49 66v11l158 48h22zM119 667h29l147 -185h-120l-71 98l-77 -98h-57z" />
    <glyph glyph-name="Kcommaaccent" unicode="&#x136;" horiz-adv-x="638" 
d="M235 321l55 8l164 203l-61 24l5 32h199l6 -32l-68 -18l-150 -181l184 -304l75 -20l-7 -33h-199l-157 277h-46v-222l64 -23l-7 -32h-250l-7 32l64 23v478l-64 23l7 32h250l7 -32l-64 -23v-212zM353 -142h-7c-5 -20 -26 -28 -38 -28c-39 0 -58 29 -58 61c0 42 31 68 71 68
c55 0 88 -37 88 -90c0 -82 -69 -120 -153 -126l-8 20c69 22 105 47 105 95z" />
    <glyph glyph-name="kcommaaccent" unicode="&#x137;" horiz-adv-x="534" 
d="M203 48l60 -19l-13 -29h-219v28l41 18v528l-47 54v11l156 42h22v-436l41 8l129 125l-63 24l7 34h194l7 -32l-58 -18l-117 -113l138 -224l62 -21l-12 -28h-171l-119 202h-38v-154zM290 -142h-8c-5 -20 -25 -28 -37 -28c-39 0 -59 29 -59 61c0 42 32 68 72 68
c55 0 88 -37 88 -90c0 -82 -69 -120 -153 -126l-8 20c69 22 105 47 105 95z" />
    <glyph glyph-name="kgreenlandic" unicode="&#x138;" horiz-adv-x="540" 
d="M210 48l59 -19l-13 -29h-218v28l41 18v274l-42 66v11l151 49h22v-201l41 8l129 125l-63 24l6 34h195l7 -32l-58 -18l-117 -113l138 -224l61 -21l-11 -28h-171l-119 202h-38v-154z" />
    <glyph glyph-name="Lacute" unicode="&#x139;" horiz-adv-x="511" 
d="M300 556l-65 -23v-464l33 -17h112l97 155l26 -6l-23 -201h-438l-7 32l64 23v478l-64 23l7 32h250zM272 690l-139 -65l-14 21l94 122c25 33 65 38 90 6c25 -33 5 -69 -31 -84z" />
    <glyph glyph-name="lacute" unicode="&#x13a;" horiz-adv-x="278" 
d="M203 48l60 -19l-13 -29h-219v28l41 18v528l-47 54v11l156 42h22v-633zM202 756l-138 -65l-15 22l94 122c26 33 65 38 90 5c26 -33 6 -68 -31 -84z" />
    <glyph glyph-name="Lcommaaccent" unicode="&#x13b;" horiz-adv-x="511" 
d="M300 556l-65 -23v-464l33 -17h112l97 155l26 -6l-23 -201h-438l-7 32l64 23v478l-64 23l7 32h250zM298 -142h-7c-5 -20 -26 -28 -38 -28c-39 0 -58 29 -58 61c0 42 31 68 71 68c55 0 88 -37 88 -90c0 -82 -69 -120 -153 -126l-8 20c69 22 105 47 105 95z" />
    <glyph glyph-name="lcommaaccent" unicode="&#x13c;" horiz-adv-x="278" 
d="M203 48l60 -19l-13 -29h-219v28l41 18v528l-47 54v11l156 42h22v-633zM162 -142h-7c-5 -20 -26 -28 -38 -28c-39 0 -58 29 -58 61c0 42 31 68 71 68c55 0 88 -37 88 -90c0 -82 -69 -120 -153 -126l-8 20c69 22 105 47 105 95z" />
    <glyph glyph-name="Lcaron" unicode="&#x13d;" horiz-adv-x="511" 
d="M300 556l-65 -23v-464l33 -17h112l97 155l26 -6l-23 -201h-438l-7 32l64 23v478l-64 23l7 32h250zM359 448l10 147c2 34 15 55 45 53c29 0 61 -19 58 -52c-2 -8 -5 -18 -10 -27l-69 -128z" />
    <glyph glyph-name="lcaron" unicode="&#x13e;" horiz-adv-x="277" 
d="M203 48l60 -19l-13 -29h-219v28l41 18v528l-47 54v11l156 42h22v-633zM262 474l9 147c3 33 15 54 46 52c29 0 61 -19 57 -51c-1 -9 -4 -19 -10 -28l-69 -127z" />
    <glyph glyph-name="Ldot" unicode="&#x13f;" horiz-adv-x="511" 
d="M300 556l-65 -23v-464l33 -17h112l97 155l26 -6l-23 -201h-438l-7 32l64 23v478l-64 23l7 32h250zM356 334c0 45 36 81 80 81c43 0 80 -36 80 -81s-37 -79 -80 -79c-44 0 -80 34 -80 79z" />
    <glyph glyph-name="ldot" unicode="&#x140;" horiz-adv-x="427" 
d="M203 48l60 -19l-13 -29h-219v28l41 18v528l-47 54v11l156 42h22v-633zM252 314c0 45 36 80 79 80c44 0 81 -35 81 -80s-37 -79 -81 -79c-43 0 -79 34 -79 79z" />
    <glyph glyph-name="Lslash" unicode="&#x141;" horiz-adv-x="511" 
d="M309 556l-75 -23v-210l135 71v-58l-135 -69v-198l33 -17h113l97 155l26 -6l-23 -201h-438l-7 32l63 23v155l-63 -32v55l63 32v268l-63 23l7 32h259z" />
    <glyph glyph-name="lslash" unicode="&#x142;" horiz-adv-x="277" 
d="M8 270l64 51v253l-47 54v11l156 42h22v-282l69 55v-57l-69 -54v-295l59 -19l-13 -29h-218v28l41 18v220l-64 -51v55z" />
    <glyph glyph-name="Nacute" unicode="&#x143;" horiz-adv-x="651" 
d="M166 319v-264l76 -23l-7 -32h-193l-7 32l64 23v478l-64 23l7 32h190l208 -293c41 -57 65 -118 65 -118h4s-5 77 -5 150v206l-76 23l7 32h188l8 -32l-65 -23v-533h-77l-257 353c-43 57 -68 118 -68 118h-4s6 -77 6 -152zM414 690l-139 -65l-14 21l94 122c25 33 65 38 90 6
c25 -33 5 -69 -31 -84z" />
    <glyph glyph-name="nacute" unicode="&#x144;" horiz-adv-x="561" 
d="M492 48l59 -19l-13 -29h-219v28l41 19v218c0 65 -34 87 -71 87c-34 0 -61 -17 -79 -34v-270l59 -19l-13 -29h-218v28l41 18v274l-42 66v11l151 49h21l-3 -87h4c36 57 86 87 153 87c73 0 129 -51 129 -153v-245zM370 571l-121 -85l-19 17l55 133c16 39 58 53 91 26
c35 -28 28 -70 -6 -91z" />
    <glyph glyph-name="Ncommaaccent" unicode="&#x145;" horiz-adv-x="651" 
d="M166 319v-264l76 -23l-7 -32h-193l-7 32l64 23v478l-64 23l7 32h190l208 -293c41 -57 65 -118 65 -118h4s-5 77 -5 150v206l-76 23l7 32h188l8 -32l-65 -23v-533h-77l-257 353c-43 57 -68 118 -68 118h-4s6 -77 6 -152zM357 -142h-8c-5 -20 -25 -28 -37 -28
c-39 0 -59 29 -59 61c0 42 32 68 72 68c55 0 88 -37 88 -90c0 -82 -69 -120 -153 -126l-8 20c69 22 105 47 105 95z" />
    <glyph glyph-name="ncommaaccent" unicode="&#x146;" horiz-adv-x="561" 
d="M492 48l59 -19l-13 -29h-219v28l41 19v218c0 65 -34 87 -71 87c-34 0 -61 -17 -79 -34v-270l59 -19l-13 -29h-218v28l41 18v274l-42 66v11l151 49h21l-3 -87h4c36 57 86 87 153 87c73 0 129 -51 129 -153v-245zM307 -142h-7c-5 -20 -25 -28 -37 -28c-39 0 -59 29 -59 61
c0 42 32 68 72 68c55 0 87 -37 87 -90c0 -82 -68 -120 -152 -126l-9 20c70 22 105 47 105 95z" />
    <glyph glyph-name="Ncaron" unicode="&#x147;" horiz-adv-x="651" 
d="M166 319v-264l76 -23l-7 -32h-193l-7 32l64 23v478l-64 23l7 32h190l208 -293c41 -57 65 -118 65 -118h4s-5 77 -5 150v206l-76 23l7 32h188l8 -32l-65 -23v-533h-77l-257 353c-43 57 -68 118 -68 118h-4s6 -77 6 -152zM343 620h-30l-147 148h130l61 -71l76 71h59z" />
    <glyph glyph-name="ncaron" unicode="&#x148;" horiz-adv-x="561" 
d="M492 48l59 -19l-13 -29h-219v28l41 19v218c0 65 -34 87 -71 87c-34 0 -61 -17 -79 -34v-270l59 -19l-13 -29h-218v28l41 18v274l-42 66v11l151 49h21l-3 -87h4c36 57 86 87 153 87c73 0 129 -51 129 -153v-245zM298 482h-30l-147 185h121l70 -98l77 98h58z" />
    <glyph glyph-name="Eng" unicode="&#x14a;" horiz-adv-x="653" 
d="M505 -20l-273 373c-43 57 -68 118 -68 118h-4s6 -77 6 -152v-264l76 -23l-7 -32h-193l-7 32l64 23v478l-64 23l7 32h190l208 -293c41 -57 65 -118 65 -118h4s-5 77 -5 150v206l-76 23l7 32h188l8 -32l-65 -23v-533c0 -118 -38 -191 -147 -191c-59 0 -97 23 -97 73
c0 45 31 66 63 66c38 0 59 -25 59 -58c0 -13 -4 -26 -11 -37c38 1 72 34 72 127z" />
    <glyph glyph-name="eng" unicode="&#x14b;" horiz-adv-x="536" 
d="M360 -78v343c0 65 -34 87 -71 87c-34 0 -61 -17 -79 -34v-270l59 -19l-13 -29h-218v28l41 18v274l-42 66v11l151 49h21l-3 -87h4c36 57 86 87 153 87c73 0 129 -51 129 -153v-343c0 -92 -69 -169 -202 -169c-61 0 -101 21 -101 72c0 39 28 62 65 62c41 0 58 -29 58 -62
c0 -17 -6 -31 -12 -40c34 0 60 33 60 109z" />
    <glyph glyph-name="Omacron" unicode="&#x14c;" horiz-adv-x="637" 
d="M319 38c90 0 131 72 131 256c0 185 -41 256 -131 256c-91 0 -132 -71 -132 -256c0 -184 41 -256 132 -256zM319 -10c-180 0 -282 116 -282 304s102 304 282 304c179 0 281 -116 281 -304s-102 -304 -281 -304zM476 654h-315v67h315v-67z" />
    <glyph glyph-name="omacron" unicode="&#x14d;" 
d="M482 218c0 -151 -89 -228 -224 -228s-224 77 -224 228s89 228 224 228s224 -77 224 -228zM173 218c0 -116 18 -182 85 -182s85 66 85 182s-18 182 -85 182s-85 -66 -85 -182zM398 509h-285v68h285v-68z" />
    <glyph glyph-name="Obreve" unicode="&#x14e;" horiz-adv-x="637" 
d="M319 38c90 0 131 72 131 256c0 185 -41 256 -131 256c-91 0 -132 -71 -132 -256c0 -184 41 -256 132 -256zM319 -10c-180 0 -282 116 -282 304s102 304 282 304c179 0 281 -116 281 -304s-102 -304 -281 -304zM319 704c56 0 84 23 97 67h43c-2 -87 -50 -145 -140 -145
s-139 58 -141 145h43c13 -44 41 -67 98 -67z" />
    <glyph glyph-name="obreve" unicode="&#x14f;" 
d="M482 218c0 -151 -89 -228 -224 -228s-224 77 -224 228s89 228 224 228s224 -77 224 -228zM173 218c0 -116 18 -182 85 -182s85 66 85 182s-18 182 -85 182s-85 -66 -85 -182zM260 571c60 0 96 31 102 89h38c2 -8 2 -15 2 -24c0 -81 -54 -144 -142 -144s-142 63 -142 144
c0 9 1 16 2 24h38c6 -58 43 -89 102 -89z" />
    <glyph glyph-name="Ohungarumlaut" unicode="&#x150;" horiz-adv-x="637" 
d="M319 38c90 0 131 72 131 256c0 185 -41 256 -131 256c-91 0 -132 -71 -132 -256c0 -184 41 -256 132 -256zM319 -10c-180 0 -282 116 -282 304s102 304 282 304c179 0 281 -116 281 -304s-102 -304 -281 -304zM482 693l-129 -72l-21 27l89 116c23 32 52 37 78 5
c30 -34 17 -59 -17 -76zM321 703l-124 -82l-22 25l79 123c19 33 48 42 78 12c32 -31 21 -56 -11 -78z" />
    <glyph glyph-name="ohungarumlaut" unicode="&#x151;" 
d="M482 218c0 -151 -89 -228 -224 -228s-224 77 -224 228s89 228 224 228s224 -77 224 -228zM173 218c0 -116 18 -182 85 -182s85 66 85 182s-18 182 -85 182s-85 -66 -85 -182zM424 578l-113 -95l-25 23l66 131c16 35 44 45 76 19c35 -28 27 -54 -4 -78zM264 578l-113 -95
l-25 23l66 131c16 35 44 45 76 19c35 -28 27 -54 -4 -78z" />
    <glyph glyph-name="Racute" unicode="&#x154;" horiz-adv-x="613" 
d="M235 539v-232h53c65 0 104 30 104 118c0 79 -38 114 -104 114h-53zM549 53l70 -23l-7 -30h-193l-101 212c-15 32 -34 48 -83 49v-206l64 -23l-7 -32h-250l-7 32l64 23v478l-64 23l7 32h292c102 0 202 -38 202 -159c0 -100 -81 -147 -159 -154v-5c42 -5 76 -29 96 -68z
M347 690l-139 -65l-14 21l94 122c25 33 65 38 90 6c25 -33 5 -69 -31 -84z" />
    <glyph glyph-name="racute" unicode="&#x155;" horiz-adv-x="420" 
d="M210 50l85 -19l-13 -31h-244v28l41 18v273l-42 66v11l151 50h21l-3 -102h4c20 51 59 102 125 102c53 0 85 -31 85 -80c0 -45 -31 -73 -69 -73c-43 0 -69 29 -69 70c-25 -11 -49 -34 -72 -64v-249zM286 571l-121 -85l-19 17l55 133c17 39 59 53 91 26
c35 -28 28 -70 -6 -91z" />
    <glyph glyph-name="Rcommaaccent" unicode="&#x156;" horiz-adv-x="613" 
d="M235 539v-232h53c65 0 104 30 104 118c0 79 -38 114 -104 114h-53zM549 53l70 -23l-7 -30h-193l-101 212c-15 32 -34 48 -83 49v-206l64 -23l-7 -32h-250l-7 32l64 23v478l-64 23l7 32h292c102 0 202 -38 202 -159c0 -100 -81 -147 -159 -154v-5c42 -5 76 -29 96 -68z
M323 -142h-7c-5 -20 -26 -28 -38 -28c-39 0 -58 29 -58 61c0 42 31 68 71 68c55 0 88 -37 88 -90c0 -82 -69 -120 -153 -126l-8 20c69 22 105 47 105 95z" />
    <glyph glyph-name="rcommaaccent" unicode="&#x157;" horiz-adv-x="420" 
d="M210 50l85 -19l-13 -31h-244v28l41 18v273l-42 66v11l151 50h21l-3 -102h4c20 51 59 102 125 102c53 0 85 -31 85 -80c0 -45 -31 -73 -69 -73c-43 0 -69 29 -69 70c-25 -11 -49 -34 -72 -64v-249zM177 -142h-8c-5 -20 -25 -28 -37 -28c-39 0 -59 29 -59 61
c0 42 32 68 72 68c55 0 88 -37 88 -90c0 -82 -69 -120 -153 -126l-8 20c69 22 105 47 105 95z" />
    <glyph glyph-name="Rcaron" unicode="&#x158;" horiz-adv-x="613" 
d="M235 539v-232h53c65 0 104 30 104 118c0 79 -38 114 -104 114h-53zM549 53l70 -23l-7 -30h-193l-101 212c-15 32 -34 48 -83 49v-206l64 -23l-7 -32h-250l-7 32l64 23v478l-64 23l7 32h292c102 0 202 -38 202 -159c0 -100 -81 -147 -159 -154v-5c42 -5 76 -29 96 -68z
M297 620h-30l-147 148h130l61 -71l76 71h59z" />
    <glyph glyph-name="rcaron" unicode="&#x159;" horiz-adv-x="420" 
d="M210 50l85 -19l-13 -31h-244v28l41 18v273l-42 66v11l151 50h21l-3 -102h4c20 51 59 102 125 102c53 0 85 -31 85 -80c0 -45 -31 -73 -69 -73c-43 0 -69 29 -69 70c-25 -11 -49 -34 -72 -64v-249zM235 482h-29l-148 185h121l71 -98l76 98h58z" />
    <glyph glyph-name="Sacute" unicode="&#x15a;" horiz-adv-x="485" 
d="M246 37c53 0 85 30 85 82c0 54 -28 80 -94 106l-72 30c-74 30 -117 80 -117 172c0 119 92 171 189 171c53 0 96 -12 127 -22l49 22l9 -166l-27 -6l-48 63c-30 42 -61 64 -113 64c-47 0 -79 -30 -79 -76s21 -73 81 -97l75 -30c94 -37 135 -91 135 -183
c0 -120 -91 -177 -198 -177c-72 0 -110 18 -138 32l-54 -32l-17 190l31 6l49 -71c33 -51 70 -78 127 -78zM307 690l-138 -65l-15 21l94 122c25 33 65 38 90 6c26 -33 6 -69 -31 -84z" />
    <glyph glyph-name="sacute" unicode="&#x15b;" horiz-adv-x="418" 
d="M37 137l27 6c53 -88 90 -110 146 -110c40 0 69 13 69 53c0 32 -19 50 -64 64l-65 21c-69 21 -107 61 -107 135c0 97 67 140 157 140c34 0 72 -8 95 -20l55 19l3 -131l-24 -6c-40 64 -78 93 -128 93c-36 0 -58 -19 -58 -48c0 -28 15 -44 50 -56l72 -24
c82 -27 119 -69 119 -145c0 -97 -68 -138 -177 -138c-38 0 -78 10 -107 23l-52 -23zM311 571l-122 -85l-18 17l55 133c16 39 58 53 90 26c35 -28 28 -70 -5 -91z" />
    <glyph glyph-name="Scircumflex" unicode="&#x15c;" horiz-adv-x="485" 
d="M246 37c53 0 85 30 85 82c0 54 -28 80 -94 106l-72 30c-74 30 -117 80 -117 172c0 119 92 171 189 171c53 0 96 -12 127 -22l49 22l9 -166l-27 -6l-48 63c-30 42 -61 64 -113 64c-47 0 -79 -30 -79 -76s21 -73 81 -97l75 -30c94 -37 135 -91 135 -183
c0 -120 -91 -177 -198 -177c-72 0 -110 18 -138 32l-54 -32l-17 190l31 6l49 -71c33 -51 70 -78 127 -78zM231 776h29l148 -148h-128l-67 70l-74 -70h-57z" />
    <glyph glyph-name="scircumflex" unicode="&#x15d;" horiz-adv-x="418" 
d="M37 137l27 6c53 -88 90 -110 146 -110c40 0 69 13 69 53c0 32 -19 50 -64 64l-65 21c-69 21 -107 61 -107 135c0 97 67 140 157 140c34 0 72 -8 95 -20l55 19l3 -131l-24 -6c-40 64 -78 93 -128 93c-36 0 -58 -19 -58 -48c0 -28 15 -44 50 -56l72 -24
c82 -27 119 -69 119 -145c0 -97 -68 -138 -177 -138c-38 0 -78 10 -107 23l-52 -23zM198 667h30l147 -185h-120l-71 98l-77 -98h-57z" />
    <glyph glyph-name="Scedilla" unicode="&#x15e;" horiz-adv-x="485" 
d="M125 -177l18 24c12 -11 31 -22 57 -22c25 0 42 11 42 35c0 38 -32 46 -69 57l29 76c-44 5 -71 18 -92 29l-54 -32l-17 190l31 6l49 -71c33 -51 70 -78 127 -78c53 0 85 30 85 82c0 54 -28 80 -94 106l-72 30c-74 30 -117 80 -117 172c0 119 92 171 189 171
c53 0 96 -12 127 -22l49 22l9 -166l-27 -6l-48 63c-30 42 -61 64 -113 64c-47 0 -79 -30 -79 -76s21 -73 81 -97l75 -30c94 -37 135 -91 135 -183c0 -120 -91 -177 -198 -177h-7l-13 -31c43 -5 107 -28 107 -89c0 -62 -49 -88 -117 -88c-44 0 -75 16 -93 41z" />
    <glyph glyph-name="scedilla" unicode="&#x15f;" horiz-adv-x="418" 
d="M100 -177l18 24c12 -11 31 -22 57 -22c25 0 42 11 42 35c0 38 -32 46 -69 57l29 75c-28 4 -56 11 -77 21l-52 -23l-11 147l27 6c53 -88 90 -110 146 -110c40 0 69 13 69 53c0 32 -19 50 -64 64l-65 21c-69 21 -107 61 -107 135c0 97 67 140 157 140c34 0 72 -8 95 -20
l55 19l3 -131l-24 -6c-40 64 -78 93 -128 93c-36 0 -58 -19 -58 -48c0 -28 15 -44 50 -56l72 -24c82 -27 119 -69 119 -145c0 -95 -65 -136 -169 -138l-13 -31c44 -5 108 -28 108 -89c0 -62 -49 -88 -117 -88c-44 0 -75 16 -93 41z" />
    <glyph glyph-name="Tcommaaccent" unicode="&#x162;" horiz-adv-x="554" 
d="M110 35l99 24v479h-92l-82 -112l-21 5v157h526v-157l-21 -5l-82 112h-92v-479l99 -24l-8 -35h-318zM299 -142h-7c-5 -20 -26 -28 -37 -28c-39 0 -59 29 -59 61c0 42 32 68 71 68c55 0 88 -37 88 -90c0 -82 -68 -120 -152 -126l-9 20c70 22 105 47 105 95z" />
    <glyph glyph-name="tcommaaccent" unicode="&#x163;" horiz-adv-x="343" 
d="M9 384v33l160 137h30v-118h132l-7 -52h-124v-236c0 -58 22 -80 62 -80c26 0 46 6 74 21l10 -24c-31 -47 -81 -75 -145 -75c-78 0 -132 39 -132 141v253h-60zM216 -142h-7c-5 -20 -26 -28 -37 -28c-39 0 -59 29 -59 61c0 42 32 68 71 68c55 0 88 -37 88 -90
c0 -82 -68 -120 -152 -126l-9 20c70 22 105 47 105 95z" />
    <glyph glyph-name="Tcaron" unicode="&#x164;" horiz-adv-x="554" 
d="M110 35l99 24v479h-92l-82 -112l-21 5v157h526v-157l-21 -5l-82 112h-92v-479l99 -24l-8 -35h-318zM295 620h-29l-147 148h129l62 -71l75 71h59z" />
    <glyph glyph-name="tcaron" unicode="&#x165;" horiz-adv-x="343" 
d="M9 384v33l160 137h30v-118h132l-7 -52h-124v-236c0 -58 22 -80 62 -80c26 0 46 6 74 21l10 -24c-31 -47 -81 -75 -145 -75c-78 0 -132 39 -132 141v253h-60zM254 487l10 147c2 33 14 54 45 52c29 0 61 -19 57 -51c-1 -9 -4 -19 -9 -28l-70 -127z" />
    <glyph glyph-name="Tbar" unicode="&#x166;" horiz-adv-x="554" 
d="M119 271v52h90v213h-92l-82 -110l-21 5v157h526v-157l-21 -5l-82 110h-92v-213h91v-52h-91v-212l99 -24l-8 -35h-318l-8 35l99 24v212h-90z" />
    <glyph glyph-name="tbar" unicode="&#x167;" horiz-adv-x="343" 
d="M9 384v33l160 137h30v-118h132l-7 -52h-124v-100h124l-8 -50h-116v-86c0 -58 22 -80 62 -80c26 0 46 6 74 21l10 -24c-31 -47 -81 -75 -145 -75c-78 0 -132 39 -132 141v103h-60v50h60v100h-60z" />
    <glyph glyph-name="Utilde" unicode="&#x168;" horiz-adv-x="631" 
d="M550 533v-325c0 -139 -90 -218 -229 -218c-138 0 -240 59 -240 214v329l-64 23l7 32h249l8 -32l-64 -23v-327c0 -106 48 -150 129 -150c82 0 137 48 137 153v324l-76 23l8 32h191l8 -32zM337 653l-62 25c-14 6 -26 9 -38 9c-28 -1 -48 -19 -51 -58l-25 4
c-6 15 -10 29 -10 45c0 53 40 91 99 91c18 0 38 -4 58 -12l61 -23c16 -6 32 -11 45 -11c24 0 41 16 45 54l26 -4c6 -18 10 -34 10 -50c0 -51 -35 -84 -89 -85c-20 0 -44 5 -69 15z" />
    <glyph glyph-name="utilde" unicode="&#x169;" horiz-adv-x="528" 
d="M330 320l-42 66v11l151 49h22v-359l49 -46v-17l-165 -31l-11 69h-4c-31 -50 -81 -72 -134 -72c-72 0 -139 38 -139 152v178l-42 66v11l151 49h22v-291c0 -61 24 -86 64 -86c28 0 50 9 78 30v221zM278 510l-59 25c-14 6 -26 9 -38 9c-27 -1 -46 -19 -49 -58l-24 4
c-5 15 -9 29 -9 45c0 53 38 92 95 92c17 0 36 -4 55 -12l59 -24c16 -6 31 -11 44 -11c23 0 39 16 43 54l25 -4c5 -17 9 -33 9 -50c0 -51 -34 -84 -85 -84c-20 0 -42 4 -66 14z" />
    <glyph glyph-name="Umacron" unicode="&#x16a;" horiz-adv-x="631" 
d="M550 533v-325c0 -139 -90 -218 -229 -218c-138 0 -240 59 -240 214v329l-64 23l7 32h249l8 -32l-64 -23v-327c0 -106 48 -150 129 -150c82 0 137 48 137 153v324l-76 23l8 32h191l8 -32zM479 654h-315v67h315v-67z" />
    <glyph glyph-name="umacron" unicode="&#x16b;" horiz-adv-x="528" 
d="M330 320l-42 66v11l151 49h22v-359l49 -46v-17l-165 -31l-11 69h-4c-31 -50 -81 -72 -134 -72c-72 0 -139 38 -139 152v178l-42 66v11l151 49h22v-291c0 -61 24 -86 64 -86c28 0 50 9 78 30v221zM396 509h-285v68h285v-68z" />
    <glyph glyph-name="Ubreve" unicode="&#x16c;" horiz-adv-x="631" 
d="M550 533v-325c0 -139 -90 -218 -229 -218c-138 0 -240 59 -240 214v329l-64 23l7 32h249l8 -32l-64 -23v-327c0 -106 48 -150 129 -150c82 0 137 48 137 153v324l-76 23l8 32h191l8 -32zM322 704c57 0 85 23 98 67h43c-3 -87 -51 -145 -141 -145s-138 58 -140 145h42
c14 -44 42 -67 98 -67z" />
    <glyph glyph-name="ubreve" unicode="&#x16d;" horiz-adv-x="528" 
d="M330 320l-42 66v11l151 49h22v-359l49 -46v-17l-165 -31l-11 69h-4c-31 -50 -81 -72 -134 -72c-72 0 -139 38 -139 152v178l-42 66v11l151 49h22v-291c0 -61 24 -86 64 -86c28 0 50 9 78 30v221zM262 571c60 0 96 31 102 89h38c2 -8 2 -15 2 -24
c0 -81 -54 -144 -142 -144s-142 63 -142 144c0 9 0 16 2 24h38c6 -58 42 -89 102 -89z" />
    <glyph glyph-name="Uring" unicode="&#x16e;" horiz-adv-x="631" 
d="M550 533v-325c0 -139 -90 -218 -229 -218c-138 0 -240 59 -240 214v329l-64 23l7 32h249l8 -32l-64 -23v-327c0 -106 48 -150 129 -150c82 0 137 48 137 153v324l-76 23l8 32h191l8 -32zM218 721c0 55 43 101 108 101c64 0 109 -46 109 -101c0 -59 -45 -105 -109 -105
c-68 0 -108 46 -108 105zM269 719c0 -31 20 -55 57 -55c34 0 55 24 55 55c0 32 -21 57 -55 57c-35 0 -57 -25 -57 -57z" />
    <glyph glyph-name="uring" unicode="&#x16f;" horiz-adv-x="528" 
d="M330 320l-42 66v11l151 49h22v-359l49 -46v-17l-165 -31l-11 69h-4c-31 -50 -81 -72 -134 -72c-72 0 -139 38 -139 152v178l-42 66v11l151 49h22v-291c0 -61 24 -86 64 -86c28 0 50 9 78 30v221zM150 592c0 56 43 102 108 102c64 0 109 -46 109 -102
c0 -58 -45 -104 -109 -104c-68 0 -108 46 -108 104zM201 590c0 -30 20 -54 57 -54c34 0 55 24 55 54c0 33 -21 57 -55 57c-35 0 -57 -24 -57 -57z" />
    <glyph glyph-name="Uhungarumlaut" unicode="&#x170;" horiz-adv-x="631" 
d="M550 533v-325c0 -139 -90 -218 -229 -218c-138 0 -240 59 -240 214v329l-64 23l7 32h249l8 -32l-64 -23v-327c0 -106 48 -150 129 -150c82 0 137 48 137 153v324l-76 23l8 32h191l8 -32zM489 693l-129 -72l-21 27l89 116c23 32 52 37 79 5c29 -34 16 -59 -18 -76z
M328 703l-123 -82l-23 25l79 123c20 33 48 42 78 12c32 -31 21 -56 -11 -78z" />
    <glyph glyph-name="uhungarumlaut" unicode="&#x171;" horiz-adv-x="528" 
d="M330 320l-42 66v11l151 49h22v-359l49 -46v-17l-165 -31l-11 69h-4c-31 -50 -81 -72 -134 -72c-72 0 -139 38 -139 152v178l-42 66v11l151 49h22v-291c0 -61 24 -86 64 -86c28 0 50 9 78 30v221zM426 578l-113 -95l-25 23l66 131c16 35 43 45 76 19c35 -28 27 -54 -4 -78
zM266 578l-113 -95l-25 23l66 131c16 35 43 45 76 19c35 -28 27 -54 -4 -78z" />
    <glyph glyph-name="Uogonek" unicode="&#x172;" horiz-adv-x="631" 
d="M207 -117c0 51 32 85 77 109c-119 10 -203 71 -203 212v329l-64 23l7 32h249l8 -32l-64 -23v-327c0 -106 48 -150 129 -150c82 0 137 48 137 153v324l-76 23l8 32h191l8 -32l-64 -23v-325c0 -122 -70 -198 -180 -214c-39 -21 -61 -45 -61 -86c0 -34 21 -53 52 -53
c25 0 42 6 66 31l15 -19c-19 -51 -59 -82 -125 -82c-56 0 -110 26 -110 98z" />
    <glyph glyph-name="uogonek" unicode="&#x173;" horiz-adv-x="528" 
d="M229 -117c0 66 45 103 113 128l-8 51h-4c-31 -50 -81 -72 -134 -72c-72 0 -139 38 -139 152v178l-42 66v11l151 49h22v-291c0 -61 24 -86 64 -86c28 0 50 9 78 30v221l-42 66v11l151 49h22v-359l49 -46v-17c-151 -23 -179 -70 -179 -116c0 -34 20 -53 52 -53
c25 0 42 6 66 31l15 -19c-19 -51 -59 -82 -125 -82c-56 0 -110 26 -110 98z" />
    <glyph glyph-name="Wcircumflex" unicode="&#x174;" horiz-adv-x="833" 
d="M520 0l-78 293c-19 70 -23 139 -23 139h-4s-8 -70 -26 -139l-76 -293h-124l-133 530l-49 28l7 30h248l6 -36l-68 -16l64 -291c15 -68 19 -131 19 -131h4s9 58 27 132l84 342h103l92 -341c19 -72 21 -133 21 -133h4s5 59 22 133l67 284l-75 22l5 35h182l7 -30l-49 -27
l-133 -531h-124zM432 776h30l147 -148h-128l-67 70l-74 -70h-57z" />
    <glyph glyph-name="wcircumflex" unicode="&#x175;" horiz-adv-x="719" 
d="M4 436h233l6 -34l-61 -16l49 -177c16 -56 20 -99 20 -99h4s5 43 22 100l68 226h98l66 -227c16 -55 23 -99 23 -99h4s5 44 22 100l52 173l-63 19l5 34h165l5 -33l-45 -15l-124 -388h-109l-61 196c-15 46 -22 100 -22 100h-4s-9 -56 -23 -100l-59 -196h-113l-120 376
l-45 29zM377 667h30l147 -185h-120l-71 98l-77 -98h-57z" />
    <glyph glyph-name="Ycircumflex" unicode="&#x176;" horiz-adv-x="572" 
d="M196 536l89 -171c31 -59 32 -90 32 -90h4s6 29 39 89l92 168l-76 21l5 35h182l7 -30l-48 -27l-168 -307v-165l99 -24l-8 -35h-318l-8 35l99 24v165l-168 307l-48 27l7 30h248l6 -36zM288 776h30l147 -148h-128l-67 70l-73 -70h-57z" />
    <glyph glyph-name="ycircumflex" unicode="&#x177;" horiz-adv-x="486" 
d="M218 -40l-173 415l-45 30l7 31h232l6 -35l-64 -15l65 -165c28 -72 31 -118 31 -118h4s11 51 34 119l55 161l-63 19l5 34h168l6 -33l-46 -16l-147 -394c-52 -140 -107 -211 -208 -211c-63 0 -91 37 -91 81c0 42 25 69 67 69c43 0 62 -30 62 -62c0 -21 -9 -34 -16 -42
c43 4 89 64 111 132zM240 667h30l147 -185h-120l-71 98l-77 -98h-57z" />
    <glyph glyph-name="Zacute" unicode="&#x179;" horiz-adv-x="529" 
d="M22 12l257 452c29 53 50 72 50 72v4s-17 -3 -71 -3h-97l-93 -113l-22 4l14 160h425l5 -14l-255 -449c-32 -54 -53 -73 -53 -73v-4s19 4 74 4h125l99 131l24 -7l-31 -176h-445zM345 690l-138 -65l-15 21l94 122c25 33 65 38 90 6c26 -33 6 -69 -31 -84z" />
    <glyph glyph-name="zacute" unicode="&#x17a;" horiz-adv-x="462" 
d="M192 393h-46l-87 -107l-22 4l11 146h370l5 -14l-190 -305c-31 -51 -53 -73 -53 -73v-4s14 4 68 4h71l91 115l24 -7l-24 -152h-379l-6 12l188 308c31 52 49 72 49 72v4s-16 -3 -70 -3zM326 571l-122 -85l-18 17l55 133c16 39 58 53 91 26c34 -28 28 -70 -6 -91z" />
    <glyph glyph-name="Zdotaccent" unicode="&#x17b;" horiz-adv-x="529" 
d="M22 12l257 452c29 53 50 72 50 72v4s-17 -3 -71 -3h-97l-93 -113l-22 4l14 160h425l5 -14l-255 -449c-32 -54 -53 -73 -53 -73v-4s19 4 74 4h125l99 131l24 -7l-31 -176h-445zM197 705c0 46 35 72 76 72c43 0 78 -26 78 -72c0 -45 -35 -72 -78 -72c-41 0 -76 27 -76 72z
" />
    <glyph glyph-name="zdotaccent" unicode="&#x17c;" horiz-adv-x="462" 
d="M192 393h-46l-87 -107l-22 4l11 146h370l5 -14l-190 -305c-31 -51 -53 -73 -53 -73v-4s14 4 68 4h71l91 115l24 -7l-24 -152h-379l-6 12l188 308c31 52 49 72 49 72v4s-16 -3 -70 -3zM171 573c0 46 34 72 75 72c44 0 78 -26 78 -72c0 -45 -34 -72 -78 -72
c-41 0 -75 27 -75 72z" />
    <glyph glyph-name="Schwa" unicode="&#x18f;" horiz-adv-x="548" 
d="M373 280c0 135 -55 228 -183 228c-55 0 -97 -22 -137 -60l-21 26c46 81 124 124 224 124c147 0 255 -98 255 -295c0 -194 -95 -312 -268 -312c-137 0 -218 81 -218 213c0 29 3 53 13 76h335zM251 42c73 0 111 69 120 191l-216 -8c-3 -9 -4 -22 -4 -38
c0 -69 24 -145 100 -145z" />
    <glyph glyph-name="Khook" unicode="&#x198;" horiz-adv-x="637" 
d="M408 429l-30 -60l190 -316l75 -20l-7 -33h-198l-158 277h-45v-222l68 -23l-8 -32h-253l-7 32l64 23v478l-64 23l7 32h252l8 -32l-67 -23v-212l59 9l64 131c46 95 91 137 168 137c55 0 94 -28 94 -84c0 -43 -29 -73 -69 -73c-35 0 -61 19 -61 54c0 22 5 32 19 42v4
c-37 -2 -62 -36 -101 -112z" />
    <glyph glyph-name="khook" unicode="&#x199;" horiz-adv-x="529" 
d="M199 245l41 8l129 125l-63 24l6 34h194l8 -32l-58 -18l-117 -113l138 -224l61 -21l-11 -28h-171l-119 202h-38v-154l58 -19l-13 -29h-217v28l41 18v430c0 160 117 211 219 211c74 0 125 -28 125 -88c0 -37 -27 -65 -64 -65c-38 0 -63 25 -63 61c0 22 11 44 24 54
c-9 2 -15 3 -24 3c-61 0 -86 -62 -86 -148v-259z" />
    <glyph glyph-name="Ezh" unicode="&#x1b7;" horiz-adv-x="489" 
d="M465 574l-200 -349v-4c118 -20 186 -90 186 -197c0 -158 -139 -214 -277 -214c-103 0 -166 34 -166 105c0 44 29 76 73 76c42 0 70 -34 70 -68c0 -28 -15 -49 -33 -57c13 -10 29 -14 52 -14c88 0 144 54 144 147c0 110 -86 162 -187 176l-9 27l185 335h-149l-93 -113
l-22 4l14 160h407z" />
    <glyph glyph-name="Acaron" unicode="&#x1cd;" horiz-adv-x="604" 
d="M409 52l-42 114h-207l-40 -110l74 -21l-5 -35h-180l-7 30l48 27l199 531h107l198 -531l48 -27l-7 -30h-247l-6 36zM311 620h-30l-147 148h129l62 -71l76 71h58zM230 354l-51 -136h169l-49 137c-28 78 -31 127 -31 127h-4s-6 -53 -34 -128z" />
    <glyph glyph-name="acaron" unicode="&#x1ce;" horiz-adv-x="470" 
d="M401 287v-191c0 -45 16 -55 63 -50l3 -20c-25 -24 -58 -36 -105 -36c-43 0 -79 18 -87 64l-3 1c-21 -45 -67 -65 -121 -65c-67 0 -122 37 -122 120c0 88 70 131 181 131c21 0 44 -4 60 -8v38c0 58 -37 87 -96 87c-42 0 -77 -8 -119 -30l-12 29c43 58 112 89 194 89
c83 0 164 -37 164 -159zM270 195h-22c-59 0 -93 -15 -93 -68c0 -37 22 -62 57 -62c22 0 40 5 58 21v109zM244 482h-30l-147 185h121l70 -98l77 98h58z" />
    <glyph glyph-name="Icaron" unicode="&#x1cf;" horiz-adv-x="334" 
d="M179 620h-29l-132 148h128l51 -63l58 63h57zM42 588h250l7 -32l-64 -23v-478l64 -23l-7 -32h-250l-7 32l64 23v478l-64 23z" />
    <glyph glyph-name="icaron" unicode="&#x1d0;" horiz-adv-x="287" 
d="M210 48l59 -19l-13 -29h-218v28l41 20v274l-42 66v11l151 47h22v-398zM157 482h-30l-147 185h120l71 -98l77 98h57z" />
    <glyph glyph-name="Ocaron" unicode="&#x1d1;" horiz-adv-x="637" 
d="M319 38c90 0 131 72 131 256c0 185 -41 256 -131 256c-91 0 -132 -71 -132 -256c0 -184 41 -256 132 -256zM319 -10c-180 0 -282 116 -282 304s102 304 282 304c179 0 281 -116 281 -304s-102 -304 -281 -304zM333 620h-29l-147 148h129l62 -71l75 71h59z" />
    <glyph glyph-name="ocaron" unicode="&#x1d2;" 
d="M482 218c0 -151 -89 -228 -224 -228s-224 77 -224 228s89 228 224 228s224 -77 224 -228zM173 218c0 -116 18 -182 85 -182s85 66 85 182s-18 182 -85 182s-85 -66 -85 -182zM270 482h-30l-147 185h121l70 -98l77 98h58z" />
    <glyph glyph-name="Ucaron" unicode="&#x1d3;" horiz-adv-x="631" 
d="M550 533v-325c0 -139 -90 -218 -229 -218c-138 0 -240 59 -240 214v329l-64 23l7 32h249l8 -32l-64 -23v-327c0 -106 48 -150 129 -150c82 0 137 48 137 153v324l-76 23l8 32h191l8 -32zM340 620h-29l-148 148h130l62 -71l75 71h59z" />
    <glyph glyph-name="ucaron" unicode="&#x1d4;" horiz-adv-x="528" 
d="M330 320l-42 66v11l151 49h22v-359l49 -46v-17l-165 -31l-11 69h-4c-31 -50 -81 -72 -134 -72c-72 0 -139 38 -139 152v178l-42 66v11l151 49h22v-291c0 -61 24 -86 64 -86c28 0 50 9 78 30v221zM276 482h-30l-147 185h121l70 -98l77 98h58z" />
    <glyph glyph-name="uni004100A800AF" unicode="&#x1de;" horiz-adv-x="604" 
d="M409 52l-42 114h-207l-40 -110l74 -21l-5 -35h-180l-7 30l48 27l199 531h107l198 -531l48 -27l-7 -30h-247l-6 36zM459 788h-315v68h315v-68zM230 354l-51 -136h169l-49 137c-28 78 -31 127 -31 127h-4s-6 -53 -34 -128zM328 680c0 42 31 67 69 67c40 0 71 -25 71 -67
c0 -40 -31 -66 -71 -66c-38 0 -69 26 -69 66zM135 681c0 42 31 67 68 67c41 0 71 -25 71 -67c0 -41 -30 -66 -71 -66c-37 0 -68 25 -68 66z" />
    <glyph glyph-name="adieresismacron" unicode="&#x1df;" horiz-adv-x="470" 
d="M401 287v-191c0 -45 16 -55 63 -50l3 -20c-25 -24 -58 -36 -105 -36c-43 0 -79 18 -87 64l-3 1c-21 -45 -67 -65 -121 -65c-67 0 -122 37 -122 120c0 88 70 131 181 131c21 0 44 -4 60 -8v38c0 58 -37 87 -96 87c-42 0 -77 -8 -119 -30l-12 29c43 58 112 89 194 89
c83 0 164 -37 164 -159zM270 195h-22c-59 0 -93 -15 -93 -68c0 -37 22 -62 57 -62c22 0 40 5 58 21v109zM60 537c0 43 31 67 68 67c41 0 71 -24 71 -67c0 -40 -30 -65 -71 -65c-37 0 -68 25 -68 65zM253 536c0 43 32 67 69 67c41 0 71 -24 71 -67c0 -40 -30 -65 -71 -65
c-37 0 -69 25 -69 65zM368 638h-285v68h285v-68z" />
    <glyph glyph-name="AEmacron" unicode="&#x1e2;" horiz-adv-x="835" 
d="M274 588h508v-157l-21 -5l-84 110h-140v-213h87l44 82l22 -4v-211l-21 -4l-44 85h-88v-202l32 -17h122l94 136l26 -6l-20 -182h-446l-7 32l63 23v135h-191l-78 -135l70 -20l-5 -35h-188l-7 30l59 27l270 476l-64 23zM358 447l-119 -206h162v298h-4s-8 -38 -39 -92z
M690 654h-315v67h315v-67z" />
    <glyph glyph-name="aemacron" unicode="&#x1e3;" horiz-adv-x="680" 
d="M389 216c1 -85 42 -141 127 -141c45 0 71 11 108 38l19 -21c-32 -72 -93 -101 -178 -101c-65 0 -122 23 -159 70c-30 -48 -81 -70 -142 -70c-85 0 -135 43 -135 120c0 106 86 139 235 146c1 11 4 22 7 33c-6 44 -43 72 -94 72c-44 0 -76 -9 -120 -34l-13 29
c42 58 111 89 191 89c46 0 85 -16 111 -45c38 29 86 45 138 45c98 0 166 -57 166 -162c0 -16 -2 -36 -6 -55zM486 509h-285v68h285v-68zM475 400c-46 0 -79 -51 -85 -137l142 9c2 9 3 23 3 39c0 47 -13 89 -60 89zM214 68c30 0 50 5 73 23c-17 32 -26 73 -26 121v1
c-79 -6 -110 -25 -110 -82c0 -36 21 -63 63 -63z" />
    <glyph glyph-name="Gstroke" unicode="&#x1e4;" horiz-adv-x="613" 
d="M357 143v43h57v42l-62 23l7 32h227l8 -32l-52 -23v-42h57v-43h-57v-152h-30l-47 47c-43 -30 -90 -48 -154 -48c-145 0 -274 91 -274 305c0 209 128 303 296 303c40 0 87 -9 124 -19l61 19v-167l-21 -5l-46 55c-35 44 -67 70 -117 70c-84 0 -148 -64 -148 -257
c0 -186 55 -253 133 -253c37 0 65 6 95 25v77h-57z" />
    <glyph glyph-name="gstroke" unicode="&#x1e5;" horiz-adv-x="488" 
d="M174 87h156c95 0 155 -46 155 -142c0 -9 -1 -17 -2 -25h47v-38h-58c-35 -74 -134 -104 -240 -104c-122 0 -211 28 -212 104h-43v38h51c16 32 54 49 105 56v3c-57 7 -89 40 -89 92s39 83 94 94c-57 20 -93 60 -93 125c0 88 66 156 192 156c52 0 113 -10 160 -33
c-4 6 -6 14 -6 24c0 32 24 52 55 52c32 0 55 -22 55 -57c0 -38 -25 -59 -61 -59c-26 0 -50 10 -79 21v-10c35 -16 59 -50 59 -95c0 -96 -96 -139 -184 -139c-22 0 -42 2 -61 7c-21 -7 -37 -18 -37 -40c0 -20 12 -30 36 -30zM294 297c0 65 -9 104 -61 104
c-51 0 -60 -39 -60 -104c0 -64 9 -103 60 -103c52 0 61 39 61 103zM238 -178c67 0 120 16 135 60h-242c8 -40 46 -60 107 -60zM172 -32c-20 -11 -34 -26 -40 -48h244c-5 30 -26 48 -78 48h-126z" />
    <glyph glyph-name="Gcaron" unicode="&#x1e6;" horiz-adv-x="613" 
d="M186 294c0 -186 55 -253 133 -253c37 0 65 6 95 25v162l-62 23l7 32h227l8 -32l-52 -23v-237h-30l-47 47c-43 -30 -90 -48 -154 -48c-145 0 -274 91 -274 305c0 209 128 303 296 303c40 0 87 -9 124 -19l61 19v-167l-21 -5l-46 55c-35 44 -67 70 -117 70
c-84 0 -148 -64 -148 -257zM334 620h-30l-147 148h129l62 -71l76 71h58z" />
    <glyph glyph-name="gcaron" unicode="&#x1e7;" horiz-adv-x="488" 
d="M174 87h156c95 0 155 -46 155 -142c0 -122 -121 -167 -253 -167c-122 0 -212 28 -212 105c0 57 45 83 113 93v3c-57 7 -89 40 -89 92s39 83 94 94c-57 20 -93 60 -93 125c0 88 66 156 192 156c52 0 113 -10 160 -33c-4 6 -6 14 -6 24c0 32 24 52 55 52
c32 0 55 -22 55 -57c0 -38 -25 -59 -61 -59c-26 0 -50 10 -79 21v-10c35 -16 59 -50 59 -95c0 -96 -96 -139 -184 -139c-22 0 -42 2 -61 7c-21 -7 -37 -18 -37 -40c0 -20 12 -30 36 -30zM172 -32c-26 -14 -42 -36 -42 -68c0 -53 39 -78 108 -78c79 0 139 22 139 85
c0 38 -20 61 -79 61h-126zM294 297c0 65 -9 104 -61 104c-51 0 -60 -39 -60 -104c0 -64 9 -103 60 -103c52 0 61 39 61 103zM268 482h-29l-148 185h121l71 -98l76 98h58z" />
    <glyph glyph-name="Kcaron" unicode="&#x1e8;" horiz-adv-x="638" 
d="M235 321l55 8l164 203l-61 24l5 32h199l6 -32l-68 -18l-150 -181l184 -304l75 -20l-7 -33h-199l-157 277h-46v-222l64 -23l-7 -32h-250l-7 32l64 23v478l-64 23l7 32h250l7 -32l-64 -23v-212zM327 620h-29l-147 148h129l62 -71l75 71h59z" />
    <glyph glyph-name="kcaron" unicode="&#x1e9;" horiz-adv-x="534" 
d="M203 48l60 -19l-13 -29h-219v28l41 18v528l-47 54v11l156 42h22v-436l41 8l129 125l-63 24l7 34h194l7 -32l-58 -18l-117 -113l138 -224l62 -21l-12 -28h-171l-119 202h-38v-154zM153 708h-29l-147 148h129l62 -72l75 72h59z" />
    <glyph glyph-name="Oogonek" unicode="&#x1ea;" horiz-adv-x="637" 
d="M212 -117c0 51 31 84 76 109c-160 12 -251 125 -251 302c0 188 102 304 282 304c179 0 281 -116 281 -304c0 -168 -81 -278 -226 -299c-39 -22 -60 -47 -60 -87c0 -34 21 -53 52 -53c26 0 43 6 66 31l16 -19c-20 -51 -60 -82 -126 -82c-56 0 -110 26 -110 98zM319 38
c90 0 131 72 131 256c0 185 -41 256 -131 256c-91 0 -132 -71 -132 -256c0 -184 41 -256 132 -256z" />
    <glyph glyph-name="oogonek" unicode="&#x1eb;" 
d="M165 -117c0 47 27 82 66 109c-120 8 -197 85 -197 226c0 151 89 228 224 228s224 -77 224 -228c0 -128 -64 -203 -166 -222c-32 -22 -49 -51 -49 -88c0 -34 21 -53 52 -53c25 0 42 6 66 31l15 -19c-19 -51 -59 -82 -125 -82c-56 0 -110 26 -110 98zM173 218
c0 -116 18 -182 85 -182s85 66 85 182s-18 182 -85 182s-85 -66 -85 -182z" />
    <glyph glyph-name="uni004F02DB00AF" unicode="&#x1ec;" horiz-adv-x="637" 
d="M212 -117c0 51 31 84 76 109c-160 12 -251 125 -251 302c0 188 102 304 282 304c179 0 281 -116 281 -304c0 -168 -81 -278 -226 -299c-39 -22 -60 -47 -60 -87c0 -34 21 -53 52 -53c26 0 43 6 66 31l16 -19c-20 -51 -60 -82 -126 -82c-56 0 -110 26 -110 98zM319 38
c90 0 131 72 131 256c0 185 -41 256 -131 256c-91 0 -132 -71 -132 -256c0 -184 41 -256 132 -256zM476 654h-315v67h315v-67z" />
    <glyph glyph-name="oogonekmacron" unicode="&#x1ed;" 
d="M165 -117c0 47 27 82 66 109c-120 8 -197 85 -197 226c0 151 89 228 224 228s224 -77 224 -228c0 -128 -64 -203 -166 -222c-32 -22 -49 -51 -49 -88c0 -34 21 -53 52 -53c25 0 42 6 66 31l15 -19c-19 -51 -59 -82 -125 -82c-56 0 -110 26 -110 98zM173 218
c0 -116 18 -182 85 -182s85 66 85 182s-18 182 -85 182s-85 -66 -85 -182zM403 509h-285v68h285v-68z" />
    <glyph glyph-name="Ezhcaron" unicode="&#x1ee;" horiz-adv-x="489" 
d="M465 574l-200 -349v-4c118 -20 186 -90 186 -197c0 -158 -139 -214 -277 -214c-103 0 -166 34 -166 105c0 44 29 76 73 76c42 0 70 -34 70 -68c0 -28 -15 -49 -33 -57c13 -10 29 -14 52 -14c88 0 144 54 144 147c0 110 -86 162 -187 176l-9 27l185 335h-149l-93 -113
l-22 4l14 160h407zM277 620h-30l-147 148h130l61 -71l76 71h59z" />
    <glyph glyph-name="ezhcaron" unicode="&#x1ef;" horiz-adv-x="461" 
d="M424 422l-178 -262v-4c102 -11 164 -74 164 -162c0 -136 -121 -184 -240 -184c-87 0 -148 28 -148 93c0 39 26 67 66 67c38 0 63 -30 63 -60c0 -26 -14 -44 -30 -51c12 -10 26 -13 46 -13c68 0 116 44 116 122c0 94 -70 137 -164 147l-9 25l160 253h-128l-82 -107l-22 4
l11 146h370zM250 482h-30l-147 185h120l71 -98l77 98h57z" />
    <glyph glyph-name="jcaron" unicode="&#x1f0;" horiz-adv-x="259" 
d="M201 448v-498c0 -92 -69 -169 -202 -169c-61 0 -101 21 -101 72c0 39 28 62 65 62c41 0 58 -29 58 -62c0 -17 -6 -31 -12 -40c34 0 61 33 61 109v401l-49 66v11l158 48h22zM147 482h-30l-147 185h120l71 -98l77 98h57z" />
    <glyph glyph-name="jcaron" unicode="&#xe10c;" horiz-adv-x="259" 
d="M201 448v-498c0 -92 -69 -169 -202 -169c-61 0 -101 21 -101 72c0 39 28 62 65 62c41 0 58 -29 58 -62c0 -17 -6 -31 -12 -40c34 0 61 33 61 109v401l-49 66v11l158 48h22zM147 482h-30l-147 185h120l71 -98l77 98h57z" />
    <glyph glyph-name="Gacute" unicode="&#x1f4;" horiz-adv-x="613" 
d="M186 294c0 -186 55 -253 133 -253c37 0 65 6 95 25v162l-62 23l7 32h227l8 -32l-52 -23v-237h-30l-47 47c-43 -30 -90 -48 -154 -48c-145 0 -274 91 -274 305c0 209 128 303 296 303c40 0 87 -9 124 -19l61 19v-167l-21 -5l-46 55c-35 44 -67 70 -117 70
c-84 0 -148 -64 -148 -257zM400 690l-139 -65l-14 21l94 122c25 33 65 38 90 6c25 -33 5 -69 -31 -84z" />
    <glyph glyph-name="gacute" unicode="&#x1f5;" horiz-adv-x="488" 
d="M174 87h156c95 0 155 -46 155 -142c0 -122 -121 -167 -253 -167c-122 0 -212 28 -212 105c0 57 45 83 113 93v3c-57 7 -89 40 -89 92s39 83 94 94c-57 20 -93 60 -93 125c0 88 66 156 192 156c52 0 113 -10 160 -33c-4 6 -6 14 -6 24c0 32 24 52 55 52
c32 0 55 -22 55 -57c0 -38 -25 -59 -61 -59c-26 0 -50 10 -79 21v-10c35 -16 59 -50 59 -95c0 -96 -96 -139 -184 -139c-22 0 -42 2 -61 7c-21 -7 -37 -18 -37 -40c0 -20 12 -30 36 -30zM172 -32c-26 -14 -42 -36 -42 -68c0 -53 39 -78 108 -78c79 0 139 22 139 85
c0 38 -20 61 -79 61h-126zM294 297c0 65 -9 104 -61 104c-51 0 -60 -39 -60 -104c0 -64 9 -103 60 -103c52 0 61 39 61 103zM339 571l-122 -85l-18 17l55 133c16 39 58 53 90 26c35 -28 28 -70 -5 -91z" />
    <glyph glyph-name="Ngrave" unicode="&#x1f8;" horiz-adv-x="651" 
d="M166 319v-264l76 -23l-7 -32h-193l-7 32l64 23v478l-64 23l7 32h190l208 -293c41 -57 65 -118 65 -118h4s-5 77 -5 150v206l-76 23l7 32h188l8 -32l-65 -23v-533h-77l-257 353c-43 57 -68 118 -68 118h-4s6 -77 6 -152zM389 616l-139 65c-36 15 -56 51 -31 84
c25 32 65 27 90 -6l94 -122z" />
    <glyph glyph-name="ngrave" unicode="&#x1f9;" horiz-adv-x="561" 
d="M492 48l59 -19l-13 -29h-219v28l41 19v218c0 65 -34 87 -71 87c-34 0 -61 -17 -79 -34v-270l59 -19l-13 -29h-218v28l41 18v274l-42 66v11l151 49h21l-3 -87h4c36 57 86 87 153 87c73 0 129 -51 129 -153v-245zM322 486l-122 85c-34 21 -40 63 -6 91c33 27 75 13 91 -26
l55 -133z" />
    <glyph glyph-name="uni004102DA00B4" unicode="&#x1fa;" horiz-adv-x="604" 
d="M409 52l-42 114h-207l-40 -110l74 -21l-5 -35h-180l-7 30l48 27l199 531h107l198 -531l48 -27l-7 -30h-247l-6 36zM187 704c0 48 36 87 109 87s111 -39 111 -86c0 -50 -38 -89 -111 -89s-109 39 -109 88zM230 354l-51 -136h169l-49 137c-28 78 -31 127 -31 127h-4
s-6 -53 -34 -128zM364 837l-150 -30l-10 24l121 96c32 26 72 21 89 -16c18 -38 -10 -68 -50 -74zM239 703c0 -24 20 -43 57 -43c35 0 57 19 57 43c0 26 -22 45 -57 45s-57 -19 -57 -45z" />
    <glyph glyph-name="aringacute" unicode="&#x1fb;" horiz-adv-x="470" 
d="M123 566c0 48 36 87 109 87s111 -39 111 -86c0 -50 -38 -89 -111 -89s-109 39 -109 88zM174 566c0 -25 21 -44 58 -44c35 0 57 19 57 44s-22 45 -57 45s-58 -20 -58 -45zM298 708l-150 -30l-10 24l121 97c32 25 72 21 89 -16c18 -39 -10 -69 -50 -75zM401 287v-191
c0 -45 16 -55 63 -50l3 -20c-25 -24 -58 -36 -105 -36c-43 0 -79 18 -87 64l-3 1c-21 -45 -67 -65 -121 -65c-67 0 -122 37 -122 120c0 88 70 131 181 131c21 0 44 -4 60 -8v38c0 58 -37 87 -96 87c-42 0 -77 -8 -119 -30l-12 29c43 58 112 89 194 89c83 0 164 -37 164 -159
zM270 195h-22c-59 0 -93 -15 -93 -68c0 -37 22 -62 57 -62c22 0 40 5 58 21v109z" />
    <glyph glyph-name="AEacute" unicode="&#x1fc;" horiz-adv-x="835" 
d="M274 588h508v-157l-21 -5l-84 110h-140v-213h87l44 82l22 -4v-211l-21 -4l-44 85h-88v-202l32 -17h122l94 136l26 -6l-20 -182h-446l-7 32l63 23v135h-191l-78 -135l70 -20l-5 -35h-188l-7 30l59 27l270 476l-64 23zM358 447l-119 -206h162v298h-4s-8 -38 -39 -92z
M578 690l-139 -65l-14 21l94 122c25 33 65 38 90 6c25 -33 5 -69 -31 -84z" />
    <glyph glyph-name="aeacute" unicode="&#x1fd;" horiz-adv-x="680" 
d="M389 216c1 -85 42 -141 127 -141c45 0 71 11 108 38l19 -21c-32 -72 -93 -101 -178 -101c-65 0 -122 23 -159 70c-30 -48 -81 -70 -142 -70c-85 0 -135 43 -135 120c0 106 86 139 235 146c1 11 4 22 7 33c-6 44 -43 72 -94 72c-44 0 -76 -9 -120 -34l-13 29
c42 58 111 89 191 89c46 0 85 -16 111 -45c38 29 86 45 138 45c98 0 166 -57 166 -162c0 -16 -2 -36 -6 -55zM443 571l-121 -85l-19 17l55 133c17 39 59 53 91 26c35 -28 28 -70 -6 -91zM475 400c-46 0 -79 -51 -85 -137l142 9c2 9 3 23 3 39c0 47 -13 89 -60 89zM214 68
c30 0 50 5 73 23c-17 32 -26 73 -26 121v1c-79 -6 -110 -25 -110 -82c0 -36 21 -63 63 -63z" />
    <glyph glyph-name="Oslashacute" unicode="&#x1fe;" horiz-adv-x="636" 
d="M318 -9c-68 0 -123 13 -166 40l-44 -60h-60l66 90c-52 52 -77 131 -77 237c0 186 102 300 281 300c62 0 116 -14 158 -40l44 60h61l-66 -90c55 -52 84 -131 84 -230c0 -200 -91 -307 -281 -307zM450 297c0 51 -4 93 -11 127l-226 -309c22 -51 57 -76 105 -76
c89 0 132 87 132 258zM318 550c-87 0 -132 -71 -132 -253c0 -48 3 -89 10 -123l225 309c-22 46 -56 67 -103 67zM376 690l-138 -65l-15 21l94 122c25 33 65 38 90 6c26 -33 6 -69 -31 -84z" />
    <glyph glyph-name="oslashacute" unicode="&#x1ff;" horiz-adv-x="525" 
d="M265 446c44 0 83 -8 116 -24l32 44h57l-50 -69c44 -37 71 -97 71 -180c0 -158 -98 -226 -231 -226c-47 0 -87 8 -121 23l-31 -43h-56l49 67c-44 37 -67 95 -67 179c0 152 93 229 231 229zM262 33c65 0 88 73 88 183c0 30 -2 56 -5 79l-154 -211c13 -32 35 -51 71 -51z
M173 216c0 -27 1 -51 4 -74l153 210c-15 32 -38 48 -69 48c-67 0 -88 -65 -88 -184zM337 571l-121 -85l-19 17l55 133c17 39 59 53 91 26c35 -28 28 -70 -6 -91z" />
    <glyph glyph-name="Adoublegrave" unicode="&#x200;" horiz-adv-x="604" 
d="M409 52l-42 114h-207l-40 -110l74 -21l-5 -35h-180l-7 30l48 27l199 531h107l198 -531l48 -27l-7 -30h-247l-6 36zM230 354l-51 -136h169l-49 137c-28 78 -31 127 -31 127h-4s-6 -53 -34 -128zM427 621l-124 82c-32 22 -42 47 -10 78c30 30 58 21 77 -12l80 -123z
M272 621l-129 72c-35 17 -47 42 -18 76c26 32 56 27 78 -5l89 -116z" />
    <glyph glyph-name="edoublegrave" unicode="&#x201;" horiz-adv-x="453" 
d="M162 227c2 -91 42 -153 127 -153c45 0 71 11 108 39l19 -22c-32 -72 -93 -101 -178 -101c-114 0 -204 73 -204 222c0 151 102 234 223 234c98 0 166 -57 166 -162c0 -16 -1 -38 -5 -57h-256zM248 400c-44 0 -76 -41 -84 -126h141c2 8 3 21 3 37c0 47 -13 89 -60 89z
M191 483l-113 95c-31 24 -39 50 -4 78c32 26 60 16 76 -19l66 -131zM351 483l-113 95c-31 24 -39 50 -4 78c32 26 60 16 76 -19l66 -131z" />
    <glyph glyph-name="edoublegrave" unicode="&#x205;" horiz-adv-x="453" 
d="M162 227c2 -91 42 -153 127 -153c45 0 71 11 108 39l19 -22c-32 -72 -93 -101 -178 -101c-114 0 -204 73 -204 222c0 151 102 234 223 234c98 0 166 -57 166 -162c0 -16 -1 -38 -5 -57h-256zM248 400c-44 0 -76 -41 -84 -126h141c2 8 3 21 3 37c0 47 -13 89 -60 89z
M191 483l-113 95c-31 24 -39 50 -4 78c32 26 60 16 76 -19l66 -131zM351 483l-113 95c-31 24 -39 50 -4 78c32 26 60 16 76 -19l66 -131z" />
    <glyph glyph-name="Ainvertedbreve" unicode="&#x202;" horiz-adv-x="604" 
d="M409 52l-42 114h-207l-40 -110l74 -21l-5 -35h-180l-7 30l48 27l199 531h107l198 -531l48 -27l-7 -30h-247l-6 36zM300 676c-57 0 -85 -23 -98 -67h-43c2 87 51 145 141 145s138 -58 140 -145h-43c-13 44 -41 67 -97 67zM230 354l-51 -136h169l-49 137
c-28 78 -31 127 -31 127h-4s-6 -53 -34 -128z" />
    <glyph glyph-name="ainvertedbreve" unicode="&#x203;" horiz-adv-x="470" 
d="M401 287v-191c0 -45 16 -55 63 -50l3 -20c-25 -24 -58 -36 -105 -36c-43 0 -79 18 -87 64l-3 1c-21 -45 -67 -65 -121 -65c-67 0 -122 37 -122 120c0 88 70 131 181 131c21 0 44 -4 60 -8v38c0 58 -37 87 -96 87c-42 0 -77 -8 -119 -30l-12 29c43 58 112 89 194 89
c83 0 164 -37 164 -159zM270 195h-22c-59 0 -93 -15 -93 -68c0 -37 22 -62 57 -62c22 0 40 5 58 21v109zM226 580c-60 0 -96 -31 -102 -88h-38c-2 8 -2 15 -2 24c0 81 54 144 142 144s142 -63 142 -144c0 -9 -1 -16 -2 -24h-38c-6 57 -43 88 -102 88z" />
    <glyph glyph-name="Edoublegrave" unicode="&#x204;" horiz-adv-x="532" 
d="M323 271h-88v-202l32 -17h121l94 136l26 -6l-20 -182h-446l-7 32l64 23v478l-64 23l7 32h437v-157l-21 -5l-84 110h-139v-213h87l43 82l22 -4v-211l-21 -4zM248 621l-129 72c-35 17 -47 42 -18 76c26 32 56 27 78 -5l89 -116zM403 621l-124 82c-32 22 -42 47 -10 78
c30 30 58 21 77 -12l80 -123z" />
    <glyph glyph-name="Einvertedbreve" unicode="&#x206;" horiz-adv-x="532" 
d="M323 271h-88v-202l32 -17h121l94 136l26 -6l-20 -182h-446l-7 32l64 23v478l-64 23l7 32h437v-157l-21 -5l-84 110h-139v-213h87l43 82l22 -4v-211l-21 -4zM277 689c-57 0 -85 -23 -98 -67h-43c3 87 51 145 141 145s138 -58 141 -145h-43c-13 44 -41 67 -98 67z" />
    <glyph glyph-name="einvertedbreve" unicode="&#x207;" horiz-adv-x="453" 
d="M162 227c2 -91 42 -153 127 -153c45 0 71 11 108 39l19 -22c-32 -72 -93 -101 -178 -101c-114 0 -204 73 -204 222c0 151 102 234 223 234c98 0 166 -57 166 -162c0 -16 -1 -38 -5 -57h-256zM248 400c-44 0 -76 -41 -84 -126h141c2 8 3 21 3 37c0 47 -13 89 -60 89z
M243 580c-59 0 -96 -31 -102 -88h-38c-1 8 -2 15 -2 24c0 81 54 144 142 144s142 -63 142 -144c0 -9 0 -16 -2 -24h-38c-5 57 -42 88 -102 88z" />
    <glyph glyph-name="Idoublegrave" unicode="&#x208;" horiz-adv-x="334" 
d="M42 588h250l7 -32l-64 -23v-478l64 -23l-7 -32h-250l-7 32l64 23v478l-64 23zM143 621l-129 72c-35 17 -47 42 -18 76c26 32 56 27 78 -5l89 -116zM298 621l-124 82c-32 22 -43 47 -10 78c29 30 58 21 77 -12l80 -123z" />
    <glyph glyph-name="idoublegrave" unicode="&#x209;" horiz-adv-x="287" 
d="M210 48l59 -19l-13 -29h-218v28l41 20v274l-42 66v11l151 47h22v-398zM91 483l-113 95c-30 24 -38 50 -4 78c33 26 60 16 77 -19l65 -131zM251 483l-113 95c-30 24 -38 50 -4 78c33 26 60 16 77 -19l65 -131z" />
    <glyph glyph-name="Iinvertedbreve" unicode="&#x20a;" horiz-adv-x="334" 
d="M167 693c-54 0 -81 -24 -94 -68h-42c2 88 49 146 136 146s134 -58 136 -146h-42c-12 44 -39 68 -94 68zM42 588h250l7 -32l-64 -23v-478l64 -23l-7 -32h-250l-7 32l64 23v478l-64 23z" />
    <glyph glyph-name="iinvertedbreve" unicode="&#x20b;" horiz-adv-x="287" 
d="M141 580c-60 0 -87 -31 -92 -88h-38c-2 8 -2 15 -2 24c0 81 44 144 132 144s132 -63 132 -144c0 -9 -1 -16 -2 -24h-38c-6 57 -33 88 -92 88zM210 48l59 -19l-13 -29h-218v28l41 20v274l-42 66v11l151 47h22v-398z" />
    <glyph glyph-name="Odoublegrave" unicode="&#x20c;" horiz-adv-x="637" 
d="M319 38c90 0 131 72 131 256c0 185 -41 256 -131 256c-91 0 -132 -71 -132 -256c0 -184 41 -256 132 -256zM319 -10c-180 0 -282 116 -282 304s102 304 282 304c179 0 281 -116 281 -304s-102 -304 -281 -304zM275 621l-129 72c-34 17 -47 42 -17 76c26 32 55 27 78 -5
l89 -116zM431 621l-124 82c-32 22 -43 47 -11 78c30 30 59 21 78 -12l79 -123z" />
    <glyph glyph-name="odoublegrave" unicode="&#x20d;" 
d="M482 218c0 -151 -89 -228 -224 -228s-224 77 -224 228s89 228 224 228s224 -77 224 -228zM173 218c0 -116 18 -182 85 -182s85 66 85 182s-18 182 -85 182s-85 -66 -85 -182zM212 483l-113 95c-30 24 -38 50 -3 78c32 26 59 16 76 -19l65 -131zM372 483l-113 95
c-30 24 -38 50 -3 78c32 26 59 16 76 -19l65 -131z" />
    <glyph glyph-name="Oinvertedbreve" unicode="&#x20e;" horiz-adv-x="637" 
d="M319 38c90 0 131 72 131 256c0 185 -41 256 -131 256c-91 0 -132 -71 -132 -256c0 -184 41 -256 132 -256zM319 -10c-180 0 -282 116 -282 304s102 304 282 304c179 0 281 -116 281 -304s-102 -304 -281 -304zM319 689c-57 0 -85 -23 -98 -67h-43c3 87 51 145 141 145
s138 -58 141 -145h-43c-13 44 -41 67 -98 67z" />
    <glyph glyph-name="oinvertedbreve" unicode="&#x20f;" 
d="M482 218c0 -151 -89 -228 -224 -228s-224 77 -224 228s89 228 224 228s224 -77 224 -228zM173 218c0 -116 18 -182 85 -182s85 66 85 182s-18 182 -85 182s-85 -66 -85 -182zM262 580c-60 0 -96 -31 -102 -88h-39c-1 8 -1 15 -1 24c0 81 54 144 142 144
c87 0 142 -63 142 -144c0 -9 -1 -16 -2 -24h-38c-6 57 -43 88 -102 88z" />
    <glyph glyph-name="Rinvertedbreve" unicode="&#x212;" horiz-adv-x="613" 
d="M235 539v-232h53c65 0 104 30 104 118c0 79 -38 114 -104 114h-53zM549 53l70 -23l-7 -30h-193l-101 212c-15 32 -34 48 -83 49v-206l64 -23l-7 -32h-250l-7 32l64 23v478l-64 23l7 32h292c102 0 202 -38 202 -159c0 -100 -81 -147 -159 -154v-5c42 -5 76 -29 96 -68z
M282 689c-56 0 -84 -23 -98 -67h-42c2 87 50 145 140 145s138 -58 141 -145h-43c-13 44 -41 67 -98 67z" />
    <glyph glyph-name="rinvertedbreve" unicode="&#x213;" horiz-adv-x="420" 
d="M210 50l85 -19l-13 -31h-244v28l41 18v273l-42 66v11l151 50h21l-3 -102h4c20 51 59 102 125 102c53 0 85 -31 85 -80c0 -45 -31 -73 -69 -73c-43 0 -69 29 -69 70c-25 -11 -49 -34 -72 -64v-249zM216 580c-60 0 -96 -31 -102 -88h-39c-1 8 -1 15 -1 24
c0 81 54 144 142 144c87 0 142 -63 142 -144c0 -9 -1 -16 -2 -24h-38c-6 57 -43 88 -102 88z" />
    <glyph glyph-name="Udoublegrave" unicode="&#x214;" horiz-adv-x="631" 
d="M550 533v-325c0 -139 -90 -218 -229 -218c-138 0 -240 59 -240 214v329l-64 23l7 32h249l8 -32l-64 -23v-327c0 -106 48 -150 129 -150c82 0 137 48 137 153v324l-76 23l8 32h191l8 -32zM292 621l-129 72c-35 17 -47 42 -18 76c26 32 56 27 78 -5l89 -116zM447 621
l-123 82c-33 22 -43 47 -11 78c30 30 58 21 78 -12l79 -123z" />
    <glyph glyph-name="udoublegrave" unicode="&#x215;" horiz-adv-x="528" 
d="M330 320l-42 66v11l151 49h22v-359l49 -46v-17l-165 -31l-11 69h-4c-31 -50 -81 -72 -134 -72c-72 0 -139 38 -139 152v178l-42 66v11l151 49h22v-291c0 -61 24 -86 64 -86c28 0 50 9 78 30v221zM208 483l-113 95c-30 24 -38 50 -3 78c32 26 59 16 76 -19l65 -131z
M368 483l-113 95c-30 24 -38 50 -3 78c32 26 59 16 76 -19l65 -131z" />
    <glyph glyph-name="Uinvertedbreve" unicode="&#x216;" horiz-adv-x="631" 
d="M550 533v-325c0 -139 -90 -218 -229 -218c-138 0 -240 59 -240 214v329l-64 23l7 32h249l8 -32l-64 -23v-327c0 -106 48 -150 129 -150c82 0 137 48 137 153v324l-76 23l8 32h191l8 -32zM323 689c-56 0 -84 -23 -98 -67h-42c2 87 50 145 140 145s138 -58 141 -145h-43
c-13 44 -41 67 -98 67z" />
    <glyph glyph-name="uinvertedbreve" unicode="&#x217;" horiz-adv-x="528" 
d="M330 320l-42 66v11l151 49h22v-359l49 -46v-17l-165 -31l-11 69h-4c-31 -50 -81 -72 -134 -72c-72 0 -139 38 -139 152v178l-42 66v11l151 49h22v-291c0 -61 24 -86 64 -86c28 0 50 9 78 30v221zM260 580c-60 0 -96 -31 -102 -88h-38c-2 8 -2 15 -2 24
c0 81 54 144 142 144s142 -63 142 -144c0 -9 -1 -16 -2 -24h-38c-6 57 -43 88 -102 88z" />
    <glyph glyph-name="Scommaaccent" unicode="&#x218;" horiz-adv-x="485" 
d="M246 37c53 0 85 30 85 82c0 54 -28 80 -94 106l-72 30c-74 30 -117 80 -117 172c0 119 92 171 189 171c53 0 96 -12 127 -22l49 22l9 -166l-27 -6l-48 63c-30 42 -61 64 -113 64c-47 0 -79 -30 -79 -76s21 -73 81 -97l75 -30c94 -37 135 -91 135 -183
c0 -120 -91 -177 -198 -177c-72 0 -110 18 -138 32l-54 -32l-17 190l31 6l49 -71c33 -51 70 -78 127 -78zM270 -142h-7c-5 -20 -26 -28 -38 -28c-39 0 -58 29 -58 61c0 42 31 68 71 68c55 0 88 -37 88 -90c0 -82 -69 -120 -153 -126l-8 20c69 22 105 47 105 95z" />
    <glyph glyph-name="scommaaccent" unicode="&#x219;" horiz-adv-x="418" 
d="M37 137l27 6c53 -88 90 -110 146 -110c40 0 69 13 69 53c0 32 -19 50 -64 64l-65 21c-69 21 -107 61 -107 135c0 97 67 140 157 140c34 0 72 -8 95 -20l55 19l3 -131l-24 -6c-40 64 -78 93 -128 93c-36 0 -58 -19 -58 -48c0 -28 15 -44 50 -56l72 -24
c82 -27 119 -69 119 -145c0 -97 -68 -138 -177 -138c-38 0 -78 10 -107 23l-52 -23zM238 -142h-7c-5 -20 -26 -28 -38 -28c-39 0 -58 29 -58 61c0 42 32 68 71 68c55 0 88 -37 88 -90c0 -82 -69 -120 -152 -126l-9 20c70 22 105 47 105 95z" />
    <glyph glyph-name="Hcaron" unicode="&#x21e;" horiz-adv-x="707" 
d="M415 588h250l7 -32l-64 -23v-478l64 -23l-7 -32h-250l-7 32l64 23v216h-237v-216l64 -23l-7 -32h-250l-7 32l64 23v478l-64 23l7 32h250l7 -32l-64 -23v-210h237v210l-64 23zM364 620h-29l-147 148h129l62 -71l75 71h59z" />
    <glyph glyph-name="hcaron" unicode="&#x21f;" horiz-adv-x="553" 
d="M354 46v221c0 58 -30 88 -71 88c-30 0 -57 -13 -80 -34v-273l59 -19l-13 -29h-218v28l41 18v528l-47 54v11l156 42h22v-319h4c34 56 87 84 147 84c65 0 131 -34 131 -151v-247l58 -19l-13 -29h-217v28zM156 707h-30l-147 149h129l62 -72l76 72h58z" />
    <glyph glyph-name="Adotabove" unicode="&#x226;" horiz-adv-x="604" 
d="M409 52l-42 114h-207l-40 -110l74 -21l-5 -35h-180l-7 30l48 27l199 531h107l198 -531l48 -27l-7 -30h-247l-6 36zM230 354l-51 -136h169l-49 137c-28 78 -31 127 -31 127h-4s-6 -53 -34 -128zM222 705c0 46 35 72 76 72c44 0 78 -26 78 -72c0 -45 -34 -72 -78 -72
c-41 0 -76 27 -76 72z" />
    <glyph glyph-name="adotabove" unicode="&#x227;" horiz-adv-x="470" 
d="M401 287v-191c0 -45 16 -55 63 -50l3 -20c-25 -24 -58 -36 -105 -36c-43 0 -79 18 -87 64l-3 1c-21 -45 -67 -65 -121 -65c-67 0 -122 37 -122 120c0 88 70 131 181 131c21 0 44 -4 60 -8v38c0 58 -37 87 -96 87c-42 0 -77 -8 -119 -30l-12 29c43 58 112 89 194 89
c83 0 164 -37 164 -159zM270 195h-22c-59 0 -93 -15 -93 -68c0 -37 22 -62 57 -62c22 0 40 5 58 21v109zM148 573c0 46 35 72 76 72c44 0 78 -26 78 -72c0 -45 -34 -72 -78 -72c-41 0 -76 27 -76 72z" />
    <glyph glyph-name="Otildemacron" unicode="&#x22c;" horiz-adv-x="637" 
d="M319 38c90 0 131 72 131 256c0 185 -41 256 -131 256c-91 0 -132 -71 -132 -256c0 -184 41 -256 132 -256zM319 -10c-180 0 -282 116 -282 304s102 304 282 304c179 0 281 -116 281 -304s-102 -304 -281 -304zM334 637l-61 25c-14 6 -27 9 -39 9c-28 -1 -48 -19 -51 -58
l-25 4c-6 15 -10 29 -10 45c0 53 41 92 100 92c17 0 37 -4 57 -12l61 -24c17 -6 32 -11 46 -11c24 0 41 16 45 54l26 -4c6 -17 9 -33 9 -50c0 -51 -35 -84 -89 -84c-20 0 -44 4 -69 14zM475 790h-315v68h315v-68z" />
    <glyph glyph-name="otildemacron" unicode="&#x22d;" 
d="M482 218c0 -151 -89 -228 -224 -228s-224 77 -224 228s89 228 224 228s224 -77 224 -228zM173 218c0 -116 18 -182 85 -182s85 66 85 182s-18 182 -85 182s-85 -66 -85 -182zM271 498l-59 25c-14 6 -26 9 -37 9c-27 -1 -47 -19 -49 -58l-24 4c-6 15 -10 29 -10 45
c0 53 39 91 95 91c18 0 37 -4 56 -12l59 -23c15 -6 30 -11 43 -11c23 0 40 16 43 54l25 -4c6 -18 9 -34 9 -50c0 -51 -34 -84 -85 -85c-20 0 -42 5 -66 15zM403 661h-285v68h285v-68z" />
    <glyph glyph-name="Odotabove" unicode="&#x22e;" horiz-adv-x="637" 
d="M319 38c90 0 131 72 131 256c0 185 -41 256 -131 256c-91 0 -132 -71 -132 -256c0 -184 41 -256 132 -256zM319 -10c-180 0 -282 116 -282 304s102 304 282 304c179 0 281 -116 281 -304s-102 -304 -281 -304zM241 705c0 46 35 72 76 72c44 0 78 -26 78 -72
c0 -45 -34 -72 -78 -72c-41 0 -76 27 -76 72z" />
    <glyph glyph-name="odotabove" unicode="&#x22f;" 
d="M482 218c0 -151 -89 -228 -224 -228s-224 77 -224 228s89 228 224 228s224 -77 224 -228zM173 218c0 -116 18 -182 85 -182s85 66 85 182s-18 182 -85 182s-85 -66 -85 -182zM184 568c0 46 35 73 76 73c43 0 77 -27 77 -73c0 -45 -34 -72 -77 -72c-41 0 -76 27 -76 72z
" />
    <glyph glyph-name="odotabovemacron" unicode="&#x231;" 
d="M482 218c0 -151 -89 -228 -224 -228s-224 77 -224 228s89 228 224 228s224 -77 224 -228zM173 218c0 -116 18 -182 85 -182s85 66 85 182s-18 182 -85 182s-85 -66 -85 -182zM184 545c0 46 35 73 76 73c43 0 77 -27 77 -73c0 -45 -34 -72 -77 -72c-41 0 -76 27 -76 72z
M403 648h-285v68h285v-68z" />
    <glyph glyph-name="odotabovemacron" unicode="&#xe11e;" 
d="M482 218c0 -151 -89 -228 -224 -228s-224 77 -224 228s89 228 224 228s224 -77 224 -228zM173 218c0 -116 18 -182 85 -182s85 66 85 182s-18 182 -85 182s-85 -66 -85 -182zM184 545c0 46 35 73 76 73c43 0 77 -27 77 -73c0 -45 -34 -72 -77 -72c-41 0 -76 27 -76 72z
M403 648h-285v68h285v-68z" />
    <glyph glyph-name="Ymacron" unicode="&#x232;" horiz-adv-x="572" 
d="M196 536l89 -171c31 -59 32 -90 32 -90h4s6 29 39 89l92 168l-76 21l5 35h182l7 -30l-48 -27l-168 -307v-165l99 -24l-8 -35h-318l-8 35l99 24v165l-168 307l-48 27l7 30h248l6 -36zM452 654h-315v67h315v-67z" />
    <glyph glyph-name="ymacron" unicode="&#x233;" horiz-adv-x="486" 
d="M218 -40l-173 415l-45 30l7 31h232l6 -35l-64 -15l65 -165c28 -72 31 -118 31 -118h4s11 51 34 119l55 161l-63 19l5 34h168l6 -33l-46 -16l-147 -394c-52 -140 -107 -211 -208 -211c-63 0 -91 37 -91 81c0 42 25 69 67 69c43 0 62 -30 62 -62c0 -21 -9 -34 -16 -42
c43 4 89 64 111 132zM394 509h-285v68h285v-68z" />
    <glyph glyph-name="dotlessj" unicode="&#x237;" horiz-adv-x="259" 
d="M201 448v-498c0 -92 -69 -169 -202 -169c-61 0 -101 21 -101 72c0 39 28 62 65 62c41 0 58 -29 58 -62c0 -17 -6 -31 -12 -40c34 0 61 33 61 109v401l-49 66v11l158 48h22z" />
    <glyph glyph-name="schwa" unicode="&#x259;" horiz-adv-x="454" 
d="M296 204c0 92 -50 146 -144 146c-35 0 -63 -7 -101 -27l-12 19c39 64 103 104 182 104c113 0 199 -73 199 -214c0 -159 -104 -242 -220 -242c-118 0 -187 80 -160 214h256zM204 35c44 0 83 46 90 127l-147 -8c-8 -52 4 -119 57 -119z" />
    <glyph glyph-name="ezh" unicode="&#x292;" horiz-adv-x="461" 
d="M424 422l-178 -262v-4c102 -11 164 -74 164 -162c0 -136 -121 -184 -240 -184c-87 0 -148 28 -148 93c0 39 26 67 66 67c38 0 63 -30 63 -60c0 -26 -14 -44 -30 -51c12 -10 26 -13 46 -13c68 0 116 44 116 122c0 94 -70 137 -164 147l-9 25l160 253h-128l-82 -107l-22 4
l11 146h370z" />
    <glyph glyph-name="caron" unicode="&#x2c7;" horiz-adv-x="486" 
d="M257 482h-30l-147 185h121l70 -98l77 98h58z" />
    <glyph glyph-name="breve" unicode="&#x2d8;" horiz-adv-x="444" 
d="M222 571c60 0 96 31 102 89h38c2 -8 2 -15 2 -24c0 -81 -54 -144 -142 -144s-142 63 -142 144c0 9 0 16 2 24h38c6 -58 42 -89 102 -89z" />
    <glyph glyph-name="dotaccent" unicode="&#x2d9;" horiz-adv-x="314" 
d="M80 573c0 46 35 72 76 72c43 0 78 -26 78 -72c0 -45 -35 -72 -78 -72c-41 0 -76 27 -76 72z" />
    <glyph glyph-name="ring" unicode="&#x2da;" horiz-adv-x="377" 
d="M80 592c0 56 43 102 108 102c64 0 109 -46 109 -102c0 -58 -45 -104 -109 -104c-69 0 -108 46 -108 104zM131 590c0 -30 20 -54 57 -54c34 0 55 24 55 54c0 33 -21 57 -55 57c-35 0 -57 -24 -57 -57z" />
    <glyph glyph-name="ogonek" unicode="&#x2db;" horiz-adv-x="396" 
d="M80 -117c0 85 88 121 183 146l9 -22c-57 -24 -90 -49 -90 -99c0 -34 21 -53 52 -53c26 0 43 6 66 31l16 -19c-20 -51 -60 -82 -126 -82c-56 0 -110 26 -110 98z" />
    <glyph glyph-name="hungarumlaut" unicode="&#x2dd;" horiz-adv-x="485" 
d="M378 578l-113 -95l-25 23l65 131c17 35 44 45 77 19c34 -28 26 -54 -4 -78zM218 578l-113 -95l-25 23l65 131c17 35 44 45 77 19c34 -28 26 -54 -4 -78z" />
    <glyph glyph-name="uni0312" unicode="&#x312;" horiz-adv-x="323" 
d="M136 587h7c5 20 26 27 38 27c39 0 58 -28 58 -61c0 -41 -32 -67 -71 -67c-55 0 -88 37 -88 90c0 82 69 120 152 125l9 -20c-70 -21 -105 -47 -105 -94z" />
    <glyph glyph-name="uni0331" unicode="&#x331;" horiz-adv-x="445" 
d="M365 -140h-285v68h285v-68z" />
    <glyph glyph-name="pi" unicode="&#x3c0;" horiz-adv-x="606" 
d="M581 93l11 -20c-27 -47 -65 -82 -140 -82c-67 0 -114 34 -114 115c0 55 29 140 48 215h-132l-29 -224c-9 -68 -41 -106 -98 -106c-56 0 -85 26 -85 73c0 40 26 69 63 69c29 0 56 -13 65 -47l29 235h-24c-82 0 -110 -9 -129 -67l-28 10c-1 108 49 172 162 172h390l8 -9
l-34 -106h-101v-167c0 -57 30 -82 71 -82c25 0 50 9 67 21z" />
    <glyph glyph-name="uni0E3F" unicode="&#xe3f;" horiz-adv-x="645" 
d="M554 441c0 -77 -51 -125 -132 -131v-4c102 -12 159 -59 159 -148c0 -122 -103 -158 -214 -158h-14v-110h-44v110h-255l-7 32l64 23v478l-64 23l7 32h255v109h44v-109h2c118 0 199 -50 199 -147zM445 165c0 64 -32 105 -92 112v-229c63 6 92 44 92 117zM247 62l32 -14h30
v230h-62v-216zM247 538v-213h62v213h-62zM425 434c0 60 -22 93 -72 102v-210c47 6 72 39 72 108z" />
    <glyph glyph-name="Ddotbelow" unicode="&#x1e0c;" horiz-adv-x="634" 
d="M42 588h227c184 0 328 -74 328 -285c0 -213 -146 -303 -314 -303h-241l-7 32l64 23v478l-64 23zM235 60l39 -15c132 3 178 87 178 252c0 171 -65 242 -191 242h-26v-479zM223 -125c0 46 34 72 75 72c43 0 77 -26 77 -72c0 -45 -34 -72 -77 -72c-41 0 -75 27 -75 72z" />
    <glyph glyph-name="ddotbelow" unicode="&#x1e0d;" horiz-adv-x="549" 
d="M169 231c0 -106 42 -160 132 -160c14 0 33 4 47 12v285c-18 22 -42 31 -70 31c-65 0 -109 -59 -109 -168zM359 55l-3 1c-29 -39 -74 -66 -135 -66c-117 0 -187 80 -187 213c0 171 114 243 232 243c38 0 62 -6 82 -16v144l-47 54v11l156 42h22v-596l52 -46v-16l-164 -31z
M197 -125c0 46 34 72 75 72c44 0 77 -26 77 -72c0 -45 -33 -72 -77 -72c-41 0 -75 27 -75 72z" />
    <glyph glyph-name="Dcedilla" unicode="&#x1e10;" horiz-adv-x="634" 
d="M194 -177l18 24c12 -11 32 -22 57 -22s43 11 43 35c0 38 -33 46 -70 57l32 83h-232l-7 32l64 23v478l-64 23l7 32h227c184 0 328 -74 328 -285c0 -200 -128 -292 -283 -302l-17 -42c43 -5 107 -28 107 -89c0 -62 -49 -88 -117 -88c-44 0 -74 16 -93 41zM235 60l39 -15
c132 3 178 87 178 252c0 171 -65 242 -191 242h-26v-479z" />
    <glyph glyph-name="dcedilla" unicode="&#x1e11;" horiz-adv-x="549" 
d="M160 -177l18 24c12 -11 31 -22 57 -22c25 0 42 11 42 35c0 38 -32 46 -69 57l29 74c-6 -1 -11 -1 -16 -1c-117 0 -187 80 -187 213c0 171 114 243 232 243c38 0 62 -6 82 -16v144l-47 54v11l156 42h22v-596l52 -46v-16l-164 -31l-8 63l-3 1c-19 -26 -45 -46 -77 -56
l-17 -41c44 -5 108 -28 108 -89c0 -62 -49 -88 -117 -88c-44 0 -75 16 -93 41zM169 231c0 -106 42 -160 132 -160c14 0 33 4 47 12v285c-18 22 -42 31 -70 31c-65 0 -109 -59 -109 -168z" />
    <glyph glyph-name="Hdotbelow" unicode="&#x1e24;" horiz-adv-x="707" 
d="M415 588h250l7 -32l-64 -23v-478l64 -23l-7 -32h-250l-7 32l64 23v216h-237v-216l64 -23l-7 -32h-250l-7 32l64 23v478l-64 23l7 32h250l7 -32l-64 -23v-210h237v210l-64 23zM278 -125c0 46 35 72 76 72c43 0 77 -26 77 -72c0 -45 -34 -72 -77 -72c-41 0 -76 27 -76 72z
" />
    <glyph glyph-name="hdotbelow" unicode="&#x1e25;" horiz-adv-x="553" 
d="M354 46v221c0 58 -30 88 -71 88c-30 0 -57 -13 -80 -34v-273l59 -19l-13 -29h-218v28l41 18v528l-47 54v11l156 42h22v-319h4c34 56 87 84 147 84c65 0 131 -34 131 -151v-247l58 -19l-13 -29h-217v28zM202 -125c0 46 34 72 75 72c44 0 77 -26 77 -72
c0 -45 -33 -72 -77 -72c-41 0 -75 27 -75 72z" />
    <glyph glyph-name="Ldotbelow" unicode="&#x1e36;" horiz-adv-x="511" 
d="M300 556l-65 -23v-464l33 -17h112l97 155l26 -6l-23 -201h-438l-7 32l64 23v478l-64 23l7 32h250zM179 -125c0 46 34 72 75 72c44 0 77 -26 77 -72c0 -45 -33 -72 -77 -72c-41 0 -75 27 -75 72z" />
    <glyph glyph-name="ldotbelow" unicode="&#x1e37;" horiz-adv-x="278" 
d="M203 48l60 -19l-13 -29h-219v28l41 18v528l-47 54v11l156 42h22v-633zM63 -125c0 46 34 72 75 72c43 0 77 -26 77 -72c0 -45 -34 -72 -77 -72c-41 0 -75 27 -75 72z" />
    <glyph glyph-name="uni004C032300AF" unicode="&#x1e38;" horiz-adv-x="511" 
d="M308 647h-272l-2 68h276zM300 556l-65 -23v-464l33 -17h112l97 155l26 -6l-23 -201h-438l-7 32l64 23v478l-64 23l7 32h250zM179 -125c0 46 34 72 75 72c44 0 77 -26 77 -72c0 -45 -33 -72 -77 -72c-41 0 -75 27 -75 72z" />
    <glyph glyph-name="ldotbelowmacron" unicode="&#x1e39;" horiz-adv-x="278" 
d="M203 48l60 -19l-13 -29h-219v28l41 18v528l-47 54v11l156 42h22v-633zM63 -125c0 46 34 72 75 72c43 0 77 -26 77 -72c0 -45 -34 -72 -77 -72c-41 0 -75 27 -75 72zM296 727h-315v68h315v-68z" />
    <glyph glyph-name="Mdotbelow" unicode="&#x1e42;" horiz-adv-x="831" 
d="M551 357l-133 -357h-72l-137 357c-26 68 -45 141 -45 141h-4s6 -78 6 -142v-301l76 -23l-7 -32h-193l-7 32l64 23v478l-64 23l7 32h224l122 -330c24 -66 28 -109 28 -109h4s5 40 29 108l120 331h220l7 -32l-64 -23v-478l64 -23l-7 -32h-249l-8 32l64 23v301
c0 64 6 142 6 142h-4s-21 -72 -47 -141zM314 -125c0 46 34 72 75 72c43 0 77 -26 77 -72c0 -45 -34 -72 -77 -72c-41 0 -75 27 -75 72z" />
    <glyph glyph-name="mdotbelow" unicode="&#x1e43;" horiz-adv-x="830" 
d="M485 319v-271l59 -19l-13 -29h-213v28l36 17v227c0 50 -22 81 -65 81c-27 0 -54 -12 -79 -34v-271l59 -19l-13 -29h-218v28l41 16v276l-42 66v11l152 49h20l-3 -87h4c40 64 89 87 146 87s104 -27 120 -89h4c41 66 88 89 149 89c67 0 132 -35 132 -146v-252l59 -19
l-13 -29h-214v28l37 17v226c0 52 -23 82 -65 82c-30 0 -56 -12 -80 -34zM356 -125c0 46 34 72 75 72c44 0 78 -26 78 -72c0 -45 -34 -72 -78 -72c-41 0 -75 27 -75 72z" />
    <glyph glyph-name="Ndotaccent" unicode="&#x1e44;" horiz-adv-x="651" 
d="M166 319v-264l76 -23l-7 -32h-193l-7 32l64 23v478l-64 23l7 32h190l208 -293c41 -57 65 -118 65 -118h4s-5 77 -5 150v206l-76 23l7 32h188l8 -32l-65 -23v-533h-77l-257 353c-43 57 -68 118 -68 118h-4s6 -77 6 -152zM256 705c0 46 35 72 76 72c43 0 77 -26 77 -72
c0 -45 -34 -72 -77 -72c-41 0 -76 27 -76 72z" />
    <glyph glyph-name="ndotaccent" unicode="&#x1e45;" horiz-adv-x="561" 
d="M492 48l59 -19l-13 -29h-219v28l41 19v218c0 65 -34 87 -71 87c-34 0 -61 -17 -79 -34v-270l59 -19l-13 -29h-218v28l41 18v274l-42 66v11l151 49h21l-3 -87h4c36 57 86 87 153 87c73 0 129 -51 129 -153v-245zM203 573c0 46 35 72 76 72c43 0 78 -26 78 -72
c0 -45 -35 -72 -78 -72c-41 0 -76 27 -76 72z" />
    <glyph glyph-name="Ndotbelow" unicode="&#x1e46;" horiz-adv-x="651" 
d="M166 319v-264l76 -23l-7 -32h-193l-7 32l64 23v478l-64 23l7 32h190l208 -293c41 -57 65 -118 65 -118h4s-5 77 -5 150v206l-76 23l7 32h188l8 -32l-65 -23v-533h-77l-257 353c-43 57 -68 118 -68 118h-4s6 -77 6 -152zM253 -125c0 46 34 72 75 72c44 0 77 -26 77 -72
c0 -45 -33 -72 -77 -72c-41 0 -75 27 -75 72z" />
    <glyph glyph-name="ndotbelow" unicode="&#x1e47;" horiz-adv-x="561" 
d="M492 48l59 -19l-13 -29h-219v28l41 19v218c0 65 -34 87 -71 87c-34 0 -61 -17 -79 -34v-270l59 -19l-13 -29h-218v28l41 18v274l-42 66v11l151 49h21l-3 -87h4c36 57 86 87 153 87c73 0 129 -51 129 -153v-245zM204 -125c0 46 34 72 75 72c44 0 78 -26 78 -72
c0 -45 -34 -72 -78 -72c-41 0 -75 27 -75 72z" />
    <glyph glyph-name="Rdotbelow" unicode="&#x1e5a;" horiz-adv-x="613" 
d="M235 539v-232h53c65 0 104 30 104 118c0 79 -38 114 -104 114h-53zM549 53l70 -23l-7 -30h-193l-101 212c-15 32 -34 48 -83 49v-206l64 -23l-7 -32h-250l-7 32l64 23v478l-64 23l7 32h292c102 0 202 -38 202 -159c0 -100 -81 -147 -159 -154v-5c42 -5 76 -29 96 -68z
M224 -125c0 46 34 72 75 72c44 0 77 -26 77 -72c0 -45 -33 -72 -77 -72c-41 0 -75 27 -75 72z" />
    <glyph glyph-name="rdotbelow" unicode="&#x1e5b;" horiz-adv-x="420" 
d="M210 50l85 -19l-13 -31h-244v28l41 18v273l-42 66v11l151 50h21l-3 -102h4c20 51 59 102 125 102c53 0 85 -31 85 -80c0 -45 -31 -73 -69 -73c-43 0 -69 29 -69 70c-25 -11 -49 -34 -72 -64v-249zM86 -125c0 46 35 72 76 72c43 0 77 -26 77 -72c0 -45 -34 -72 -77 -72
c-41 0 -76 27 -76 72z" />
    <glyph glyph-name="Rdotbelowmacron" unicode="&#x1e5c;" horiz-adv-x="613" 
d="M235 539v-232h53c65 0 104 30 104 118c0 79 -38 114 -104 114h-53zM549 53l70 -23l-7 -30h-193l-101 212c-15 32 -34 48 -83 49v-206l64 -23l-7 -32h-250l-7 32l64 23v478l-64 23l7 32h292c102 0 202 -38 202 -159c0 -100 -81 -147 -159 -154v-5c42 -5 76 -29 96 -68z
M224 -125c0 46 34 72 75 72c44 0 77 -26 77 -72c0 -45 -33 -72 -77 -72c-41 0 -75 27 -75 72zM442 654h-315v67h315v-67z" />
    <glyph glyph-name="rdotbelowmacron" unicode="&#x1e5d;" horiz-adv-x="420" 
d="M210 50l85 -19l-13 -31h-244v28l41 18v273l-42 66v11l151 50h21l-3 -102h4c20 51 59 102 125 102c53 0 85 -31 85 -80c0 -45 -31 -73 -69 -73c-43 0 -69 29 -69 70c-25 -11 -49 -34 -72 -64v-249zM90 -125c0 46 34 72 75 72c44 0 77 -26 77 -72c0 -45 -33 -72 -77 -72
c-41 0 -75 27 -75 72zM360 509h-285v68h285v-68z" />
    <glyph glyph-name="Sdotbelow" unicode="&#x1e62;" horiz-adv-x="485" 
d="M246 37c53 0 85 30 85 82c0 54 -28 80 -94 106l-72 30c-74 30 -117 80 -117 172c0 119 92 171 189 171c53 0 96 -12 127 -22l49 22l9 -166l-27 -6l-48 63c-30 42 -61 64 -113 64c-47 0 -79 -30 -79 -76s21 -73 81 -97l75 -30c94 -37 135 -91 135 -183
c0 -120 -91 -177 -198 -177c-72 0 -110 18 -138 32l-54 -32l-17 190l31 6l49 -71c33 -51 70 -78 127 -78zM175 -125c0 46 35 72 76 72c43 0 77 -26 77 -72c0 -45 -34 -72 -77 -72c-41 0 -76 27 -76 72z" />
    <glyph glyph-name="sdotbelow" unicode="&#x1e63;" horiz-adv-x="418" 
d="M37 137l27 6c53 -88 90 -110 146 -110c40 0 69 13 69 53c0 32 -19 50 -64 64l-65 21c-69 21 -107 61 -107 135c0 97 67 140 157 140c34 0 72 -8 95 -20l55 19l3 -131l-24 -6c-40 64 -78 93 -128 93c-36 0 -58 -19 -58 -48c0 -28 15 -44 50 -56l72 -24
c82 -27 119 -69 119 -145c0 -97 -68 -138 -177 -138c-38 0 -78 10 -107 23l-52 -23zM137 -125c0 46 34 72 75 72c43 0 77 -26 77 -72c0 -45 -34 -72 -77 -72c-41 0 -75 27 -75 72z" />
    <glyph glyph-name="Tdotbelow" unicode="&#x1e6c;" horiz-adv-x="554" 
d="M110 35l99 24v479h-92l-82 -112l-21 5v157h526v-157l-21 -5l-82 112h-92v-479l99 -24l-8 -35h-318zM200 -125c0 46 35 72 76 72c43 0 77 -26 77 -72c0 -45 -34 -72 -77 -72c-41 0 -76 27 -76 72z" />
    <glyph glyph-name="tdotbelow" unicode="&#x1e6d;" horiz-adv-x="343" 
d="M9 384v33l160 137h30v-118h132l-7 -52h-124v-236c0 -58 22 -80 62 -80c26 0 46 6 74 21l10 -24c-31 -47 -81 -75 -145 -75c-78 0 -132 39 -132 141v253h-60zM114 -125c0 46 34 72 75 72c44 0 78 -26 78 -72c0 -45 -34 -72 -78 -72c-41 0 -75 27 -75 72z" />
    <glyph glyph-name="Wgrave" unicode="&#x1e80;" horiz-adv-x="833" 
d="M520 0l-78 293c-19 70 -23 139 -23 139h-4s-8 -70 -26 -139l-76 -293h-124l-133 530l-49 28l7 30h248l6 -36l-68 -16l64 -291c15 -68 19 -131 19 -131h4s9 58 27 132l84 342h103l92 -341c19 -72 21 -133 21 -133h4s5 59 22 133l67 284l-75 22l5 35h182l7 -30l-49 -27
l-133 -531h-124zM507 616l-138 65c-37 15 -57 51 -31 84c25 32 65 27 90 -6l94 -122z" />
    <glyph glyph-name="wgrave" unicode="&#x1e81;" horiz-adv-x="719" 
d="M4 436h233l6 -34l-61 -16l49 -177c16 -56 20 -99 20 -99h4s5 43 22 100l68 226h98l66 -227c16 -55 23 -99 23 -99h4s5 44 22 100l52 173l-63 19l5 34h165l5 -33l-45 -15l-124 -388h-109l-61 196c-15 46 -22 100 -22 100h-4s-9 -56 -23 -100l-59 -196h-113l-120 376
l-45 29zM415 486l-122 85c-34 21 -40 63 -6 91c33 27 75 13 91 -26l55 -133z" />
    <glyph glyph-name="Wacute" unicode="&#x1e82;" horiz-adv-x="833" 
d="M520 0l-78 293c-19 70 -23 139 -23 139h-4s-8 -70 -26 -139l-76 -293h-124l-133 530l-49 28l7 30h248l6 -36l-68 -16l64 -291c15 -68 19 -131 19 -131h4s9 58 27 132l84 342h103l92 -341c19 -72 21 -133 21 -133h4s5 59 22 133l67 284l-75 22l5 35h182l7 -30l-49 -27
l-133 -531h-124zM520 690l-138 -65l-15 21l94 122c25 33 65 38 90 6c26 -33 6 -69 -31 -84z" />
    <glyph glyph-name="wacute" unicode="&#x1e83;" horiz-adv-x="719" 
d="M4 436h233l6 -34l-61 -16l49 -177c16 -56 20 -99 20 -99h4s5 43 22 100l68 226h98l66 -227c16 -55 23 -99 23 -99h4s5 44 22 100l52 173l-63 19l5 34h165l5 -33l-45 -15l-124 -388h-109l-61 196c-15 46 -22 100 -22 100h-4s-9 -56 -23 -100l-59 -196h-113l-120 376
l-45 29zM478 571l-121 -85l-19 17l55 133c17 39 59 53 91 26c35 -28 28 -70 -6 -91z" />
    <glyph glyph-name="Wdieresis" unicode="&#x1e84;" horiz-adv-x="833" 
d="M520 0l-78 293c-19 70 -23 139 -23 139h-4s-8 -70 -26 -139l-76 -293h-124l-133 530l-49 28l7 30h248l6 -36l-68 -16l64 -291c15 -68 19 -131 19 -131h4s9 58 27 132l84 342h103l92 -341c19 -72 21 -133 21 -133h4s5 59 22 133l67 284l-75 22l5 35h182l7 -30l-49 -27
l-133 -531h-124zM279 687c0 43 31 67 68 67c41 0 71 -24 71 -67c0 -40 -30 -65 -71 -65c-37 0 -68 25 -68 65zM472 686c0 43 31 67 69 67c40 0 71 -24 71 -67c0 -39 -31 -65 -71 -65c-38 0 -69 26 -69 65z" />
    <glyph glyph-name="wdieresis" unicode="&#x1e85;" horiz-adv-x="719" 
d="M4 436h233l6 -34l-61 -16l49 -177c16 -56 20 -99 20 -99h4s5 43 22 100l68 226h98l66 -227c16 -55 23 -99 23 -99h4s5 44 22 100l52 173l-63 19l5 34h165l5 -33l-45 -15l-124 -388h-109l-61 196c-15 46 -22 100 -22 100h-4s-9 -56 -23 -100l-59 -196h-113l-120 376
l-45 29zM215 565c0 42 31 67 68 67c41 0 71 -25 71 -67c0 -40 -30 -66 -71 -66c-37 0 -68 26 -68 66zM408 564c0 42 32 67 69 67c41 0 71 -25 71 -67c0 -40 -30 -66 -71 -66c-37 0 -69 26 -69 66z" />
    <glyph glyph-name="Idotbelow" unicode="&#x1eca;" horiz-adv-x="334" 
d="M42 588h250l7 -32l-64 -23v-478l64 -23l-7 -32h-250l-7 32l64 23v478l-64 23zM92 -125c0 46 35 72 76 72c43 0 77 -26 77 -72c0 -45 -34 -72 -77 -72c-41 0 -76 27 -76 72z" />
    <glyph glyph-name="idotbelow" unicode="&#x1ecb;" horiz-adv-x="287" 
d="M63 579c0 46 35 82 81 82c45 0 81 -36 81 -82c0 -45 -36 -80 -81 -80c-46 0 -81 35 -81 80zM210 48l59 -19l-13 -29h-218v28l41 18v274l-42 66v11l151 49h22v-398zM65 -125c0 46 34 72 75 72c44 0 77 -26 77 -72c0 -45 -33 -72 -77 -72c-41 0 -75 27 -75 72z" />
    <glyph glyph-name="Odotbelow" unicode="&#x1ecc;" horiz-adv-x="637" 
d="M319 38c90 0 131 72 131 256c0 185 -41 256 -131 256c-91 0 -132 -71 -132 -256c0 -184 41 -256 132 -256zM319 -10c-180 0 -282 116 -282 304s102 304 282 304c179 0 281 -116 281 -304s-102 -304 -281 -304zM240 -125c0 46 35 72 76 72c43 0 77 -26 77 -72
c0 -45 -34 -72 -77 -72c-41 0 -76 27 -76 72z" />
    <glyph glyph-name="odotbelow" unicode="&#x1ecd;" 
d="M482 218c0 -151 -89 -228 -224 -228s-224 77 -224 228s89 228 224 228s224 -77 224 -228zM173 218c0 -116 18 -182 85 -182s85 66 85 182s-18 182 -85 182s-85 -66 -85 -182zM184 -125c0 46 35 72 76 72c43 0 77 -26 77 -72c0 -45 -34 -72 -77 -72c-41 0 -76 27 -76 72z
" />
    <glyph glyph-name="Udotbelow" unicode="&#x1ee4;" horiz-adv-x="631" 
d="M550 533v-325c0 -139 -90 -218 -229 -218c-138 0 -240 59 -240 214v329l-64 23l7 32h249l8 -32l-64 -23v-327c0 -106 48 -150 129 -150c82 0 137 48 137 153v324l-76 23l8 32h191l8 -32zM237 -125c0 46 34 72 75 72c44 0 78 -26 78 -72c0 -45 -34 -72 -78 -72
c-41 0 -75 27 -75 72z" />
    <glyph glyph-name="udotbelow" unicode="&#x1ee5;" horiz-adv-x="528" 
d="M330 320l-42 66v11l151 49h22v-359l49 -46v-17l-165 -31l-11 69h-4c-31 -50 -81 -72 -134 -72c-72 0 -139 38 -139 152v178l-42 66v11l151 49h22v-291c0 -61 24 -86 64 -86c28 0 50 9 78 30v221zM190 -125c0 46 34 72 75 72c44 0 78 -26 78 -72c0 -45 -34 -72 -78 -72
c-41 0 -75 27 -75 72z" />
    <glyph glyph-name="Ygrave" unicode="&#x1ef2;" horiz-adv-x="572" 
d="M196 536l89 -171c31 -59 32 -90 32 -90h4s6 29 39 89l92 168l-76 21l5 35h182l7 -30l-48 -27l-168 -307v-165l99 -24l-8 -35h-318l-8 35l99 24v165l-168 307l-48 27l7 30h248l6 -36zM356 616l-139 65c-36 15 -56 51 -31 84c25 32 65 27 90 -6l94 -122z" />
    <glyph glyph-name="ygrave" unicode="&#x1ef3;" horiz-adv-x="486" 
d="M218 -40l-173 415l-45 30l7 31h232l6 -35l-64 -15l65 -165c28 -72 31 -118 31 -118h4s11 51 34 119l55 161l-63 19l5 34h168l6 -33l-46 -16l-147 -394c-52 -140 -107 -211 -208 -211c-63 0 -91 37 -91 81c0 42 25 69 67 69c43 0 62 -30 62 -62c0 -21 -9 -34 -16 -42
c43 4 89 64 111 132zM296 486l-122 85c-33 21 -40 63 -5 91c32 27 74 13 90 -26l55 -133z" />
    <glyph glyph-name="Ytilde" unicode="&#x1ef8;" horiz-adv-x="572" 
d="M196 536l89 -171c31 -59 32 -90 32 -90h4s6 29 39 89l92 168l-76 21l5 35h182l7 -30l-48 -27l-168 -307v-165l99 -24l-8 -35h-318l-8 35l99 24v165l-168 307l-48 27l7 30h248l6 -36zM311 653l-61 25c-15 6 -27 9 -39 9c-28 -1 -48 -19 -51 -58l-25 4c-6 15 -10 29 -10 45
c0 53 40 91 99 91c18 0 38 -4 58 -12l61 -23c17 -6 32 -11 46 -11c23 0 41 16 44 54l26 -4c6 -18 10 -34 10 -50c0 -51 -35 -84 -89 -85c-20 0 -44 5 -69 15z" />
    <glyph glyph-name="ytilde" unicode="&#x1ef9;" horiz-adv-x="486" 
d="M218 -40l-173 415l-45 30l7 31h232l6 -35l-64 -15l65 -165c28 -72 31 -118 31 -118h4s11 51 34 119l55 161l-63 19l5 34h168l6 -33l-46 -16l-147 -394c-52 -140 -107 -211 -208 -211c-63 0 -91 37 -91 81c0 42 25 69 67 69c43 0 62 -30 62 -62c0 -21 -9 -34 -16 -42
c43 4 89 64 111 132zM263 510l-59 25c-14 6 -26 9 -37 9c-27 -1 -47 -19 -49 -58l-25 4c-5 15 -9 29 -9 45c0 53 39 92 95 92c17 0 37 -4 56 -12l59 -24c15 -6 30 -11 43 -11c23 0 40 16 43 54l25 -4c6 -17 9 -33 9 -50c0 -51 -34 -84 -85 -84c-20 0 -42 4 -66 14z" />
    <glyph glyph-name="enspace" unicode="&#x2002;" horiz-adv-x="500" 
 />
    <glyph glyph-name="emspace" unicode="&#x2003;" horiz-adv-x="1000" 
 />
    <glyph glyph-name="threeperemspace" unicode="&#x2004;" horiz-adv-x="333" 
 />
    <glyph glyph-name="fourperemspace" unicode="&#x2005;" horiz-adv-x="250" 
 />
    <glyph glyph-name="sixperemspace" unicode="&#x2006;" horiz-adv-x="167" 
 />
    <glyph glyph-name="figurespace" unicode="&#x2007;" horiz-adv-x="570" 
 />
    <glyph glyph-name="punctuationspace" unicode="&#x2008;" horiz-adv-x="190" 
 />
    <glyph glyph-name="thinspace" unicode="&#x2009;" horiz-adv-x="100" 
 />
    <glyph glyph-name="hairspace" unicode="&#x200a;" horiz-adv-x="50" 
 />
    <glyph glyph-name="zerowidthspace" unicode="&#x200b;" horiz-adv-x="0" 
 />
    <glyph glyph-name="figuredash" unicode="&#x2012;" horiz-adv-x="590" 
d="M40 199v66h510v-66h-510z" />
    <glyph glyph-name="uni2015" unicode="&#x2015;" horiz-adv-x="1250" 
d="M40 199v66h1170v-66h-1170z" />
    <glyph glyph-name="doublebar" unicode="&#x2016;" horiz-adv-x="245" 
d="M38 -141v842h62v-842h-62zM145 -141v842h62v-842h-62z" />
    <glyph glyph-name="tripleprime" unicode="&#x2034;" horiz-adv-x="574" 
d="M124 364h-38l-49 225c0 35 29 64 68 64s68 -29 68 -64zM306 364h-38l-49 225c0 35 29 64 68 64s68 -29 68 -64zM488 364h-38l-49 225c0 35 29 64 68 64s68 -29 68 -64z" />
    <glyph glyph-name="fraction" unicode="&#x2044;" horiz-adv-x="128" 
d="M-184 -39l435 667h61l-436 -667h-60z" />
    <glyph glyph-name="uni2070" unicode="&#x2070;" horiz-adv-x="395" 
d="M35 411c0 117 68 187 163 187c100 0 162 -60 162 -187c0 -116 -62 -184 -162 -184c-95 0 -163 60 -163 184zM152 411c0 -92 25 -135 75 -135c49 0 79 50 79 135c0 78 -28 132 -81 132c-46 0 -73 -34 -73 -132z" />
    <glyph glyph-name="uni2074" unicode="&#x2074;" horiz-adv-x="391" 
d="M298 356h71v-46h-71v-76h-106v76h-187v32l174 246h119v-232zM192 356v111c0 36 4 72 4 72h-4s-10 -25 -30 -55l-57 -82c-19 -30 -40 -46 -40 -46v-4s12 4 49 4h78z" />
    <glyph glyph-name="uni2075" unicode="&#x2075;" horiz-adv-x="329" 
d="M32 331l41 5c6 -44 30 -63 67 -63c32 0 53 16 53 49c0 44 -31 67 -130 70l19 196h207v-79h-173l-5 -54c120 -1 191 -26 191 -117c0 -81 -69 -113 -148 -113c-88 0 -122 49 -122 106z" />
    <glyph glyph-name="uni2076" unicode="&#x2076;" horiz-adv-x="366" 
d="M145 432c-7 -22 -11 -46 -11 -75c0 -61 21 -94 55 -94c32 0 51 27 51 85c0 54 -25 86 -68 86c-13 0 -20 -1 -27 -2zM158 465c13 3 26 4 40 4c75 0 133 -41 133 -117c0 -78 -59 -125 -149 -125c-93 0 -152 44 -152 142c0 123 108 220 295 229l6 -24
c-93 -28 -146 -56 -173 -109z" />
    <glyph glyph-name="uni2077" unicode="&#x2077;" horiz-adv-x="360" 
d="M151 227l-57 20l140 249h-146l-44 -61l-22 6l19 147h303l5 -7z" />
    <glyph glyph-name="uni2078" unicode="&#x2078;" horiz-adv-x="388" 
d="M194 398c-29 0 -56 -18 -56 -69s21 -72 56 -72s56 21 56 72s-27 69 -56 69zM194 226c-104 0 -162 37 -162 100c0 44 29 76 86 86v5c-52 9 -73 43 -73 83c0 58 49 98 149 98s149 -40 149 -98c0 -40 -21 -74 -73 -83v-5c57 -10 86 -42 86 -86c0 -63 -58 -100 -162 -100z
M194 566c-32 0 -51 -24 -51 -68s22 -67 51 -67s51 23 51 67s-19 68 -51 68z" />
    <glyph glyph-name="uni2079" unicode="&#x2079;" horiz-adv-x="365" 
d="M218 393c8 22 11 46 11 75c0 61 -20 94 -54 94c-32 0 -51 -27 -51 -85c0 -54 24 -86 67 -86c14 0 21 1 27 2zM206 360c-14 -3 -26 -4 -41 -4c-74 0 -133 38 -133 117c0 75 60 125 150 125c93 0 152 -44 152 -144c0 -122 -107 -219 -295 -227l-6 24c93 28 145 56 173 109z
" />
    <glyph glyph-name="uni207A" unicode="&#x207a;" horiz-adv-x="471" 
d="M49 452h153v150h65v-150h156v-60h-156v-163h-65v163h-153v60z" />
    <glyph glyph-name="uni207B" unicode="&#x207b;" horiz-adv-x="469" 
d="M422 391h-375v62h375v-62z" />
    <glyph glyph-name="uni207C" unicode="&#x207c;" horiz-adv-x="472" 
d="M423 328h-374v63h374v-63zM423 464h-374v62h374v-62z" />
    <glyph glyph-name="uni207D" unicode="&#x207d;" horiz-adv-x="233" 
d="M106 411c0 -105 40 -169 90 -239h-75c-41 55 -84 125 -84 239c0 115 43 185 84 241h75c-50 -71 -90 -137 -90 -241z" />
    <glyph glyph-name="uni207E" unicode="&#x207e;" horiz-adv-x="233" 
d="M127 411c0 104 -40 170 -90 241h75c41 -56 84 -126 84 -241c0 -114 -43 -184 -84 -239h-75c50 70 90 134 90 239z" />
    <glyph glyph-name="n.superior" unicode="&#x207f;" horiz-adv-x="455" 
d="M383 315l37 -14l-9 -20h-169v20l27 13v143c0 46 -21 66 -49 66c-22 0 -39 -11 -49 -21v-187l38 -14l-9 -20h-170v20l28 13v188l-28 52v8l123 36h17l-2 -64h3c22 38 57 64 112 64c61 0 100 -35 100 -110v-173z" />
    <glyph glyph-name="uni2080" unicode="&#x2080;" horiz-adv-x="395" 
d="M35 177c0 117 68 187 163 187c100 0 162 -60 162 -187c0 -116 -62 -184 -162 -184c-95 0 -163 60 -163 184zM152 177c0 -92 25 -135 75 -135c49 0 79 50 79 135c0 78 -28 132 -81 132c-46 0 -73 -34 -73 -132z" />
    <glyph glyph-name="uni2081" unicode="&#x2081;" horiz-adv-x="349" 
d="M242 349v-298l93 -19l-10 -32h-274l-10 32l95 19v212h-97l-8 27l191 74z" />
    <glyph glyph-name="uni2082" unicode="&#x2082;" horiz-adv-x="367" 
d="M129 76h192v-76h-281l-11 54c120 61 173 109 173 175c0 44 -24 67 -60 67c-39 0 -56 -24 -58 -59c-1 -8 0 -17 2 -26l-34 -8c-6 15 -10 33 -10 49c-1 60 41 112 133 112c80 0 133 -44 133 -122c0 -97 -106 -140 -179 -166z" />
    <glyph glyph-name="uni2083" unicode="&#x2083;" horiz-adv-x="358" 
d="M32 97l42 5c4 -43 25 -63 66 -63c35 0 65 15 65 55c0 43 -25 67 -97 67l-5 28c64 11 83 28 83 66c0 33 -18 49 -49 49c-32 0 -48 -19 -48 -45c0 -7 1 -13 3 -18l-32 -8c-7 10 -11 24 -11 38c0 45 31 93 125 93c78 0 124 -32 124 -94c0 -50 -38 -78 -96 -84v-4
c69 -3 110 -32 110 -89c0 -76 -74 -102 -154 -102c-94 0 -126 47 -126 106z" />
    <glyph glyph-name="uni2084" unicode="&#x2084;" horiz-adv-x="391" 
d="M298 122h71v-46h-71v-76h-106v76h-187v32l174 246h119v-232zM192 122v111c0 36 4 72 4 72h-4s-10 -25 -30 -55l-57 -82c-19 -30 -40 -46 -40 -46v-4s12 4 49 4h78z" />
    <glyph glyph-name="uni2085" unicode="&#x2085;" horiz-adv-x="329" 
d="M32 97l41 5c6 -44 30 -63 67 -63c32 0 53 16 53 49c0 44 -31 67 -130 70l19 196h207v-79h-173l-5 -54c120 -1 191 -26 191 -117c0 -81 -69 -113 -148 -113c-88 0 -122 49 -122 106z" />
    <glyph glyph-name="uni2086" unicode="&#x2086;" horiz-adv-x="366" 
d="M145 198c-7 -22 -11 -46 -11 -75c0 -61 21 -94 55 -94c32 0 51 27 51 85c0 54 -25 86 -68 86c-13 0 -20 -1 -27 -2zM158 231c13 3 26 4 40 4c75 0 133 -41 133 -117c0 -78 -59 -125 -149 -125c-93 0 -152 44 -152 142c0 123 108 220 295 229l6 -24
c-93 -28 -146 -56 -173 -109z" />
    <glyph glyph-name="uni2087" unicode="&#x2087;" horiz-adv-x="360" 
d="M151 -7l-57 20l140 249h-146l-44 -61l-22 6l19 147h303l5 -7z" />
    <glyph glyph-name="uni2088" unicode="&#x2088;" horiz-adv-x="388" 
d="M194 164c-29 0 -56 -18 -56 -69s21 -72 56 -72s56 21 56 72s-27 69 -56 69zM194 -8c-104 0 -162 37 -162 100c0 44 29 76 86 86v5c-52 9 -73 43 -73 83c0 58 49 98 149 98s149 -40 149 -98c0 -40 -21 -74 -73 -83v-5c57 -10 86 -42 86 -86c0 -63 -58 -100 -162 -100z
M194 332c-32 0 -51 -24 -51 -68s22 -67 51 -67s51 23 51 67s-19 68 -51 68z" />
    <glyph glyph-name="uni2089" unicode="&#x2089;" horiz-adv-x="365" 
d="M218 159c8 22 11 46 11 75c0 61 -20 94 -54 94c-32 0 -51 -27 -51 -85c0 -54 24 -86 67 -86c14 0 21 1 27 2zM206 126c-14 -3 -26 -4 -41 -4c-74 0 -133 38 -133 117c0 75 60 125 150 125c93 0 152 -44 152 -144c0 -122 -107 -219 -295 -227l-6 24c93 28 145 56 173 109z
" />
    <glyph glyph-name="uni208A" unicode="&#x208a;" horiz-adv-x="471" 
d="M49 218h153v150h65v-150h156v-60h-156v-163h-65v163h-153v60z" />
    <glyph glyph-name="uni208B" unicode="&#x208b;" horiz-adv-x="469" 
d="M422 157h-375v62h375v-62z" />
    <glyph glyph-name="uni208C" unicode="&#x208c;" horiz-adv-x="472" 
d="M423 94h-374v63h374v-63zM423 230h-374v62h374v-62z" />
    <glyph glyph-name="uni208D" unicode="&#x208d;" horiz-adv-x="233" 
d="M106 177c0 -105 40 -169 90 -239h-75c-41 55 -84 125 -84 239c0 115 43 185 84 241h75c-50 -71 -90 -137 -90 -241z" />
    <glyph glyph-name="uni208E" unicode="&#x208e;" horiz-adv-x="233" 
d="M127 177c0 104 -40 170 -90 241h75c41 -56 84 -126 84 -241c0 -114 -43 -184 -84 -239h-75c50 70 90 134 90 239z" />
    <glyph glyph-name="uni20A1" unicode="&#x20a1;" horiz-adv-x="556" 
d="M300 -110l19 101h-7c-22 0 -42 2 -61 6l-21 -107h-41l23 117c-106 39 -160 143 -160 290c0 177 114 294 275 301l19 99h42l-20 -100c25 -2 48 -7 67 -14l22 114h42l-27 -134c21 -17 32 -39 32 -67c0 -40 -24 -65 -58 -67l-70 -358c49 3 81 17 119 43l19 -25
c-34 -52 -81 -85 -153 -95l-20 -104h-41zM270 94c18 -12 40 -20 65 -22l71 365c-18 9 -30 27 -30 52c0 22 10 45 31 54c-11 6 -26 10 -47 11zM190 302c0 -76 15 -135 45 -175l82 422c-76 -20 -127 -99 -127 -247z" />
    <glyph glyph-name="uni20A2" unicode="&#x20a2;" horiz-adv-x="594" 
d="M342 598c99 0 162 -36 162 -102c0 -42 -27 -67 -63 -67s-65 22 -65 60c0 22 10 45 31 54c-11 7 -27 11 -50 11c-98 0 -167 -80 -167 -252c0 -118 32 -190 94 -218v222l87 32h15l-2 -71h3c14 33 40 71 87 71c38 0 62 -24 62 -62c0 -33 -26 -55 -56 -55s-50 18 -49 48
c-15 -9 -25 -24 -44 -46v-152c43 5 73 19 108 43l19 -25c-41 -63 -101 -98 -202 -98c-172 0 -260 118 -260 306c0 183 121 301 290 301z" />
    <glyph glyph-name="franc" unicode="&#x20a3;" horiz-adv-x="833" 
d="M585 50l86 -19l-13 -31h-245v28l41 18v251h-207v-236l104 -26l-8 -35h-289l-7 32l64 23v478l-64 23l7 32h441v-157l-21 -5l-74 110h-153v-187h177l139 57h21l-3 -99h4c20 44 60 99 128 99c50 0 82 -31 82 -81c0 -44 -33 -74 -69 -74c-43 0 -72 30 -68 72
c-26 -11 -47 -34 -73 -64v-209z" />
    <glyph glyph-name="lira" unicode="&#x20a4;" horiz-adv-x="631" 
d="M100 346v43h100c14 140 90 209 229 209c83 0 142 -32 142 -97c0 -41 -25 -66 -61 -66c-33 0 -59 22 -59 55c0 29 17 46 36 51c-9 11 -30 17 -55 17c-53 0 -72 -36 -82 -106l-9 -63h155v-43h-161l-9 -71h146v-43h-152l-5 -35c-3 -24 -8 -46 -15 -67
c52 -18 103 -34 147 -34c62 0 90 13 95 77l25 5c5 -11 11 -34 11 -55c0 -92 -60 -132 -139 -132c-76 0 -128 35 -175 69c-33 -42 -81 -69 -145 -69c-67 0 -101 36 -101 89c0 59 41 92 105 92c19 0 39 -3 59 -7l6 67h-111v43h114l6 71h-97zM116 36c35 0 57 24 62 79
c-18 8 -37 13 -57 13c-34 0 -50 -20 -50 -47c0 -29 17 -45 45 -45z" />
    <glyph glyph-name="uni20A6" unicode="&#x20a6;" horiz-adv-x="766" 
d="M65 333v44h84v156l-64 23l7 32h190l150 -211h122v156l-76 23l7 32h188l8 -32l-65 -23v-156h85v-44h-85v-76h85v-44h-85v-213h-77l-155 213h-168v-158l76 -23l-7 -32h-193l-7 32l64 23v158h-83v44h83v76h-84zM216 319v-62h136l-70 96c-43 57 -68 118 -68 118h-4
s6 -77 6 -152zM559 177c0 0 -5 77 -5 150v6h-91l27 -38c41 -57 65 -118 65 -118h4z" />
    <glyph glyph-name="peseta" unicode="&#x20a7;" horiz-adv-x="1330" 
d="M608 384h-72c-12 -127 -127 -169 -236 -169h-53v-154l104 -26l-8 -35h-289l-7 32l64 23v478l-64 23l7 32h246c113 0 219 -38 235 -152h64l109 118h30v-118h125l-7 -52h-117v-234c0 -63 22 -95 76 -95c34 0 71 17 85 84h39c15 -66 77 -98 132 -98c41 0 74 10 74 47
c0 32 -18 48 -63 62l-65 21c-68 21 -107 61 -107 135c0 97 67 140 158 140c33 0 71 -8 94 -20l55 19l3 -131l-24 -6c-41 63 -79 92 -129 92c-36 0 -57 -18 -57 -47c0 -28 15 -44 51 -56l72 -24c81 -27 119 -68 119 -144c0 -97 -69 -138 -177 -138c-73 0 -128 25 -157 64
c-29 -46 -82 -64 -150 -64c-95 0 -160 42 -160 151v242zM247 539v-275h33c83 0 118 36 118 142c0 95 -44 133 -118 133h-33z" />
    <glyph glyph-name="uni20A8" unicode="&#x20a8;" horiz-adv-x="1019" 
d="M247 539v-232h53c65 0 104 30 104 118c0 79 -38 114 -104 114h-53zM311 32l-7 -32h-250l-7 32l64 23v478l-64 23l7 32h292c102 0 202 -38 202 -159c0 -100 -81 -147 -159 -154v-5c47 -8 97 -44 138 -87c87 -89 147 -142 227 -142c41 0 76 11 76 47c0 33 -20 48 -65 62
l-65 21c-68 21 -106 61 -106 135c0 97 66 140 157 140c33 0 71 -8 94 -20l56 19l3 -131l-25 -6c-41 63 -79 92 -128 92c-36 0 -57 -18 -57 -47c0 -28 15 -44 50 -56l72 -24c82 -27 119 -68 119 -144c0 -97 -70 -138 -205 -138c-141 0 -241 36 -317 126l-82 99
c-25 31 -47 44 -84 45v-206z" />
    <glyph glyph-name="uni20A9" unicode="&#x20a9;" horiz-adv-x="907" 
d="M557 0l-78 293c-19 70 -23 139 -23 139h-4s-8 -70 -26 -139l-76 -293h-124l-69 272h-103v44h92l-16 66h-76v44h65l-26 104l-49 28l7 30h248l6 -36l-68 -16l24 -110h134l40 162h103l43 -162h138l25 105l-75 22l5 35h182l7 -30l-49 -27l-27 -105h66v-44h-77l-16 -66h93v-44
h-104l-68 -272h-124zM593 382l18 -66h82l16 66h-116zM270 382l15 -66h83l16 66h-114zM324 114c0 0 9 58 27 132l6 26h-62l6 -27c15 -68 19 -131 19 -131h4zM655 114c0 0 5 59 22 133l6 25h-60l7 -25c19 -72 21 -133 21 -133h4z" />
    <glyph glyph-name="uni20AA" unicode="&#x20aa;" horiz-adv-x="795" 
d="M495 126h-68v328c0 56 -22 76 -83 76h-102v-530h-189l-6 31l63 24v478l-63 24l6 31h310c103 0 132 -50 132 -128v-334zM553 588h191l8 -31l-68 -25v-365c0 -100 -36 -167 -166 -167h-218v456h69v-399h115c48 0 69 27 69 75v456z" />
    <glyph glyph-name="uni20AE" unicode="&#x20ae;" horiz-adv-x="614" 
d="M135 275v48l104 30v185h-92l-82 -112l-21 5v157h526v-157l-21 -5l-82 112h-92v-145l102 30v-48l-102 -30v-72l103 30v-48l-103 -30v-166l99 -24l-8 -35h-318l-8 35l99 24v126l-103 -30v48l103 30v72z" />
    <glyph glyph-name="uni20B1" unicode="&#x20b1;" horiz-adv-x="690" 
d="M55 362v44h85v127l-64 23l7 32h246c123 0 237 -45 237 -182h82v-44h-87c-22 -110 -130 -147 -232 -147h-53v-154l104 -26l-8 -35h-289l-7 32l64 23v307h-85zM276 539v-133h151c0 95 -44 133 -118 133h-33zM309 264c70 0 106 26 115 98h-148v-98h33z" />
    <glyph glyph-name="afii61289" unicode="&#x2113;" horiz-adv-x="447" 
d="M10 319c32 9 63 18 92 28l33 177c23 123 88 162 177 162c88 0 125 -43 125 -111c0 -91 -78 -167 -200 -223l-55 -289c73 0 126 17 183 63l20 -19c-45 -72 -131 -116 -227 -116c-88 0 -115 51 -98 133l33 178c-24 -6 -49 -12 -74 -17zM272 538l-24 -126
c77 45 123 99 123 162c0 31 -11 53 -43 53c-33 0 -46 -35 -56 -89z" />
    <glyph glyph-name="afii61352" unicode="&#x2116;" horiz-adv-x="1102" 
d="M566 504v-504h-77l-258 353c-42 57 -67 118 -67 118h-4s6 -77 6 -152v-264l77 -23l-8 -32h-193l-7 32l63 23v478l-63 23l7 32h190l208 -293c41 -57 65 -118 65 -118h4s-6 77 -6 150v162c0 94 44 139 121 139c61 0 94 -32 94 -83c0 -43 -28 -67 -65 -67
c-35 0 -60 21 -60 54c0 16 4 30 16 38v4c-35 -1 -43 -34 -43 -70zM701 0l-10 52h328l-10 -52h-308zM856 452c95 0 166 -53 166 -169s-72 -167 -170 -167c-105 0 -167 51 -167 167c0 112 72 169 171 169zM854 151c41 0 57 52 57 132c0 90 -20 132 -58 132
c-39 0 -57 -46 -57 -132c0 -76 12 -132 58 -132z" />
    <glyph glyph-name="published" unicode="&#x2117;" horiz-adv-x="685" 
d="M36 294c0 178 137 307 306 307s307 -129 307 -307s-138 -306 -307 -306s-306 128 -306 306zM68 294c0 -163 124 -278 276 -278c151 0 275 115 275 278c0 162 -124 279 -275 279c-152 0 -276 -117 -276 -279zM345 249h-22v-78l44 -15l-4 -21h-167l-4 21l41 15v255l-41 15
l4 21h154c83 0 158 -12 158 -104c0 -93 -73 -109 -163 -109zM323 431v-152h19c49 0 71 17 71 78c0 58 -28 74 -69 74h-21z" />
    <glyph glyph-name="servicemark" unicode="&#x2120;" horiz-adv-x="714" 
d="M561 588h129l4 -22l-33 -11v-223l33 -11l-4 -22h-141l-3 22l31 11v189l-87 -222h-48l-89 222v-189l39 -11l-5 -22h-104l-3 22l31 11v223l-31 11l3 22h130l75 -197zM20 395l18 5c40 -59 68 -75 103 -75c26 0 41 9 41 32c0 20 -14 31 -49 43l-45 16c-41 14 -63 42 -63 86
c0 60 45 91 108 91c20 0 45 -4 61 -11l37 10l3 -85l-16 -4c-40 45 -58 60 -89 60c-19 0 -34 -9 -34 -27s11 -30 37 -39l55 -19c44 -15 68 -43 68 -88c0 -65 -47 -94 -119 -94c-26 0 -54 7 -73 15l-35 -15z" />
    <glyph glyph-name="ohm" unicode="&#x2126;" horiz-adv-x="741" 
d="M371 547c-111 0 -144 -85 -144 -211c0 -187 66 -263 110 -311l-8 -25h-281l-21 174l27 5l50 -70h130v4c-93 48 -152 113 -152 234c0 140 112 251 289 251c176 0 288 -111 288 -251c0 -121 -59 -186 -152 -234v-4h130l50 70l27 -5l-21 -174h-280l-9 25
c44 48 110 124 110 311c0 126 -33 211 -143 211z" />
    <glyph glyph-name="estimated" unicode="&#x212e;" horiz-adv-x="647" 
d="M323 598c196 0 279 -149 279 -303v-26h-431v-168c37 -36 87 -57 152 -57c89 0 150 37 184 102h66c-38 -90 -119 -155 -250 -155c-194 0 -278 150 -278 304s84 303 278 303zM323 546c-65 0 -115 -20 -152 -57v-169h305v169c-37 37 -88 57 -153 57z" />
    <glyph glyph-name="uni2153" unicode="&#x2153;" horiz-adv-x="885" 
d="M242 583v-298l93 -19l-10 -32h-274l-10 32l95 19v212h-97l-8 27l191 74zM215 -39l435 667h61l-436 -667h-60zM559 97l42 5c4 -43 26 -63 66 -63c35 0 65 15 65 55c0 43 -25 67 -97 67l-5 28c64 11 84 28 84 66c0 33 -19 49 -50 49c-32 0 -47 -19 -47 -45
c0 -7 1 -13 2 -18l-32 -8c-7 10 -11 24 -11 38c0 45 31 93 125 93c78 0 125 -32 125 -94c0 -50 -39 -78 -97 -84v-4c69 -3 110 -32 110 -89c0 -76 -73 -102 -154 -102c-94 0 -126 47 -126 106z" />
    <glyph glyph-name="uni2154" unicode="&#x2154;" horiz-adv-x="853" 
d="M134 310h187v-76h-281l-11 54c120 61 173 109 173 175c0 44 -24 67 -60 67c-39 0 -56 -24 -58 -59c-1 -8 0 -17 2 -26l-34 -8c-6 15 -10 33 -10 49c-1 60 41 112 133 112c80 0 133 -44 133 -122c0 -97 -101 -136 -174 -162v-4zM183 -39l436 667h60l-435 -667h-61zM527 97
l43 5c3 -43 25 -63 65 -63c36 0 65 15 65 55c0 43 -25 67 -97 67l-5 28c64 11 84 28 84 66c0 33 -19 49 -50 49c-32 0 -47 -19 -47 -45c0 -7 1 -13 2 -18l-32 -8c-7 10 -11 24 -11 38c0 45 32 93 125 93c78 0 125 -32 125 -94c0 -50 -39 -78 -96 -84v-4
c69 -3 110 -32 110 -89c0 -76 -74 -102 -155 -102c-94 0 -126 47 -126 106z" />
    <glyph glyph-name="uni215B" unicode="&#x215b;" horiz-adv-x="915" 
d="M242 583v-298l93 -19l-10 -32h-274l-10 32l95 19v212h-97l-8 27l191 74zM215 -39l435 667h61l-436 -667h-60zM721 164c-29 0 -56 -18 -56 -69s21 -72 56 -72s56 21 56 72s-27 69 -56 69zM721 -8c-104 0 -162 37 -162 100c0 44 29 76 86 86v5c-52 9 -73 43 -73 83
c0 58 49 98 149 98s149 -40 149 -98c0 -40 -20 -74 -72 -83v-5c56 -10 85 -42 85 -86c0 -63 -58 -100 -162 -100zM721 332c-32 0 -51 -24 -51 -68s23 -67 51 -67c29 0 51 23 51 67s-19 68 -51 68z" />
    <glyph glyph-name="uni215C" unicode="&#x215c;" horiz-adv-x="874" 
d="M32 332l42 5c4 -44 25 -64 66 -64c35 0 65 15 65 55c0 43 -25 67 -97 67l-5 28c64 11 83 28 83 66c0 33 -18 49 -49 49c-32 0 -48 -19 -48 -45c0 -7 1 -13 3 -18l-32 -8c-7 10 -11 24 -11 38c0 45 31 93 125 93c78 0 124 -32 124 -94c0 -50 -38 -78 -96 -84v-4
c69 -3 110 -32 110 -89c0 -76 -74 -102 -154 -102c-94 0 -126 48 -126 107zM174 -39l435 667h61l-436 -667h-60zM680 164c-29 0 -56 -18 -56 -69s21 -72 56 -72s56 21 56 72s-27 69 -56 69zM680 -8c-104 0 -162 37 -162 100c0 44 29 76 85 86v5c-52 9 -72 43 -72 83
c0 58 49 98 149 98s149 -40 149 -98c0 -40 -21 -74 -73 -83v-5c57 -10 86 -42 86 -86c0 -63 -58 -100 -162 -100zM680 332c-32 0 -51 -24 -51 -68s22 -67 51 -67c28 0 51 23 51 67s-19 68 -51 68z" />
    <glyph glyph-name="uni215D" unicode="&#x215d;" horiz-adv-x="845" 
d="M32 331l41 5c6 -44 30 -63 67 -63c32 0 53 16 53 49c0 44 -31 67 -130 70l19 196h207v-79h-173l-5 -54c120 -1 191 -26 191 -117c0 -81 -69 -113 -148 -113c-88 0 -122 49 -122 106zM145 -39l436 667h60l-435 -667h-61zM651 164c-29 0 -56 -18 -56 -69s21 -72 56 -72
s56 21 56 72s-27 69 -56 69zM651 -8c-104 0 -162 37 -162 100c0 44 29 76 86 86v5c-52 9 -72 43 -72 83c0 58 48 98 148 98c101 0 149 -40 149 -98c0 -40 -20 -74 -72 -83v-5c56 -10 85 -42 85 -86c0 -63 -58 -100 -162 -100zM651 332c-31 0 -51 -24 -51 -68s23 -67 51 -67
c29 0 52 23 52 67s-20 68 -52 68z" />
    <glyph glyph-name="uni215E" unicode="&#x215e;" horiz-adv-x="806" 
d="M151 227l-57 20l140 249h-146l-44 -61l-22 6l19 147h303l5 -7zM106 -39l435 667h61l-436 -667h-60zM612 164c-30 0 -56 -18 -56 -69s21 -72 56 -72s56 21 56 72s-28 69 -56 69zM612 -8c-104 0 -162 37 -162 100c0 44 29 76 85 86v5c-52 9 -72 43 -72 83
c0 58 48 98 149 98c100 0 148 -40 148 -98c0 -40 -20 -74 -72 -83v-5c57 -10 86 -42 86 -86c0 -63 -58 -100 -162 -100zM612 332c-32 0 -52 -24 -52 -68s23 -67 52 -67c28 0 51 23 51 67s-20 68 -51 68z" />
    <glyph glyph-name="arrowleft" unicode="&#x2190;" horiz-adv-x="696" 
d="M285 191l144 -163v-21l-65 -20l-314 286v42l314 285l65 -20v-20l-144 -163c-40 -46 -72 -67 -72 -67v-4s19 5 74 5h361v-74h-361c-55 0 -74 4 -74 4v-4s32 -21 72 -66z" />
    <glyph glyph-name="arrowup" unicode="&#x2191;" horiz-adv-x="702" 
d="M248 364l-163 -145h-21l-20 66l286 313h42l286 -313l-21 -66h-20l-163 145c-46 39 -66 71 -66 71h-4s4 -19 4 -74v-361h-74v361c0 55 4 74 4 74h-4s-21 -32 -66 -71z" />
    <glyph glyph-name="arrowright" unicode="&#x2192;" horiz-adv-x="696" 
d="M259 28l145 163c39 45 71 66 71 66v4s-19 -4 -74 -4h-361v74h361c55 0 74 -5 74 -5v4s-32 21 -71 67l-145 163v20l66 20l313 -285v-42l-313 -286l-66 20v21z" />
    <glyph glyph-name="arrowdown" unicode="&#x2193;" horiz-adv-x="702" 
d="M85 370l163 -145c45 -39 66 -71 66 -71h4s-4 19 -4 74v361h74v-361c0 -55 -4 -74 -4 -74h4s20 32 66 71l163 145h20l21 -66l-286 -313h-42l-286 313l20 66h21z" />
    <glyph glyph-name="uni2196" unicode="&#x2196;" horiz-adv-x="699" 
d="M202 300l-13 -217l-15 -15l-60 32l-20 424l30 30l424 -20l32 -60l-15 -15l-217 -13c-61 -4 -98 4 -98 4l-2 -3s16 -11 55 -49l302 -302l-53 -53l-302 302c-38 38 -49 53 -49 54l-2 -2s7 -36 3 -97z" />
    <glyph glyph-name="uni2197" unicode="&#x2197;" horiz-adv-x="699" 
d="M510 83l-13 217c-4 61 3 97 3 97l-2 3s-10 -16 -49 -55l-302 -302l-53 53l302 302c39 38 55 49 55 49l-2 3s-37 -8 -98 -4l-217 13l-15 15l32 60l424 20l30 -30l-20 -424l-60 -32z" />
    <glyph glyph-name="uni2198" unicode="&#x2198;" horiz-adv-x="699" 
d="M497 297l13 217l15 15l60 -32l20 -424l-30 -30l-424 20l-32 60l15 15l217 13c61 4 98 -4 98 -4l2 3s-16 11 -55 49l-302 302l53 53l302 -302c39 -39 49 -55 49 -55l2 3s-7 36 -3 97z" />
    <glyph glyph-name="uni2199" unicode="&#x2199;" horiz-adv-x="699" 
d="M189 514l13 -217c4 -61 -3 -97 -3 -97l2 -3s10 16 49 55l302 302l53 -53l-302 -302c-39 -38 -55 -49 -55 -49l2 -3s37 8 98 4l217 -13l15 -15l-32 -60l-424 -20l-30 30l20 424l60 32z" />
    <glyph glyph-name="partialdiff" unicode="&#x2202;" horiz-adv-x="521" 
d="M250 446c45 0 78 -13 108 -37c-6 108 -52 196 -151 196c-64 0 -95 -17 -131 -51l-19 20c22 70 98 110 185 110c158 0 245 -113 245 -408c0 -218 -94 -285 -227 -285c-142 0 -226 68 -226 226c0 152 98 229 216 229zM261 33c65 0 89 73 89 183c0 123 -31 184 -90 184
c-62 0 -89 -65 -89 -184c0 -105 18 -183 90 -183z" />
    <glyph glyph-name="increment" unicode="&#x2206;" horiz-adv-x="582" 
d="M114 54h276l-109 313c-24 68 -33 124 -33 124h-4s-11 -57 -32 -124zM535 0h-488l-13 19l189 569h116l209 -569z" />
    <glyph glyph-name="product" unicode="&#x220f;" horiz-adv-x="707" 
d="M469 537h-234v-582l67 -23l-8 -32h-252l-7 32l64 23v578l-64 23l7 32h622l8 -32l-67 -23v-578l67 -23l-8 -32h-252l-7 32l64 23v582z" />
    <glyph glyph-name="summation" unicode="&#x2211;" horiz-adv-x="517" 
d="M371 284v-11l-218 -268h239l75 112l26 -6l-20 -211h-453v31l230 297l-229 332v28h443v-157l-21 -5l-85 110h-159z" />
    <glyph glyph-name="minus" unicode="&#x2212;" horiz-adv-x="496" 
d="M441 213h-386v63h386v-63z" />
    <glyph glyph-name="radical" unicode="&#x221a;" horiz-adv-x="491" 
d="M188 498h15l105 -280h4l135 520h54l-191 -747h-20l-190 407l-62 -30l-18 39z" />
    <glyph glyph-name="infinity" unicode="&#x221e;" horiz-adv-x="886" 
d="M524 99l-94 72c-61 -84 -129 -128 -215 -128c-88 0 -181 44 -181 176c0 134 96 193 182 193c64 0 99 -22 143 -56l94 -73c61 84 128 129 215 129c89 0 181 -44 181 -176c0 -134 -95 -193 -181 -193c-64 0 -99 22 -144 56zM222 97c60 0 115 34 172 101l-110 86
c-33 25 -52 35 -87 35c-57 0 -95 -41 -95 -108c0 -75 52 -114 120 -114zM662 358c-61 0 -116 -34 -173 -102l110 -85c33 -25 52 -35 88 -35c57 0 94 41 94 108c0 75 -51 114 -119 114z" />
    <glyph glyph-name="integral" unicode="&#x222b;" horiz-adv-x="423" 
d="M170 -20v557c0 141 77 189 176 189c69 0 117 -23 117 -84c0 -37 -27 -65 -63 -65c-38 0 -63 26 -63 61c0 23 10 44 24 54c-52 0 -60 -27 -60 -97v-586c0 -104 -58 -170 -192 -170c-59 0 -99 22 -99 73c0 38 28 62 65 62c40 0 57 -30 57 -62c0 -17 -5 -31 -12 -40
c34 0 50 33 50 108z" />
    <glyph glyph-name="approxequal" unicode="&#x2248;" horiz-adv-x="496" 
d="M353 244c-61 0 -147 42 -202 42c-38 0 -68 -14 -96 -42v65c30 30 62 40 99 40c62 0 137 -39 196 -39c33 0 61 10 91 37v-69c-23 -24 -50 -34 -88 -34zM353 125c-61 0 -147 41 -202 41c-38 0 -68 -14 -96 -41v64c30 30 62 41 99 41c62 0 137 -39 196 -39c33 0 61 9 91 37
v-69c-23 -25 -50 -34 -88 -34z" />
    <glyph glyph-name="notequal" unicode="&#x2260;" horiz-adv-x="496" 
d="M441 279h-119l-55 -72h174v-64h-221l-87 -114l-51 38l59 76h-86v64h133l54 72h-187v63h235l80 105l51 -38l-51 -67h71v-63z" />
    <glyph glyph-name="lessequal" unicode="&#x2264;" horiz-adv-x="425" 
d="M351 408l-175 -118l174 -118l-45 -57l-244 175l247 172zM370 29h-315v64h315v-64z" />
    </font>
</defs>
</svg>
