<?xml version="1.0" encoding="utf-8"?>
<!-- Generator: Adobe Illustrator 19.2.0, SVG Export Plug-In . SVG Version: 6.00 Build 0)  -->
<svg version="1.1" id="Layer_1" xmlns="http://www.w3.org/2000/svg" xmlns:xlink="http://www.w3.org/1999/xlink" x="0px" y="0px"
	 viewBox="0 0 28.5 28.5" style="enable-background:new 0 0 28.5 28.5;" xml:space="preserve">
<style type="text/css">
	.st0{fill:#1E3E8A;}
</style>
<g>
	<path class="st0" d="M14.3,27.3c-7.2,0-13-5.8-13-13s5.8-13,13-13c5,0,9.6,2.9,11.8,7.5l0,0c0.8,1.7,1.2,3.6,1.2,5.6
		C27.3,21.5,21.5,27.3,14.3,27.3z M14.3,2.7C7.9,2.7,2.7,7.9,2.7,14.3c0,6.4,5.2,11.6,11.6,11.6s11.6-5.2,11.6-11.6
		c0-1.7-0.4-3.4-1.1-5v0C22.9,5.3,18.7,2.7,14.3,2.7z"/>
</g>
<g>
	<g>
		<g>
			<path class="st0" d="M8.2,13.3c-0.2,0-0.4-0.1-0.5-0.2c-0.3-0.3-0.3-0.7,0-1l1.2-1.2L7.7,9.6c-0.3-0.3-0.3-0.7,0-1
				c0.3-0.3,0.7-0.3,1,0l1.7,1.7c0.3,0.3,0.3,0.7,0,1l-1.7,1.7C8.5,13.2,8.4,13.3,8.2,13.3z"/>
		</g>
		<g>
			<path class="st0" d="M11.7,13.3c-0.2,0-0.4-0.1-0.5-0.2l-1.7-1.7c-0.1-0.1-0.2-0.3-0.2-0.5s0.1-0.4,0.2-0.5l1.7-1.7
				c0.3-0.3,0.7-0.3,1,0s0.3,0.7,0,1L11,10.8l1.2,1.2c0.3,0.3,0.3,0.7,0,1C12.1,13.2,11.9,13.3,11.7,13.3z"/>
		</g>
	</g>
	<g>
		<g>
			<path class="st0" d="M16.8,13.3c-0.2,0-0.4-0.1-0.5-0.2c-0.3-0.3-0.3-0.7,0-1l1.2-1.2l-1.2-1.2c-0.3-0.3-0.3-0.7,0-1
				c0.3-0.3,0.7-0.3,1,0l1.7,1.7c0.3,0.3,0.3,0.7,0,1l-1.7,1.7C17.2,13.2,17,13.3,16.8,13.3z"/>
		</g>
		<g>
			<path class="st0" d="M20.4,13.3c-0.2,0-0.4-0.1-0.5-0.2l-1.7-1.7c-0.3-0.3-0.3-0.7,0-1l1.7-1.7c0.3-0.3,0.7-0.3,1,0
				c0.3,0.3,0.3,0.7,0,1l-1.2,1.2l1.2,1.2c0.3,0.3,0.3,0.7,0,1C20.7,13.2,20.5,13.3,20.4,13.3z"/>
		</g>
	</g>
</g>
<g>
	<path class="st0" d="M19,22.1H9.9c-0.4,0-0.7-0.3-0.7-0.7c0-2.9,2.4-5.3,5.3-5.3c2.9,0,5.3,2.4,5.3,5.3
		C19.7,21.8,19.4,22.1,19,22.1z M10.6,20.7h7.6c-0.3-1.8-1.9-3.2-3.8-3.2S11,18.9,10.6,20.7z"/>
</g>
</svg>
