<?xml version="1.0" encoding="utf-8"?>
<!-- Generator: Adobe Illustrator 19.1.0, SVG Export Plug-In . SVG Version: 6.00 Build 0)  -->
<svg version="1.1" id="Layer_1" xmlns="http://www.w3.org/2000/svg" xmlns:xlink="http://www.w3.org/1999/xlink" x="0px" y="0px"
	 viewBox="0 0 16.6 19.6" style="enable-background:new 0 0 16.6 19.6;" xml:space="preserve">
<style type="text/css">
	.st0{opacity:0.8;}
	.st1{fill:#ED6F6D;}
</style>
<g>
	<g class="st0">
		<g>
			<g>
				<g>
					<path class="st1" d="M8.3,19.3c-0.4,0-0.7-0.2-1-0.5l-6-6.3l-0.5-1c-0.4-1.1-0.7-2.1-0.7-3.2c0-4.1,3.2-7.6,7.3-8
						c4.8-0.4,8.9,3.3,8.9,8.1c0,1.1-0.2,2.2-0.6,3.1l-0.7,1.3l-5.8,6C9.1,19.1,8.7,19.3,8.3,19.3z M2.3,12l5.9,6.1l0,0l0.2,0
						l5.9-6.1l0.5-0.9c0.3-0.8,0.5-1.7,0.5-2.7c0-3.9-3.1-7-7-7c-0.2,0-0.5,0-0.7,0C4.1,1.7,1.3,4.7,1.3,8.3c0,1,0.2,1.9,0.6,2.8
						L2.3,12z"/>
				</g>
			</g>
		</g>
	</g>
</g>
</svg>
