<?xml version="1.0" encoding="utf-8"?>
<!-- Generator: Adobe Illustrator 19.1.0, SVG Export Plug-In . SVG Version: 6.00 Build 0)  -->
<svg version="1.1" id="Layer_1" xmlns="http://www.w3.org/2000/svg" xmlns:xlink="http://www.w3.org/1999/xlink" x="0px" y="0px"
	 viewBox="0 0 21.4 20.8" style="enable-background:new 0 0 21.4 20.8;" xml:space="preserve">
<style type="text/css">
	.st0{fill:#003DA6;}
</style>
<g id="XMLID_46_">
	<g id="XMLID_51_">
		<path class="st0" d="M0.6,20.8C0.5,20.8,0.5,20.8,0.6,20.8l-0.3,0c-0.1,0-0.2-0.1-0.2-0.2c0-0.1-0.1-0.2,0-0.3L7.8,0.2
			C7.8,0.1,7.9,0.1,8,0C8,0,8.1,0,8.2,0C14.1,2.5,19,7.5,21.4,13.4c0,0.1,0,0.2,0,0.3s-0.1,0.1-0.2,0.2L0.7,20.7
			C0.6,20.8,0.6,20.8,0.6,20.8z M8.3,0.7L0.8,20l19.9-6.7C18.4,7.8,13.8,3.1,8.3,0.7z"/>
	</g>
	<g id="XMLID_50_">
		<path class="st0" d="M18.7,14.4c-0.1,0-0.2-0.1-0.3-0.2c-2-4.9-6.1-9.1-11-11.2C7.2,3,7.1,2.8,7.2,2.6c0.1-0.2,0.3-0.2,0.4-0.2
			C12.7,4.6,16.9,8.9,19,14c0.1,0.2,0,0.3-0.2,0.4C18.8,14.4,18.7,14.4,18.7,14.4z"/>
	</g>
	<g id="XMLID_49_">
		<path class="st0" d="M5,11.7c-0.3,0-0.7-0.1-1-0.2c-0.2-0.1-0.2-0.3-0.2-0.4c0.1-0.2,0.3-0.2,0.4-0.2c0.4,0.2,0.9,0.2,1.4,0
			c0.4-0.2,0.8-0.5,1-1c0.2-0.4,0.2-0.9,0-1.4c-0.2-0.4-0.5-0.8-1-1C5.6,7.5,5.5,7.4,5.6,7.2C5.7,7,5.8,7,6,7
			c0.6,0.3,1.1,0.7,1.3,1.3c0.2,0.6,0.2,1.3,0,1.9c-0.3,0.6-0.7,1.1-1.3,1.3C5.6,11.6,5.3,11.7,5,11.7z"/>
	</g>
	<g id="XMLID_48_">
		<path class="st0" d="M5.7,19c0,0-0.1,0-0.1,0c-0.5-0.2-0.9-0.7-1.1-1.2c-0.2-0.5-0.2-1.1,0.1-1.6c0.2-0.5,0.7-0.9,1.2-1.1
			c0.5-0.2,1.1-0.2,1.6,0.1c1.1,0.5,1.5,1.8,1.1,2.8C8.3,18,8.1,18.1,7.9,18c-0.2-0.1-0.2-0.3-0.2-0.4c0.3-0.8,0-1.6-0.7-2
			c-0.4-0.2-0.8-0.2-1.1,0C5.5,15.7,5.2,16,5,16.4c-0.2,0.4-0.2,0.8,0,1.1c0.1,0.4,0.4,0.7,0.8,0.8c0.2,0.1,0.2,0.3,0.2,0.4
			C5.9,18.9,5.8,19,5.7,19z"/>
	</g>
	<g id="XMLID_47_">
		<path class="st0" d="M11.7,13.7c-0.5,0-1.1-0.2-1.5-0.6c-0.8-0.8-0.8-2.1,0-2.9c0.8-0.8,2.1-0.8,2.9,0c0.4,0.4,0.6,0.9,0.6,1.5
			c0,0.6-0.2,1.1-0.6,1.5l0,0l0,0C12.8,13.5,12.3,13.7,11.7,13.7z M11.7,10.2c-0.4,0-0.7,0.1-1,0.4c-0.6,0.6-0.6,1.5,0,2
			c0.6,0.6,1.5,0.6,2,0l0,0c0.3-0.3,0.4-0.6,0.4-1c0-0.4-0.1-0.7-0.4-1C12.5,10.3,12.1,10.2,11.7,10.2z"/>
	</g>
</g>
</svg>
