<?xml version="1.0" encoding="utf-8"?>
<!-- Generator: Adobe Illustrator 19.1.0, SVG Export Plug-In . SVG Version: 6.00 Build 0)  -->
<svg version="1.1" id="Layer_1" xmlns="http://www.w3.org/2000/svg" xmlns:xlink="http://www.w3.org/1999/xlink" x="0px" y="0px"
	 viewBox="0 0 57.1 44.6" style="enable-background:new 0 0 57.1 44.6;" xml:space="preserve">
<style type="text/css">
	.st0{fill:#FFFFFF;}
</style>
<g>
	<g>
		<path class="st0" d="M46.4,43.9c-0.1,0-0.2,0-0.2,0L1.4,28.5c-0.2-0.1-0.3-0.2-0.4-0.4c-0.1-0.2-0.1-0.4,0-0.6l0.9-2.6
			c0.1-0.3,0.4-0.5,0.8-0.5c1.3,0.1,1.5-0.4,1.9-1.6c0.4-1.2,0.6-1.7-0.5-2.4c-0.3-0.2-0.4-0.5-0.3-0.9L4.5,17
			c0.1-0.3,0.4-0.5,0.8-0.5c1.3,0.1,1.5-0.4,1.9-1.6c0.4-1.2,0.6-1.7-0.5-2.4c-0.3-0.2-0.4-0.5-0.3-0.9L7.3,9C7.4,8.7,7.7,8.5,8,8.5
			C9.4,8.6,9.5,8.1,9.9,7c0.4-1.2,0.6-1.7-0.5-2.4C9.1,4.3,9,4,9.1,3.7L10,1.2c0.1-0.4,0.6-0.6,1-0.5l44.8,15.4
			c0.4,0.1,0.6,0.6,0.5,1l-0.8,2.5c-0.1,0.3-0.4,0.5-0.8,0.5c-1.3-0.1-1.5,0.4-1.9,1.6c-0.4,1.2-0.5,1.7,0.6,2.4
			c0.3,0.2,0.4,0.5,0.3,0.9l-0.9,2.5c-0.1,0.3-0.4,0.5-0.8,0.5c-1.3-0.1-1.5,0.4-1.9,1.6c-0.4,1.2-0.5,1.7,0.6,2.4
			c0.3,0.2,0.4,0.5,0.3,0.9l-0.9,2.5c-0.1,0.3-0.4,0.5-0.8,0.5c-1.3-0.1-1.5,0.4-1.9,1.6c-0.4,1.2-0.5,1.7,0.6,2.4
			c0.3,0.2,0.4,0.5,0.3,0.9l-0.9,2.6C47,43.7,46.8,43.9,46.4,43.9z M2.6,27.3L46,42.2l0.5-1.4c-1.6-1.3-1.1-2.8-0.7-3.8
			c0.4-1.1,0.9-2.5,2.9-2.6l0.5-1.5c-1.6-1.3-1.1-2.8-0.7-3.8c0.4-1.1,0.9-2.5,2.9-2.6l0.5-1.5c-1.6-1.3-1.1-2.8-0.7-3.8
			c0.4-1.1,0.9-2.5,2.9-2.6l0.4-1.2L11.1,2.4l-0.4,1.2c1.5,1.3,1,2.7,0.7,3.8C11,8.6,10.5,10,8.5,10L8,11.6c1.5,1.3,1,2.7,0.7,3.8
			c-0.4,1.1-0.9,2.5-2.9,2.6l-0.5,1.5c1.5,1.3,1,2.7,0.7,3.8c-0.4,1.1-0.9,2.5-2.9,2.6L2.6,27.3z"/>
	</g>
	<g>
		<path class="st0" d="M37.6,35.4c-0.1,0-0.2,0-0.2,0l-23.7-8.1c-0.4-0.1-0.6-0.6-0.5-1l5.7-16.6c0.1-0.2,0.2-0.3,0.4-0.4
			c0.2-0.1,0.4-0.1,0.6,0l23.7,8.1c0.4,0.1,0.6,0.6,0.5,1l-5.7,16.6c-0.1,0.2-0.2,0.3-0.4,0.4C37.8,35.4,37.7,35.4,37.6,35.4z
			 M14.8,26l22.3,7.6l5.2-15.1L20,10.9L14.8,26z"/>
	</g>
</g>
</svg>
